<?xml version="1.0" encoding="utf-8" standalone="no"?>
<!DOCTYPE svg PUBLIC "-//W3C//DTD SVG 1.1//EN"
  "http://www.w3.org/Graphics/SVG/1.1/DTD/svg11.dtd">
<svg xmlns:xlink="http://www.w3.org/1999/xlink" width="398.805938pt" height="296.399687pt" viewBox="0 0 398.805938 296.399687" xmlns="http://www.w3.org/2000/svg" version="1.1">
 <metadata>
  <rdf:RDF xmlns:dc="http://purl.org/dc/elements/1.1/" xmlns:cc="http://creativecommons.org/ns#" xmlns:rdf="http://www.w3.org/1999/02/22-rdf-syntax-ns#">
   <cc:Work>
    <dc:type rdf:resource="http://purl.org/dc/dcmitype/StillImage"/>
    <dc:date>2023-01-19T16:37:47.746191</dc:date>
    <dc:format>image/svg+xml</dc:format>
    <dc:creator>
     <cc:Agent>
      <dc:title>Matplotlib v3.5.2, https://matplotlib.org/</dc:title>
     </cc:Agent>
    </dc:creator>
   </cc:Work>
  </rdf:RDF>
 </metadata>
 <defs>
  <style type="text/css">*{stroke-linejoin: round; stroke-linecap: butt}</style>
 </defs>
 <g id="figure_1">
  <g id="patch_1">
   <path d="M 0 296.399687 
L 398.805938 296.399687 
L 398.805938 0 
L 0 0 
z
" style="fill: #ffffff"/>
  </g>
  <g id="axes_1">
   <g id="patch_2">
    <path d="M 56.805937 253.44 
L 391.605938 253.44 
L 391.605938 36 
L 56.805937 36 
z
" style="fill: #d9d9d9"/>
   </g>
   <g id="matplotlib.axis_1">
    <g id="xtick_1">
     <g id="line2d_1">
      <path d="M 72.024119 253.44 
L 72.024119 36 
" clip-path="url(#p4ec5290ce7)" style="fill: none; stroke: #ffffff; stroke-linecap: round"/>
     </g>
     <g id="text_1">
      <!-- 0.0 -->
      <g style="fill: #262626" transform="translate(63.277401 271.298281)scale(0.11 -0.11)">
       <defs>
        <path id="DejaVuSans-30" d="M 2034 4250 
Q 1547 4250 1301 3770 
Q 1056 3291 1056 2328 
Q 1056 1369 1301 889 
Q 1547 409 2034 409 
Q 2525 409 2770 889 
Q 3016 1369 3016 2328 
Q 3016 3291 2770 3770 
Q 2525 4250 2034 4250 
z
M 2034 4750 
Q 2819 4750 3233 4129 
Q 3647 3509 3647 2328 
Q 3647 1150 3233 529 
Q 2819 -91 2034 -91 
Q 1250 -91 836 529 
Q 422 1150 422 2328 
Q 422 3509 836 4129 
Q 1250 4750 2034 4750 
z
" transform="scale(0.015625)"/>
        <path id="DejaVuSans-2e" d="M 684 794 
L 1344 794 
L 1344 0 
L 684 0 
L 684 794 
z
" transform="scale(0.015625)"/>
       </defs>
       <use xlink:href="#DejaVuSans-30"/>
       <use xlink:href="#DejaVuSans-2e" x="63.623047"/>
       <use xlink:href="#DejaVuSans-30" x="95.410156"/>
      </g>
     </g>
    </g>
    <g id="xtick_2">
     <g id="line2d_2">
      <path d="M 110.198212 253.44 
L 110.198212 36 
" clip-path="url(#p4ec5290ce7)" style="fill: none; stroke: #ffffff; stroke-linecap: round"/>
     </g>
     <g id="text_2">
      <!-- 0.1 -->
      <g style="fill: #262626" transform="translate(101.451493 271.298281)scale(0.11 -0.11)">
       <defs>
        <path id="DejaVuSans-31" d="M 794 531 
L 1825 531 
L 1825 4091 
L 703 3866 
L 703 4441 
L 1819 4666 
L 2450 4666 
L 2450 531 
L 3481 531 
L 3481 0 
L 794 0 
L 794 531 
z
" transform="scale(0.015625)"/>
       </defs>
       <use xlink:href="#DejaVuSans-30"/>
       <use xlink:href="#DejaVuSans-2e" x="63.623047"/>
       <use xlink:href="#DejaVuSans-31" x="95.410156"/>
      </g>
     </g>
    </g>
    <g id="xtick_3">
     <g id="line2d_3">
      <path d="M 148.372305 253.44 
L 148.372305 36 
" clip-path="url(#p4ec5290ce7)" style="fill: none; stroke: #ffffff; stroke-linecap: round"/>
     </g>
     <g id="text_3">
      <!-- 0.2 -->
      <g style="fill: #262626" transform="translate(139.625586 271.298281)scale(0.11 -0.11)">
       <defs>
        <path id="DejaVuSans-32" d="M 1228 531 
L 3431 531 
L 3431 0 
L 469 0 
L 469 531 
Q 828 903 1448 1529 
Q 2069 2156 2228 2338 
Q 2531 2678 2651 2914 
Q 2772 3150 2772 3378 
Q 2772 3750 2511 3984 
Q 2250 4219 1831 4219 
Q 1534 4219 1204 4116 
Q 875 4013 500 3803 
L 500 4441 
Q 881 4594 1212 4672 
Q 1544 4750 1819 4750 
Q 2544 4750 2975 4387 
Q 3406 4025 3406 3419 
Q 3406 3131 3298 2873 
Q 3191 2616 2906 2266 
Q 2828 2175 2409 1742 
Q 1991 1309 1228 531 
z
" transform="scale(0.015625)"/>
       </defs>
       <use xlink:href="#DejaVuSans-30"/>
       <use xlink:href="#DejaVuSans-2e" x="63.623047"/>
       <use xlink:href="#DejaVuSans-32" x="95.410156"/>
      </g>
     </g>
    </g>
    <g id="xtick_4">
     <g id="line2d_4">
      <path d="M 186.546398 253.44 
L 186.546398 36 
" clip-path="url(#p4ec5290ce7)" style="fill: none; stroke: #ffffff; stroke-linecap: round"/>
     </g>
     <g id="text_4">
      <!-- 0.3 -->
      <g style="fill: #262626" transform="translate(177.799679 271.298281)scale(0.11 -0.11)">
       <defs>
        <path id="DejaVuSans-33" d="M 2597 2516 
Q 3050 2419 3304 2112 
Q 3559 1806 3559 1356 
Q 3559 666 3084 287 
Q 2609 -91 1734 -91 
Q 1441 -91 1130 -33 
Q 819 25 488 141 
L 488 750 
Q 750 597 1062 519 
Q 1375 441 1716 441 
Q 2309 441 2620 675 
Q 2931 909 2931 1356 
Q 2931 1769 2642 2001 
Q 2353 2234 1838 2234 
L 1294 2234 
L 1294 2753 
L 1863 2753 
Q 2328 2753 2575 2939 
Q 2822 3125 2822 3475 
Q 2822 3834 2567 4026 
Q 2313 4219 1838 4219 
Q 1578 4219 1281 4162 
Q 984 4106 628 3988 
L 628 4550 
Q 988 4650 1302 4700 
Q 1616 4750 1894 4750 
Q 2613 4750 3031 4423 
Q 3450 4097 3450 3541 
Q 3450 3153 3228 2886 
Q 3006 2619 2597 2516 
z
" transform="scale(0.015625)"/>
       </defs>
       <use xlink:href="#DejaVuSans-30"/>
       <use xlink:href="#DejaVuSans-2e" x="63.623047"/>
       <use xlink:href="#DejaVuSans-33" x="95.410156"/>
      </g>
     </g>
    </g>
    <g id="xtick_5">
     <g id="line2d_5">
      <path d="M 224.720491 253.44 
L 224.720491 36 
" clip-path="url(#p4ec5290ce7)" style="fill: none; stroke: #ffffff; stroke-linecap: round"/>
     </g>
     <g id="text_5">
      <!-- 0.4 -->
      <g style="fill: #262626" transform="translate(215.973772 271.298281)scale(0.11 -0.11)">
       <defs>
        <path id="DejaVuSans-34" d="M 2419 4116 
L 825 1625 
L 2419 1625 
L 2419 4116 
z
M 2253 4666 
L 3047 4666 
L 3047 1625 
L 3713 1625 
L 3713 1100 
L 3047 1100 
L 3047 0 
L 2419 0 
L 2419 1100 
L 313 1100 
L 313 1709 
L 2253 4666 
z
" transform="scale(0.015625)"/>
       </defs>
       <use xlink:href="#DejaVuSans-30"/>
       <use xlink:href="#DejaVuSans-2e" x="63.623047"/>
       <use xlink:href="#DejaVuSans-34" x="95.410156"/>
      </g>
     </g>
    </g>
    <g id="xtick_6">
     <g id="line2d_6">
      <path d="M 262.894584 253.44 
L 262.894584 36 
" clip-path="url(#p4ec5290ce7)" style="fill: none; stroke: #ffffff; stroke-linecap: round"/>
     </g>
     <g id="text_6">
      <!-- 0.5 -->
      <g style="fill: #262626" transform="translate(254.147865 271.298281)scale(0.11 -0.11)">
       <defs>
        <path id="DejaVuSans-35" d="M 691 4666 
L 3169 4666 
L 3169 4134 
L 1269 4134 
L 1269 2991 
Q 1406 3038 1543 3061 
Q 1681 3084 1819 3084 
Q 2600 3084 3056 2656 
Q 3513 2228 3513 1497 
Q 3513 744 3044 326 
Q 2575 -91 1722 -91 
Q 1428 -91 1123 -41 
Q 819 9 494 109 
L 494 744 
Q 775 591 1075 516 
Q 1375 441 1709 441 
Q 2250 441 2565 725 
Q 2881 1009 2881 1497 
Q 2881 1984 2565 2268 
Q 2250 2553 1709 2553 
Q 1456 2553 1204 2497 
Q 953 2441 691 2322 
L 691 4666 
z
" transform="scale(0.015625)"/>
       </defs>
       <use xlink:href="#DejaVuSans-30"/>
       <use xlink:href="#DejaVuSans-2e" x="63.623047"/>
       <use xlink:href="#DejaVuSans-35" x="95.410156"/>
      </g>
     </g>
    </g>
    <g id="xtick_7">
     <g id="line2d_7">
      <path d="M 301.068677 253.44 
L 301.068677 36 
" clip-path="url(#p4ec5290ce7)" style="fill: none; stroke: #ffffff; stroke-linecap: round"/>
     </g>
     <g id="text_7">
      <!-- 0.6 -->
      <g style="fill: #262626" transform="translate(292.321958 271.298281)scale(0.11 -0.11)">
       <defs>
        <path id="DejaVuSans-36" d="M 2113 2584 
Q 1688 2584 1439 2293 
Q 1191 2003 1191 1497 
Q 1191 994 1439 701 
Q 1688 409 2113 409 
Q 2538 409 2786 701 
Q 3034 994 3034 1497 
Q 3034 2003 2786 2293 
Q 2538 2584 2113 2584 
z
M 3366 4563 
L 3366 3988 
Q 3128 4100 2886 4159 
Q 2644 4219 2406 4219 
Q 1781 4219 1451 3797 
Q 1122 3375 1075 2522 
Q 1259 2794 1537 2939 
Q 1816 3084 2150 3084 
Q 2853 3084 3261 2657 
Q 3669 2231 3669 1497 
Q 3669 778 3244 343 
Q 2819 -91 2113 -91 
Q 1303 -91 875 529 
Q 447 1150 447 2328 
Q 447 3434 972 4092 
Q 1497 4750 2381 4750 
Q 2619 4750 2861 4703 
Q 3103 4656 3366 4563 
z
" transform="scale(0.015625)"/>
       </defs>
       <use xlink:href="#DejaVuSans-30"/>
       <use xlink:href="#DejaVuSans-2e" x="63.623047"/>
       <use xlink:href="#DejaVuSans-36" x="95.410156"/>
      </g>
     </g>
    </g>
    <g id="xtick_8">
     <g id="line2d_8">
      <path d="M 339.24277 253.44 
L 339.24277 36 
" clip-path="url(#p4ec5290ce7)" style="fill: none; stroke: #ffffff; stroke-linecap: round"/>
     </g>
     <g id="text_8">
      <!-- 0.7 -->
      <g style="fill: #262626" transform="translate(330.496051 271.298281)scale(0.11 -0.11)">
       <defs>
        <path id="DejaVuSans-37" d="M 525 4666 
L 3525 4666 
L 3525 4397 
L 1831 0 
L 1172 0 
L 2766 4134 
L 525 4134 
L 525 4666 
z
" transform="scale(0.015625)"/>
       </defs>
       <use xlink:href="#DejaVuSans-30"/>
       <use xlink:href="#DejaVuSans-2e" x="63.623047"/>
       <use xlink:href="#DejaVuSans-37" x="95.410156"/>
      </g>
     </g>
    </g>
    <g id="xtick_9">
     <g id="line2d_9">
      <path d="M 377.416863 253.44 
L 377.416863 36 
" clip-path="url(#p4ec5290ce7)" style="fill: none; stroke: #ffffff; stroke-linecap: round"/>
     </g>
     <g id="text_9">
      <!-- 0.8 -->
      <g style="fill: #262626" transform="translate(368.670144 271.298281)scale(0.11 -0.11)">
       <defs>
        <path id="DejaVuSans-38" d="M 2034 2216 
Q 1584 2216 1326 1975 
Q 1069 1734 1069 1313 
Q 1069 891 1326 650 
Q 1584 409 2034 409 
Q 2484 409 2743 651 
Q 3003 894 3003 1313 
Q 3003 1734 2745 1975 
Q 2488 2216 2034 2216 
z
M 1403 2484 
Q 997 2584 770 2862 
Q 544 3141 544 3541 
Q 544 4100 942 4425 
Q 1341 4750 2034 4750 
Q 2731 4750 3128 4425 
Q 3525 4100 3525 3541 
Q 3525 3141 3298 2862 
Q 3072 2584 2669 2484 
Q 3125 2378 3379 2068 
Q 3634 1759 3634 1313 
Q 3634 634 3220 271 
Q 2806 -91 2034 -91 
Q 1263 -91 848 271 
Q 434 634 434 1313 
Q 434 1759 690 2068 
Q 947 2378 1403 2484 
z
M 1172 3481 
Q 1172 3119 1398 2916 
Q 1625 2713 2034 2713 
Q 2441 2713 2670 2916 
Q 2900 3119 2900 3481 
Q 2900 3844 2670 4047 
Q 2441 4250 2034 4250 
Q 1625 4250 1398 4047 
Q 1172 3844 1172 3481 
z
" transform="scale(0.015625)"/>
       </defs>
       <use xlink:href="#DejaVuSans-30"/>
       <use xlink:href="#DejaVuSans-2e" x="63.623047"/>
       <use xlink:href="#DejaVuSans-38" x="95.410156"/>
      </g>
     </g>
    </g>
    <g id="text_10">
     <!-- Pose [x] -->
     <g style="fill: #262626" transform="translate(200.176875 286.704062)scale(0.12 -0.12)">
      <defs>
       <path id="DejaVuSans-50" d="M 1259 4147 
L 1259 2394 
L 2053 2394 
Q 2494 2394 2734 2622 
Q 2975 2850 2975 3272 
Q 2975 3691 2734 3919 
Q 2494 4147 2053 4147 
L 1259 4147 
z
M 628 4666 
L 2053 4666 
Q 2838 4666 3239 4311 
Q 3641 3956 3641 3272 
Q 3641 2581 3239 2228 
Q 2838 1875 2053 1875 
L 1259 1875 
L 1259 0 
L 628 0 
L 628 4666 
z
" transform="scale(0.015625)"/>
       <path id="DejaVuSans-6f" d="M 1959 3097 
Q 1497 3097 1228 2736 
Q 959 2375 959 1747 
Q 959 1119 1226 758 
Q 1494 397 1959 397 
Q 2419 397 2687 759 
Q 2956 1122 2956 1747 
Q 2956 2369 2687 2733 
Q 2419 3097 1959 3097 
z
M 1959 3584 
Q 2709 3584 3137 3096 
Q 3566 2609 3566 1747 
Q 3566 888 3137 398 
Q 2709 -91 1959 -91 
Q 1206 -91 779 398 
Q 353 888 353 1747 
Q 353 2609 779 3096 
Q 1206 3584 1959 3584 
z
" transform="scale(0.015625)"/>
       <path id="DejaVuSans-73" d="M 2834 3397 
L 2834 2853 
Q 2591 2978 2328 3040 
Q 2066 3103 1784 3103 
Q 1356 3103 1142 2972 
Q 928 2841 928 2578 
Q 928 2378 1081 2264 
Q 1234 2150 1697 2047 
L 1894 2003 
Q 2506 1872 2764 1633 
Q 3022 1394 3022 966 
Q 3022 478 2636 193 
Q 2250 -91 1575 -91 
Q 1294 -91 989 -36 
Q 684 19 347 128 
L 347 722 
Q 666 556 975 473 
Q 1284 391 1588 391 
Q 1994 391 2212 530 
Q 2431 669 2431 922 
Q 2431 1156 2273 1281 
Q 2116 1406 1581 1522 
L 1381 1569 
Q 847 1681 609 1914 
Q 372 2147 372 2553 
Q 372 3047 722 3315 
Q 1072 3584 1716 3584 
Q 2034 3584 2315 3537 
Q 2597 3491 2834 3397 
z
" transform="scale(0.015625)"/>
       <path id="DejaVuSans-65" d="M 3597 1894 
L 3597 1613 
L 953 1613 
Q 991 1019 1311 708 
Q 1631 397 2203 397 
Q 2534 397 2845 478 
Q 3156 559 3463 722 
L 3463 178 
Q 3153 47 2828 -22 
Q 2503 -91 2169 -91 
Q 1331 -91 842 396 
Q 353 884 353 1716 
Q 353 2575 817 3079 
Q 1281 3584 2069 3584 
Q 2775 3584 3186 3129 
Q 3597 2675 3597 1894 
z
M 3022 2063 
Q 3016 2534 2758 2815 
Q 2500 3097 2075 3097 
Q 1594 3097 1305 2825 
Q 1016 2553 972 2059 
L 3022 2063 
z
" transform="scale(0.015625)"/>
       <path id="DejaVuSans-20" transform="scale(0.015625)"/>
       <path id="DejaVuSans-5b" d="M 550 4863 
L 1875 4863 
L 1875 4416 
L 1125 4416 
L 1125 -397 
L 1875 -397 
L 1875 -844 
L 550 -844 
L 550 4863 
z
" transform="scale(0.015625)"/>
       <path id="DejaVuSans-78" d="M 3513 3500 
L 2247 1797 
L 3578 0 
L 2900 0 
L 1881 1375 
L 863 0 
L 184 0 
L 1544 1831 
L 300 3500 
L 978 3500 
L 1906 2253 
L 2834 3500 
L 3513 3500 
z
" transform="scale(0.015625)"/>
       <path id="DejaVuSans-5d" d="M 1947 4863 
L 1947 -844 
L 622 -844 
L 622 -397 
L 1369 -397 
L 1369 4416 
L 622 4416 
L 622 4863 
L 1947 4863 
z
" transform="scale(0.015625)"/>
      </defs>
      <use xlink:href="#DejaVuSans-50"/>
      <use xlink:href="#DejaVuSans-6f" x="56.677734"/>
      <use xlink:href="#DejaVuSans-73" x="117.859375"/>
      <use xlink:href="#DejaVuSans-65" x="169.958984"/>
      <use xlink:href="#DejaVuSans-20" x="231.482422"/>
      <use xlink:href="#DejaVuSans-5b" x="263.269531"/>
      <use xlink:href="#DejaVuSans-78" x="302.283203"/>
      <use xlink:href="#DejaVuSans-5d" x="361.462891"/>
     </g>
    </g>
   </g>
   <g id="matplotlib.axis_2">
    <g id="ytick_1">
     <g id="line2d_10">
      <path d="M 56.805937 243.556364 
L 391.605938 243.556364 
" clip-path="url(#p4ec5290ce7)" style="fill: none; stroke: #ffffff; stroke-linecap: round"/>
     </g>
     <g id="text_11">
      <!-- 0.00 -->
      <g style="fill: #262626" transform="translate(22.81375 247.735504)scale(0.11 -0.11)">
       <use xlink:href="#DejaVuSans-30"/>
       <use xlink:href="#DejaVuSans-2e" x="63.623047"/>
       <use xlink:href="#DejaVuSans-30" x="95.410156"/>
       <use xlink:href="#DejaVuSans-30" x="159.033203"/>
      </g>
     </g>
    </g>
    <g id="ytick_2">
     <g id="line2d_11">
      <path d="M 56.805937 207.536643 
L 391.605938 207.536643 
" clip-path="url(#p4ec5290ce7)" style="fill: none; stroke: #ffffff; stroke-linecap: round"/>
     </g>
     <g id="text_12">
      <!-- 0.01 -->
      <g style="fill: #262626" transform="translate(22.81375 211.715784)scale(0.11 -0.11)">
       <use xlink:href="#DejaVuSans-30"/>
       <use xlink:href="#DejaVuSans-2e" x="63.623047"/>
       <use xlink:href="#DejaVuSans-30" x="95.410156"/>
       <use xlink:href="#DejaVuSans-31" x="159.033203"/>
      </g>
     </g>
    </g>
    <g id="ytick_3">
     <g id="line2d_12">
      <path d="M 56.805937 171.516923 
L 391.605938 171.516923 
" clip-path="url(#p4ec5290ce7)" style="fill: none; stroke: #ffffff; stroke-linecap: round"/>
     </g>
     <g id="text_13">
      <!-- 0.02 -->
      <g style="fill: #262626" transform="translate(22.81375 175.696063)scale(0.11 -0.11)">
       <use xlink:href="#DejaVuSans-30"/>
       <use xlink:href="#DejaVuSans-2e" x="63.623047"/>
       <use xlink:href="#DejaVuSans-30" x="95.410156"/>
       <use xlink:href="#DejaVuSans-32" x="159.033203"/>
      </g>
     </g>
    </g>
    <g id="ytick_4">
     <g id="line2d_13">
      <path d="M 56.805937 135.497202 
L 391.605938 135.497202 
" clip-path="url(#p4ec5290ce7)" style="fill: none; stroke: #ffffff; stroke-linecap: round"/>
     </g>
     <g id="text_14">
      <!-- 0.03 -->
      <g style="fill: #262626" transform="translate(22.81375 139.676343)scale(0.11 -0.11)">
       <use xlink:href="#DejaVuSans-30"/>
       <use xlink:href="#DejaVuSans-2e" x="63.623047"/>
       <use xlink:href="#DejaVuSans-30" x="95.410156"/>
       <use xlink:href="#DejaVuSans-33" x="159.033203"/>
      </g>
     </g>
    </g>
    <g id="ytick_5">
     <g id="line2d_14">
      <path d="M 56.805937 99.477482 
L 391.605938 99.477482 
" clip-path="url(#p4ec5290ce7)" style="fill: none; stroke: #ffffff; stroke-linecap: round"/>
     </g>
     <g id="text_15">
      <!-- 0.04 -->
      <g style="fill: #262626" transform="translate(22.81375 103.656622)scale(0.11 -0.11)">
       <use xlink:href="#DejaVuSans-30"/>
       <use xlink:href="#DejaVuSans-2e" x="63.623047"/>
       <use xlink:href="#DejaVuSans-30" x="95.410156"/>
       <use xlink:href="#DejaVuSans-34" x="159.033203"/>
      </g>
     </g>
    </g>
    <g id="ytick_6">
     <g id="line2d_15">
      <path d="M 56.805937 63.457761 
L 391.605938 63.457761 
" clip-path="url(#p4ec5290ce7)" style="fill: none; stroke: #ffffff; stroke-linecap: round"/>
     </g>
     <g id="text_16">
      <!-- 0.05 -->
      <g style="fill: #262626" transform="translate(22.81375 67.636902)scale(0.11 -0.11)">
       <use xlink:href="#DejaVuSans-30"/>
       <use xlink:href="#DejaVuSans-2e" x="63.623047"/>
       <use xlink:href="#DejaVuSans-30" x="95.410156"/>
       <use xlink:href="#DejaVuSans-35" x="159.033203"/>
      </g>
     </g>
    </g>
    <g id="text_17">
     <!-- Pose [y] -->
     <g style="fill: #262626" transform="translate(16.318125 168.749062)rotate(-90)scale(0.12 -0.12)">
      <defs>
       <path id="DejaVuSans-79" d="M 2059 -325 
Q 1816 -950 1584 -1140 
Q 1353 -1331 966 -1331 
L 506 -1331 
L 506 -850 
L 844 -850 
Q 1081 -850 1212 -737 
Q 1344 -625 1503 -206 
L 1606 56 
L 191 3500 
L 800 3500 
L 1894 763 
L 2988 3500 
L 3597 3500 
L 2059 -325 
z
" transform="scale(0.015625)"/>
      </defs>
      <use xlink:href="#DejaVuSans-50"/>
      <use xlink:href="#DejaVuSans-6f" x="56.677734"/>
      <use xlink:href="#DejaVuSans-73" x="117.859375"/>
      <use xlink:href="#DejaVuSans-65" x="169.958984"/>
      <use xlink:href="#DejaVuSans-20" x="231.482422"/>
      <use xlink:href="#DejaVuSans-5b" x="263.269531"/>
      <use xlink:href="#DejaVuSans-79" x="302.283203"/>
      <use xlink:href="#DejaVuSans-5d" x="361.462891"/>
     </g>
    </g>
   </g>
   <g id="PolyCollection_1">
    <defs>
     <path id="m5f58a3cd1a" d="M 72.024119 -52.843324 
L 72.024119 -52.843324 
L 72.024119 -52.843324 
L 72.024119 -52.843324 
z
" style="stroke: #4500ff; stroke-opacity: 0.2"/>
    </defs>
    <g clip-path="url(#p4ec5290ce7)">
     <use xlink:href="#m5f58a3cd1a" x="0" y="296.399687" style="fill: #4500ff; fill-opacity: 0.2; stroke: #4500ff; stroke-opacity: 0.2"/>
    </g>
   </g>
   <g id="patch_3">
    <path d="M 72.024119 254.36228 
C 72.327836 254.36228 72.619154 253.2237 72.833914 251.1973 
C 73.048674 249.1709 73.169342 246.422126 73.169342 243.556364 
C 73.169342 240.690601 73.048674 237.941827 72.833914 235.915427 
C 72.619154 233.889027 72.327836 232.750448 72.024119 232.750448 
C 71.720403 232.750448 71.429085 233.889027 71.214325 235.915427 
C 70.999564 237.941827 70.878897 240.690601 70.878897 243.556364 
C 70.878897 246.422126 70.999564 249.1709 71.214325 251.1973 
C 71.429085 253.2237 71.720403 254.36228 72.024119 254.36228 
L 72.024119 254.36228 
z
" clip-path="url(#p4ec5290ce7)" style="fill: none; stroke: #ffffff; stroke-linejoin: miter"/>
   </g>
   <g id="patch_4">
    <path d="M 72.024119 254.36228 
C 72.327836 254.36228 72.619154 253.2237 72.833914 251.1973 
C 73.048674 249.1709 73.169342 246.422126 73.169342 243.556364 
C 73.169342 240.690601 73.048674 237.941827 72.833914 235.915427 
C 72.619154 233.889027 72.327836 232.750448 72.024119 232.750448 
C 71.720403 232.750448 71.429085 233.889027 71.214325 235.915427 
C 70.999564 237.941827 70.878897 240.690601 70.878897 243.556364 
C 70.878897 246.422126 70.999564 249.1709 71.214325 251.1973 
C 71.429085 253.2237 71.720403 254.36228 72.024119 254.36228 
L 72.024119 254.36228 
z
" clip-path="url(#p4ec5290ce7)" style="fill: none; stroke: #ffffff; stroke-linejoin: miter"/>
   </g>
   <g id="patch_5">
    <path d="M 73.175054 254.416175 
C 76.227368 254.416175 79.155079 253.271917 81.313391 251.23541 
C 83.471703 249.198903 84.684401 246.436419 84.684401 243.556364 
C 84.684401 240.676308 83.471703 237.913824 81.313391 235.877317 
C 79.155079 233.840811 76.227368 232.696552 73.175054 232.696552 
C 70.12274 232.696552 67.195029 233.840811 65.036717 235.877317 
C 62.878405 237.913824 61.665707 240.676308 61.665707 243.556364 
C 61.665707 246.436419 62.878405 249.198903 65.036717 251.23541 
C 67.195029 253.271917 70.12274 254.416175 73.175054 254.416175 
L 73.175054 254.416175 
z
" clip-path="url(#p4ec5290ce7)" style="fill: none; stroke: #ffffff; stroke-linejoin: miter"/>
   </g>
   <g id="patch_6">
    <path d="M 75.270765 258.344362 
C 79.776312 258.344362 84.097929 256.782982 87.283831 254.004099 
C 90.469734 251.225216 92.259806 247.455713 92.259806 243.525779 
C 92.259806 239.595845 90.469734 235.826342 87.283831 233.047459 
C 84.097929 230.268576 79.776312 228.707196 75.270765 228.707196 
C 70.765219 228.707196 66.443601 230.268576 63.257699 233.047459 
C 60.071797 235.826342 58.281724 239.595845 58.281724 243.525779 
C 58.281724 247.455713 60.071797 251.225216 63.257699 254.004099 
C 66.443601 256.782982 70.765219 258.344362 75.270765 258.344362 
L 75.270765 258.344362 
z
" clip-path="url(#p4ec5290ce7)" style="fill: none; stroke: #ffffff; stroke-linejoin: miter"/>
   </g>
   <g id="patch_7">
    <path d="M 77.981009 268.623343 
C 83.585047 268.623343 88.960312 265.965327 92.922965 261.234694 
C 96.885619 256.50406 99.112126 250.087044 99.112126 243.396918 
C 99.112126 236.706792 96.885619 230.289775 92.922965 225.559142 
C 88.960312 220.828508 83.585047 218.170493 77.981009 218.170493 
C 72.376971 218.170493 67.001705 220.828508 63.039052 225.559142 
C 59.076399 230.289775 56.849891 236.706792 56.849891 243.396918 
C 56.849891 250.087044 59.076399 256.50406 63.039052 261.234694 
C 67.001705 265.965327 72.376971 268.623343 77.981009 268.623343 
L 77.981009 268.623343 
z
" clip-path="url(#p4ec5290ce7)" style="fill: none; stroke: #ffffff; stroke-linejoin: miter"/>
   </g>
   <g id="patch_8">
    <path d="M 81.185303 282.702857 
C 87.677022 282.702857 93.90373 278.525059 98.494069 271.089574 
C 103.084407 263.65409 105.663594 253.567993 105.663594 243.05263 
C 105.663594 232.537266 103.084407 222.45117 98.494069 215.015685 
C 93.90373 207.5802 87.677022 203.402402 81.185303 203.402402 
C 74.693585 203.402402 68.466876 207.5802 63.876538 215.015685 
C 59.2862 222.45117 56.707012 232.537266 56.707012 243.05263 
C 56.707012 253.567993 59.2862 263.65409 63.876538 271.089574 
C 68.466876 278.525059 74.693585 282.702857 81.185303 282.702857 
L 81.185303 282.702857 
z
" clip-path="url(#p4ec5290ce7)" style="fill: none; stroke: #ffffff; stroke-linejoin: miter"/>
   </g>
   <g id="patch_9">
    <path d="M 84.812532 299.271765 
C 92.066229 299.271765 99.02381 293.274266 104.152948 282.600148 
C 109.282087 271.926031 112.164011 257.446788 112.164011 242.351306 
C 112.164011 227.255823 109.282087 212.776581 104.152948 202.102463 
C 99.02381 191.428345 92.066229 185.430846 84.812532 185.430846 
C 77.558835 185.430846 70.601254 191.428345 65.472115 202.102463 
C 60.342977 212.776581 57.461052 227.255823 57.461052 242.351306 
C 57.461052 257.446788 60.342977 271.926031 65.472115 282.600148 
C 70.601254 293.274266 77.558835 299.271765 84.812532 299.271765 
" clip-path="url(#p4ec5290ce7)" style="fill: none; stroke: #ffffff; stroke-linejoin: miter"/>
   </g>
   <g id="patch_10">
    <path d="M 88.813666 317.698478 
C 96.741233 317.698478 104.345173 309.630846 109.950809 295.272385 
C 115.556445 280.913924 118.706101 261.436939 118.706101 241.131009 
C 118.706101 220.825079 115.556445 201.348094 109.950809 186.989633 
C 104.345173 172.631172 96.741233 164.56354 88.813666 164.56354 
C 80.8861 164.56354 73.282159 172.631172 67.676523 186.989633 
C 62.070888 201.348094 58.921232 220.825079 58.921232 241.131009 
C 58.921232 261.436939 62.070888 280.913924 67.676523 295.272385 
C 73.282159 309.630846 80.8861 317.698478 88.813666 317.698478 
" clip-path="url(#p4ec5290ce7)" style="fill: none; stroke: #ffffff; stroke-linejoin: miter"/>
   </g>
   <g id="patch_11">
    <path d="M 93.15209 337.571886 
C 101.685384 337.571886 109.870325 327.208078 115.904275 308.762971 
C 121.938225 290.317864 125.328539 265.297418 125.328539 239.212097 
C 125.328539 213.126776 121.938225 188.10633 115.904275 169.661223 
C 109.870325 151.216116 101.685384 140.852308 93.15209 140.852308 
C 84.618796 140.852308 76.433855 151.216116 70.399905 169.661223 
C 64.365955 188.10633 60.975641 213.126776 60.975641 239.212097 
C 60.975641 265.297418 64.365955 290.317864 70.399905 308.762971 
C 76.433855 327.208078 84.618796 337.571886 93.15209 337.571886 
" clip-path="url(#p4ec5290ce7)" style="fill: none; stroke: #ffffff; stroke-linejoin: miter"/>
   </g>
   <g id="patch_12">
    <path d="M 97.79923 358.566993 
C 106.882366 358.566993 115.594703 345.694655 122.017449 322.784963 
C 128.440196 299.875272 132.048964 268.7987 132.048964 236.399503 
C 132.048964 204.000306 128.440196 172.923735 122.017449 150.014043 
C 115.594703 127.104351 106.882366 114.232014 97.79923 114.232014 
C 88.716095 114.232014 80.003758 127.104351 73.581011 150.014043 
C 67.158264 172.923735 63.549496 204.000306 63.549496 236.399503 
C 63.549496 268.7987 67.158264 299.875272 73.581011 322.784963 
C 80.003758 345.694655 88.716095 358.566993 97.79923 358.566993 
" clip-path="url(#p4ec5290ce7)" style="fill: none; stroke: #ffffff; stroke-linejoin: miter"/>
   </g>
   <g id="line2d_16">
    <path d="M 72.024119 243.556364 
L 110.198212 243.556364 
L 148.364947 236.484362 
L 186.509609 222.343087 
L 224.617493 201.137988 
L 262.673908 172.877241 
L 300.664182 137.571741 
L 338.57367 95.235099 
L 376.387756 45.883636 
" clip-path="url(#p4ec5290ce7)" style="fill: none; stroke: #4500ff; stroke-width: 0.75; stroke-linecap: round"/>
   </g>
   <g id="patch_13">
    <path d="M 56.805937 253.44 
L 56.805937 36 
" style="fill: none; stroke: #ffffff; stroke-width: 1.25; stroke-linejoin: miter; stroke-linecap: square"/>
   </g>
   <g id="patch_14">
    <path d="M 391.605938 253.44 
L 391.605938 36 
" style="fill: none; stroke: #ffffff; stroke-width: 1.25; stroke-linejoin: miter; stroke-linecap: square"/>
   </g>
   <g id="patch_15">
    <path d="M 56.805937 253.44 
L 391.605938 253.44 
" style="fill: none; stroke: #ffffff; stroke-width: 1.25; stroke-linejoin: miter; stroke-linecap: square"/>
   </g>
   <g id="patch_16">
    <path d="M 56.805937 36 
L 391.605938 36 
" style="fill: none; stroke: #ffffff; stroke-width: 1.25; stroke-linejoin: miter; stroke-linecap: square"/>
   </g>
  </g>
  <g id="text_18">
   <!-- ekf Path -->
   <g style="fill: #262626" transform="translate(189.568312 18.14175)scale(0.144 -0.144)">
    <defs>
     <path id="DejaVuSans-6b" d="M 581 4863 
L 1159 4863 
L 1159 1991 
L 2875 3500 
L 3609 3500 
L 1753 1863 
L 3688 0 
L 2938 0 
L 1159 1709 
L 1159 0 
L 581 0 
L 581 4863 
z
" transform="scale(0.015625)"/>
     <path id="DejaVuSans-66" d="M 2375 4863 
L 2375 4384 
L 1825 4384 
Q 1516 4384 1395 4259 
Q 1275 4134 1275 3809 
L 1275 3500 
L 2222 3500 
L 2222 3053 
L 1275 3053 
L 1275 0 
L 697 0 
L 697 3053 
L 147 3053 
L 147 3500 
L 697 3500 
L 697 3744 
Q 697 4328 969 4595 
Q 1241 4863 1831 4863 
L 2375 4863 
z
" transform="scale(0.015625)"/>
     <path id="DejaVuSans-61" d="M 2194 1759 
Q 1497 1759 1228 1600 
Q 959 1441 959 1056 
Q 959 750 1161 570 
Q 1363 391 1709 391 
Q 2188 391 2477 730 
Q 2766 1069 2766 1631 
L 2766 1759 
L 2194 1759 
z
M 3341 1997 
L 3341 0 
L 2766 0 
L 2766 531 
Q 2569 213 2275 61 
Q 1981 -91 1556 -91 
Q 1019 -91 701 211 
Q 384 513 384 1019 
Q 384 1609 779 1909 
Q 1175 2209 1959 2209 
L 2766 2209 
L 2766 2266 
Q 2766 2663 2505 2880 
Q 2244 3097 1772 3097 
Q 1472 3097 1187 3025 
Q 903 2953 641 2809 
L 641 3341 
Q 956 3463 1253 3523 
Q 1550 3584 1831 3584 
Q 2591 3584 2966 3190 
Q 3341 2797 3341 1997 
z
" transform="scale(0.015625)"/>
     <path id="DejaVuSans-74" d="M 1172 4494 
L 1172 3500 
L 2356 3500 
L 2356 3053 
L 1172 3053 
L 1172 1153 
Q 1172 725 1289 603 
Q 1406 481 1766 481 
L 2356 481 
L 2356 0 
L 1766 0 
Q 1100 0 847 248 
Q 594 497 594 1153 
L 594 3053 
L 172 3053 
L 172 3500 
L 594 3500 
L 594 4494 
L 1172 4494 
z
" transform="scale(0.015625)"/>
     <path id="DejaVuSans-68" d="M 3513 2113 
L 3513 0 
L 2938 0 
L 2938 2094 
Q 2938 2591 2744 2837 
Q 2550 3084 2163 3084 
Q 1697 3084 1428 2787 
Q 1159 2491 1159 1978 
L 1159 0 
L 581 0 
L 581 4863 
L 1159 4863 
L 1159 2956 
Q 1366 3272 1645 3428 
Q 1925 3584 2291 3584 
Q 2894 3584 3203 3211 
Q 3513 2838 3513 2113 
z
" transform="scale(0.015625)"/>
    </defs>
    <use xlink:href="#DejaVuSans-65"/>
    <use xlink:href="#DejaVuSans-6b" x="61.523438"/>
    <use xlink:href="#DejaVuSans-66" x="119.433594"/>
    <use xlink:href="#DejaVuSans-20" x="154.638672"/>
    <use xlink:href="#DejaVuSans-50" x="186.425781"/>
    <use xlink:href="#DejaVuSans-61" x="242.228516"/>
    <use xlink:href="#DejaVuSans-74" x="303.507812"/>
    <use xlink:href="#DejaVuSans-68" x="342.716797"/>
   </g>
  </g>
 </g>
 <defs>
  <clipPath id="p4ec5290ce7">
   <rect x="56.805937" y="36" width="334.8" height="217.44"/>
  </clipPath>
 </defs>
</svg>
