<?xml version="1.0" encoding="utf-8" standalone="no"?>
<!DOCTYPE svg PUBLIC "-//W3C//DTD SVG 1.1//EN"
  "http://www.w3.org/Graphics/SVG/1.1/DTD/svg11.dtd">
<svg xmlns:xlink="http://www.w3.org/1999/xlink" width="381.3125pt" height="282.717813pt" viewBox="0 0 381.3125 282.717813" xmlns="http://www.w3.org/2000/svg" version="1.1">
 <metadata>
  <rdf:RDF xmlns:dc="http://purl.org/dc/elements/1.1/" xmlns:cc="http://creativecommons.org/ns#" xmlns:rdf="http://www.w3.org/1999/02/22-rdf-syntax-ns#">
   <cc:Work>
    <dc:type rdf:resource="http://purl.org/dc/dcmitype/StillImage"/>
    <dc:date>2022-12-14T01:20:40.019966</dc:date>
    <dc:format>image/svg+xml</dc:format>
    <dc:creator>
     <cc:Agent>
      <dc:title>Matplotlib v3.5.2, https://matplotlib.org/</dc:title>
     </cc:Agent>
    </dc:creator>
   </cc:Work>
  </rdf:RDF>
 </metadata>
 <defs>
  <style type="text/css">*{stroke-linejoin: round; stroke-linecap: butt}</style>
 </defs>
 <g id="figure_1">
  <g id="patch_1">
   <path d="M 0 282.717813 
L 381.3125 282.717813 
L 381.3125 0 
L 0 0 
z
" style="fill: #ffffff"/>
  </g>
  <g id="axes_1">
   <g id="patch_2">
    <path d="M 39.3125 239.758125 
L 374.1125 239.758125 
L 374.1125 22.318125 
L 39.3125 22.318125 
z
" style="fill: #eaeaf2"/>
   </g>
   <g id="matplotlib.axis_1">
    <g id="xtick_1">
     <g id="line2d_1">
      <path d="M 53.142165 239.758125 
L 53.142165 22.318125 
" clip-path="url(#pcee7c2ce7a)" style="fill: none; stroke: #ffffff; stroke-linecap: round"/>
     </g>
     <g id="text_1">
      <!-- −2 -->
      <g style="fill: #262626" transform="translate(45.033962 257.616406)scale(0.11 -0.11)">
       <defs>
        <path id="DejaVuSans-2212" d="M 678 2272 
L 4684 2272 
L 4684 1741 
L 678 1741 
L 678 2272 
z
" transform="scale(0.015625)"/>
        <path id="DejaVuSans-32" d="M 1228 531 
L 3431 531 
L 3431 0 
L 469 0 
L 469 531 
Q 828 903 1448 1529 
Q 2069 2156 2228 2338 
Q 2531 2678 2651 2914 
Q 2772 3150 2772 3378 
Q 2772 3750 2511 3984 
Q 2250 4219 1831 4219 
Q 1534 4219 1204 4116 
Q 875 4013 500 3803 
L 500 4441 
Q 881 4594 1212 4672 
Q 1544 4750 1819 4750 
Q 2544 4750 2975 4387 
Q 3406 4025 3406 3419 
Q 3406 3131 3298 2873 
Q 3191 2616 2906 2266 
Q 2828 2175 2409 1742 
Q 1991 1309 1228 531 
z
" transform="scale(0.015625)"/>
       </defs>
       <use xlink:href="#DejaVuSans-2212"/>
       <use xlink:href="#DejaVuSans-32" x="83.789062"/>
      </g>
     </g>
    </g>
    <g id="xtick_2">
     <g id="line2d_2">
      <path d="M 122.768509 239.758125 
L 122.768509 22.318125 
" clip-path="url(#pcee7c2ce7a)" style="fill: none; stroke: #ffffff; stroke-linecap: round"/>
     </g>
     <g id="text_2">
      <!-- −1 -->
      <g style="fill: #262626" transform="translate(114.660306 257.616406)scale(0.11 -0.11)">
       <defs>
        <path id="DejaVuSans-31" d="M 794 531 
L 1825 531 
L 1825 4091 
L 703 3866 
L 703 4441 
L 1819 4666 
L 2450 4666 
L 2450 531 
L 3481 531 
L 3481 0 
L 794 0 
L 794 531 
z
" transform="scale(0.015625)"/>
       </defs>
       <use xlink:href="#DejaVuSans-2212"/>
       <use xlink:href="#DejaVuSans-31" x="83.789062"/>
      </g>
     </g>
    </g>
    <g id="xtick_3">
     <g id="line2d_3">
      <path d="M 192.394853 239.758125 
L 192.394853 22.318125 
" clip-path="url(#pcee7c2ce7a)" style="fill: none; stroke: #ffffff; stroke-linecap: round"/>
     </g>
     <g id="text_3">
      <!-- 0 -->
      <g style="fill: #262626" transform="translate(188.895478 257.616406)scale(0.11 -0.11)">
       <defs>
        <path id="DejaVuSans-30" d="M 2034 4250 
Q 1547 4250 1301 3770 
Q 1056 3291 1056 2328 
Q 1056 1369 1301 889 
Q 1547 409 2034 409 
Q 2525 409 2770 889 
Q 3016 1369 3016 2328 
Q 3016 3291 2770 3770 
Q 2525 4250 2034 4250 
z
M 2034 4750 
Q 2819 4750 3233 4129 
Q 3647 3509 3647 2328 
Q 3647 1150 3233 529 
Q 2819 -91 2034 -91 
Q 1250 -91 836 529 
Q 422 1150 422 2328 
Q 422 3509 836 4129 
Q 1250 4750 2034 4750 
z
" transform="scale(0.015625)"/>
       </defs>
       <use xlink:href="#DejaVuSans-30"/>
      </g>
     </g>
    </g>
    <g id="xtick_4">
     <g id="line2d_4">
      <path d="M 262.021197 239.758125 
L 262.021197 22.318125 
" clip-path="url(#pcee7c2ce7a)" style="fill: none; stroke: #ffffff; stroke-linecap: round"/>
     </g>
     <g id="text_4">
      <!-- 1 -->
      <g style="fill: #262626" transform="translate(258.521822 257.616406)scale(0.11 -0.11)">
       <use xlink:href="#DejaVuSans-31"/>
      </g>
     </g>
    </g>
    <g id="xtick_5">
     <g id="line2d_5">
      <path d="M 331.64754 239.758125 
L 331.64754 22.318125 
" clip-path="url(#pcee7c2ce7a)" style="fill: none; stroke: #ffffff; stroke-linecap: round"/>
     </g>
     <g id="text_5">
      <!-- 2 -->
      <g style="fill: #262626" transform="translate(328.148165 257.616406)scale(0.11 -0.11)">
       <use xlink:href="#DejaVuSans-32"/>
      </g>
     </g>
    </g>
    <g id="text_6">
     <!-- x -->
     <g style="fill: #262626" transform="translate(203.16125 273.022188)scale(0.12 -0.12)">
      <defs>
       <path id="DejaVuSans-78" d="M 3513 3500 
L 2247 1797 
L 3578 0 
L 2900 0 
L 1881 1375 
L 863 0 
L 184 0 
L 1544 1831 
L 300 3500 
L 978 3500 
L 1906 2253 
L 2834 3500 
L 3513 3500 
z
" transform="scale(0.015625)"/>
      </defs>
      <use xlink:href="#DejaVuSans-78"/>
     </g>
    </g>
   </g>
   <g id="matplotlib.axis_2">
    <g id="ytick_1">
     <g id="line2d_6">
      <path d="M 39.3125 234.77636 
L 374.1125 234.77636 
" clip-path="url(#pcee7c2ce7a)" style="fill: none; stroke: #ffffff; stroke-linecap: round"/>
     </g>
     <g id="text_7">
      <!-- 0 -->
      <g style="fill: #262626" transform="translate(22.81375 238.955501)scale(0.11 -0.11)">
       <use xlink:href="#DejaVuSans-30"/>
      </g>
     </g>
    </g>
    <g id="ytick_2">
     <g id="line2d_7">
      <path d="M 39.3125 190.525882 
L 374.1125 190.525882 
" clip-path="url(#pcee7c2ce7a)" style="fill: none; stroke: #ffffff; stroke-linecap: round"/>
     </g>
     <g id="text_8">
      <!-- 2 -->
      <g style="fill: #262626" transform="translate(22.81375 194.705023)scale(0.11 -0.11)">
       <use xlink:href="#DejaVuSans-32"/>
      </g>
     </g>
    </g>
    <g id="ytick_3">
     <g id="line2d_8">
      <path d="M 39.3125 146.275404 
L 374.1125 146.275404 
" clip-path="url(#pcee7c2ce7a)" style="fill: none; stroke: #ffffff; stroke-linecap: round"/>
     </g>
     <g id="text_9">
      <!-- 4 -->
      <g style="fill: #262626" transform="translate(22.81375 150.454544)scale(0.11 -0.11)">
       <defs>
        <path id="DejaVuSans-34" d="M 2419 4116 
L 825 1625 
L 2419 1625 
L 2419 4116 
z
M 2253 4666 
L 3047 4666 
L 3047 1625 
L 3713 1625 
L 3713 1100 
L 3047 1100 
L 3047 0 
L 2419 0 
L 2419 1100 
L 313 1100 
L 313 1709 
L 2253 4666 
z
" transform="scale(0.015625)"/>
       </defs>
       <use xlink:href="#DejaVuSans-34"/>
      </g>
     </g>
    </g>
    <g id="ytick_4">
     <g id="line2d_9">
      <path d="M 39.3125 102.024926 
L 374.1125 102.024926 
" clip-path="url(#pcee7c2ce7a)" style="fill: none; stroke: #ffffff; stroke-linecap: round"/>
     </g>
     <g id="text_10">
      <!-- 6 -->
      <g style="fill: #262626" transform="translate(22.81375 106.204066)scale(0.11 -0.11)">
       <defs>
        <path id="DejaVuSans-36" d="M 2113 2584 
Q 1688 2584 1439 2293 
Q 1191 2003 1191 1497 
Q 1191 994 1439 701 
Q 1688 409 2113 409 
Q 2538 409 2786 701 
Q 3034 994 3034 1497 
Q 3034 2003 2786 2293 
Q 2538 2584 2113 2584 
z
M 3366 4563 
L 3366 3988 
Q 3128 4100 2886 4159 
Q 2644 4219 2406 4219 
Q 1781 4219 1451 3797 
Q 1122 3375 1075 2522 
Q 1259 2794 1537 2939 
Q 1816 3084 2150 3084 
Q 2853 3084 3261 2657 
Q 3669 2231 3669 1497 
Q 3669 778 3244 343 
Q 2819 -91 2113 -91 
Q 1303 -91 875 529 
Q 447 1150 447 2328 
Q 447 3434 972 4092 
Q 1497 4750 2381 4750 
Q 2619 4750 2861 4703 
Q 3103 4656 3366 4563 
z
" transform="scale(0.015625)"/>
       </defs>
       <use xlink:href="#DejaVuSans-36"/>
      </g>
     </g>
    </g>
    <g id="ytick_5">
     <g id="line2d_10">
      <path d="M 39.3125 57.774447 
L 374.1125 57.774447 
" clip-path="url(#pcee7c2ce7a)" style="fill: none; stroke: #ffffff; stroke-linecap: round"/>
     </g>
     <g id="text_11">
      <!-- 8 -->
      <g style="fill: #262626" transform="translate(22.81375 61.953588)scale(0.11 -0.11)">
       <defs>
        <path id="DejaVuSans-38" d="M 2034 2216 
Q 1584 2216 1326 1975 
Q 1069 1734 1069 1313 
Q 1069 891 1326 650 
Q 1584 409 2034 409 
Q 2484 409 2743 651 
Q 3003 894 3003 1313 
Q 3003 1734 2745 1975 
Q 2488 2216 2034 2216 
z
M 1403 2484 
Q 997 2584 770 2862 
Q 544 3141 544 3541 
Q 544 4100 942 4425 
Q 1341 4750 2034 4750 
Q 2731 4750 3128 4425 
Q 3525 4100 3525 3541 
Q 3525 3141 3298 2862 
Q 3072 2584 2669 2484 
Q 3125 2378 3379 2068 
Q 3634 1759 3634 1313 
Q 3634 634 3220 271 
Q 2806 -91 2034 -91 
Q 1263 -91 848 271 
Q 434 634 434 1313 
Q 434 1759 690 2068 
Q 947 2378 1403 2484 
z
M 1172 3481 
Q 1172 3119 1398 2916 
Q 1625 2713 2034 2713 
Q 2441 2713 2670 2916 
Q 2900 3119 2900 3481 
Q 2900 3844 2670 4047 
Q 2441 4250 2034 4250 
Q 1625 4250 1398 4047 
Q 1172 3844 1172 3481 
z
" transform="scale(0.015625)"/>
       </defs>
       <use xlink:href="#DejaVuSans-38"/>
      </g>
     </g>
    </g>
    <g id="text_12">
     <!-- y -->
     <g style="fill: #262626" transform="translate(16.318125 134.589375)rotate(-90)scale(0.12 -0.12)">
      <defs>
       <path id="DejaVuSans-79" d="M 2059 -325 
Q 1816 -950 1584 -1140 
Q 1353 -1331 966 -1331 
L 506 -1331 
L 506 -850 
L 844 -850 
Q 1081 -850 1212 -737 
Q 1344 -625 1503 -206 
L 1606 56 
L 191 3500 
L 800 3500 
L 1894 763 
L 2988 3500 
L 3597 3500 
L 2059 -325 
z
" transform="scale(0.015625)"/>
      </defs>
      <use xlink:href="#DejaVuSans-79"/>
     </g>
    </g>
   </g>
   <g id="PathCollection_1">
    <path d="M 270.801871 95.988881 
C 271.364452 95.988881 271.904067 95.765365 272.301871 95.36756 
C 272.699676 94.969756 272.923192 94.430141 272.923192 93.86756 
C 272.923192 93.30498 272.699676 92.765365 272.301871 92.36756 
C 271.904067 91.969756 271.364452 91.74624 270.801871 91.74624 
C 270.239291 91.74624 269.699676 91.969756 269.301872 92.36756 
C 268.904067 92.765365 268.680551 93.30498 268.680551 93.86756 
C 268.680551 94.430141 268.904067 94.969756 269.301872 95.36756 
C 269.699676 95.765365 270.239291 95.988881 270.801871 95.988881 
z
" clip-path="url(#pcee7c2ce7a)" style="fill: #adff2f; stroke: #000000; stroke-width: 0.355414"/>
    <path d="M 262.878199 91.997598 
C 263.6054 91.997598 264.302914 91.708678 264.817122 91.19447 
C 265.33133 90.680262 265.62025 89.982748 265.62025 89.255547 
C 265.62025 88.528347 265.33133 87.830833 264.817122 87.316624 
C 264.302914 86.802416 263.6054 86.513496 262.878199 86.513496 
C 262.150999 86.513496 261.453485 86.802416 260.939276 87.316624 
C 260.425068 87.830833 260.136148 88.528347 260.136148 89.255547 
C 260.136148 89.982748 260.425068 90.680262 260.939276 91.19447 
C 261.453485 91.708678 262.150999 91.997598 262.878199 91.997598 
z
" clip-path="url(#pcee7c2ce7a)" style="fill: #adff2f; stroke: #000000; stroke-width: 0.355414"/>
    <path d="M 125.207039 185.979108 
C 125.785539 185.979108 126.340424 185.749268 126.749485 185.340206 
C 127.158547 184.931144 127.388388 184.37626 127.388388 183.797759 
C 127.388388 183.219259 127.158547 182.664375 126.749485 182.255313 
C 126.340424 181.846251 125.785539 181.616411 125.207039 181.616411 
C 124.628538 181.616411 124.073654 181.846251 123.664592 182.255313 
C 123.255531 182.664375 123.02569 183.219259 123.02569 183.797759 
C 123.02569 184.37626 123.255531 184.931144 123.664592 185.340206 
C 124.073654 185.749268 124.628538 185.979108 125.207039 185.979108 
z
" clip-path="url(#pcee7c2ce7a)" style="fill: #adff2f; stroke: #000000; stroke-width: 0.355414"/>
    <path d="M 159.516766 158.858959 
C 160.208091 158.858959 160.871195 158.584293 161.360036 158.095452 
C 161.848876 157.606611 162.123543 156.943508 162.123543 156.252182 
C 162.123543 155.560857 161.848876 154.897753 161.360036 154.408912 
C 160.871195 153.920071 160.208091 153.645405 159.516766 153.645405 
C 158.82544 153.645405 158.162337 153.920071 157.673496 154.408912 
C 157.184655 154.897753 156.909989 155.560857 156.909989 156.252182 
C 156.909989 156.943508 157.184655 157.606611 157.673496 158.095452 
C 158.162337 158.584293 158.82544 158.858959 159.516766 158.858959 
z
" clip-path="url(#pcee7c2ce7a)" style="fill: #adff2f; stroke: #000000; stroke-width: 0.355414"/>
    <path d="M 256.638341 106.552142 
C 257.232922 106.552142 257.80323 106.315913 258.223662 105.89548 
C 258.644094 105.475048 258.880324 104.90474 258.880324 104.310159 
C 258.880324 103.715578 258.644094 103.14527 258.223662 102.724837 
C 257.80323 102.304405 257.232922 102.068176 256.638341 102.068176 
C 256.04376 102.068176 255.473451 102.304405 255.053019 102.724837 
C 254.632587 103.14527 254.396358 103.715578 254.396358 104.310159 
C 254.396358 104.90474 254.632587 105.475048 255.053019 105.89548 
C 255.473451 106.315913 256.04376 106.552142 256.638341 106.552142 
z
" clip-path="url(#pcee7c2ce7a)" style="fill: #adff2f; stroke: #000000; stroke-width: 0.355414"/>
    <path d="M 244.003789 122.029294 
C 244.726162 122.029294 245.419045 121.742292 245.92984 121.231498 
C 246.440634 120.720703 246.727636 120.02782 246.727636 119.305447 
C 246.727636 118.583075 246.440634 117.890191 245.92984 117.379397 
C 245.419045 116.868602 244.726162 116.581601 244.003789 116.581601 
C 243.281417 116.581601 242.588533 116.868602 242.077739 117.379397 
C 241.566944 117.890191 241.279943 118.583075 241.279943 119.305447 
C 241.279943 120.02782 241.566944 120.720703 242.077739 121.231498 
C 242.588533 121.742292 243.281417 122.029294 244.003789 122.029294 
z
" clip-path="url(#pcee7c2ce7a)" style="fill: #adff2f; stroke: #000000; stroke-width: 0.355414"/>
    <path d="M 222.425661 128.376689 
C 223.026836 128.376689 223.603469 128.137839 224.028564 127.712745 
C 224.453658 127.28765 224.692508 126.711017 224.692508 126.109842 
C 224.692508 125.508667 224.453658 124.932034 224.028564 124.506939 
C 223.603469 124.081844 223.026836 123.842995 222.425661 123.842995 
C 221.824486 123.842995 221.247853 124.081844 220.822758 124.506939 
C 220.397663 124.932034 220.158814 125.508667 220.158814 126.109842 
C 220.158814 126.711017 220.397663 127.28765 220.822758 127.712745 
C 221.247853 128.137839 221.824486 128.376689 222.425661 128.376689 
z
" clip-path="url(#pcee7c2ce7a)" style="fill: #adff2f; stroke: #000000; stroke-width: 0.355414"/>
    <path d="M 333.382827 63.832343 
C 334.071704 63.832343 334.73246 63.558649 335.21957 63.07154 
C 335.706679 62.58443 335.980373 61.923674 335.980373 61.234797 
C 335.980373 60.54592 335.706679 59.885164 335.21957 59.398055 
C 334.73246 58.910945 334.071704 58.637251 333.382827 58.637251 
C 332.69395 58.637251 332.033195 58.910945 331.546085 59.398055 
C 331.058975 59.885164 330.785281 60.54592 330.785281 61.234797 
C 330.785281 61.923674 331.058975 62.58443 331.546085 63.07154 
C 332.033195 63.558649 332.69395 63.832343 333.382827 63.832343 
z
" clip-path="url(#pcee7c2ce7a)" style="fill: #adff2f; stroke: #000000; stroke-width: 0.355414"/>
    <path d="M 245.282587 102.009343 
C 246.027524 102.009343 246.742051 101.713376 247.268801 101.186626 
C 247.795551 100.659876 248.091518 99.945349 248.091518 99.200411 
C 248.091518 98.455474 247.795551 97.740947 247.268801 97.214197 
C 246.742051 96.687447 246.027524 96.39148 245.282587 96.39148 
C 244.537649 96.39148 243.823122 96.687447 243.296372 97.214197 
C 242.769622 97.740947 242.473655 98.455474 242.473655 99.200411 
C 242.473655 99.945349 242.769622 100.659876 243.296372 101.186626 
C 243.823122 101.713376 244.537649 102.009343 245.282587 102.009343 
z
" clip-path="url(#pcee7c2ce7a)" style="fill: #adff2f; stroke: #000000; stroke-width: 0.355414"/>
    <path d="M 216.235343 132.511286 
C 216.841112 132.511286 217.422152 132.270612 217.850495 131.842269 
C 218.278838 131.413925 218.519513 130.832886 218.519513 130.227117 
C 218.519513 129.621348 218.278838 129.040308 217.850495 128.611965 
C 217.422152 128.183622 216.841112 127.942947 216.235343 127.942947 
C 215.629575 127.942947 215.048535 128.183622 214.620192 128.611965 
C 214.191849 129.040308 213.951174 129.621348 213.951174 130.227117 
C 213.951174 130.832886 214.191849 131.413925 214.620192 131.842269 
C 215.048535 132.270612 215.629575 132.511286 216.235343 132.511286 
z
" clip-path="url(#pcee7c2ce7a)" style="fill: #adff2f; stroke: #000000; stroke-width: 0.355414"/>
    <path d="M 98.968616 206.403546 
C 99.579978 206.403546 100.166383 206.160649 100.598681 205.728351 
C 101.030979 205.296053 101.273876 204.709649 101.273876 204.098287 
C 101.273876 203.486925 101.030979 202.90052 100.598681 202.468222 
C 100.166383 202.035924 99.579978 201.793027 98.968616 201.793027 
C 98.357254 201.793027 97.77085 202.035924 97.338552 202.468222 
C 96.906253 202.90052 96.663357 203.486925 96.663357 204.098287 
C 96.663357 204.709649 96.906253 205.296053 97.338552 205.728351 
C 97.77085 206.160649 98.357254 206.403546 98.968616 206.403546 
z
" clip-path="url(#pcee7c2ce7a)" style="fill: #adff2f; stroke: #000000; stroke-width: 0.355414"/>
    <path d="M 103.198807 199.579236 
C 103.781976 199.579236 104.341338 199.34754 104.753701 198.935178 
C 105.166063 198.522815 105.397759 197.963453 105.397759 197.380284 
C 105.397759 196.797116 105.166063 196.237753 104.753701 195.825391 
C 104.341338 195.413028 103.781976 195.181333 103.198807 195.181333 
C 102.615639 195.181333 102.056276 195.413028 101.643914 195.825391 
C 101.231551 196.237753 100.999856 196.797116 100.999856 197.380284 
C 100.999856 197.963453 101.231551 198.522815 101.643914 198.935178 
C 102.056276 199.34754 102.615639 199.579236 103.198807 199.579236 
z
" clip-path="url(#pcee7c2ce7a)" style="fill: #adff2f; stroke: #000000; stroke-width: 0.355414"/>
    <path d="M 196.095102 137.990748 
C 196.746812 137.990748 197.371917 137.731821 197.832745 137.270993 
C 198.293573 136.810164 198.5525 136.18506 198.5525 135.53335 
C 198.5525 134.881641 198.293573 134.256536 197.832745 133.795708 
C 197.371917 133.334879 196.746812 133.075952 196.095102 133.075952 
C 195.443393 133.075952 194.818288 133.334879 194.35746 133.795708 
C 193.896632 134.256536 193.637705 134.881641 193.637705 135.53335 
C 193.637705 136.18506 193.896632 136.810164 194.35746 137.270993 
C 194.818288 137.731821 195.443393 137.990748 196.095102 137.990748 
z
" clip-path="url(#pcee7c2ce7a)" style="fill: #adff2f; stroke: #000000; stroke-width: 0.355414"/>
    <path d="M 307.055801 87.182995 
C 307.848211 87.182995 308.608273 86.868167 309.168591 86.307848 
C 309.72891 85.74753 310.043737 84.987468 310.043737 84.195058 
C 310.043737 83.402648 309.72891 82.642587 309.168591 82.082268 
C 308.608273 81.52195 307.848211 81.207122 307.055801 81.207122 
C 306.263391 81.207122 305.503329 81.52195 304.943011 82.082268 
C 304.382692 82.642587 304.067864 83.402648 304.067864 84.195058 
C 304.067864 84.987468 304.382692 85.74753 304.943011 86.307848 
C 305.503329 86.868167 306.263391 87.182995 307.055801 87.182995 
z
" clip-path="url(#pcee7c2ce7a)" style="fill: #adff2f; stroke: #000000; stroke-width: 0.355414"/>
    <path d="M 246.346602 126.460373 
C 247.155658 126.460373 247.931685 126.138932 248.503774 125.566843 
C 249.075862 124.994754 249.397303 124.218727 249.397303 123.409672 
C 249.397303 122.600616 249.075862 121.824589 248.503774 121.2525 
C 247.931685 120.680412 247.155658 120.358971 246.346602 120.358971 
C 245.537547 120.358971 244.76152 120.680412 244.189431 121.2525 
C 243.617342 121.824589 243.295901 122.600616 243.295901 123.409672 
C 243.295901 124.218727 243.617342 124.994754 244.189431 125.566843 
C 244.76152 126.138932 245.537547 126.460373 246.346602 126.460373 
z
" clip-path="url(#pcee7c2ce7a)" style="fill: #adff2f; stroke: #000000; stroke-width: 0.355414"/>
    <path d="M 102.917044 195.072097 
C 103.595408 195.072097 104.246079 194.80258 104.725755 194.322904 
C 105.205431 193.843228 105.474948 193.192557 105.474948 192.514192 
C 105.474948 191.835828 105.205431 191.185156 104.725755 190.70548 
C 104.246079 190.225805 103.595408 189.956288 102.917044 189.956288 
C 102.238679 189.956288 101.588008 190.225805 101.108332 190.70548 
C 100.628656 191.185156 100.359139 191.835828 100.359139 192.514192 
C 100.359139 193.192557 100.628656 193.843228 101.108332 194.322904 
C 101.588008 194.80258 102.238679 195.072097 102.917044 195.072097 
z
" clip-path="url(#pcee7c2ce7a)" style="fill: #adff2f; stroke: #000000; stroke-width: 0.355414"/>
    <path d="M 98.909428 224.419739 
C 99.791262 224.419739 100.637098 224.069383 101.260649 223.445832 
C 101.8842 222.822281 102.234556 221.976446 102.234556 221.094611 
C 102.234556 220.212777 101.8842 219.366942 101.260649 218.743391 
C 100.637098 218.11984 99.791262 217.769483 98.909428 217.769483 
C 98.027594 217.769483 97.181759 218.11984 96.558208 218.743391 
C 95.934657 219.366942 95.5843 220.212777 95.5843 221.094611 
C 95.5843 221.976446 95.934657 222.822281 96.558208 223.445832 
C 97.181759 224.069383 98.027594 224.419739 98.909428 224.419739 
z
" clip-path="url(#pcee7c2ce7a)" style="fill: #adff2f; stroke: #000000; stroke-width: 0.355414"/>
    <path d="M 156.332975 171.944619 
C 156.971663 171.944619 157.584278 171.690866 158.035898 171.239246 
C 158.487519 170.787625 158.741272 170.175011 158.741272 169.536323 
C 158.741272 168.897635 158.487519 168.28502 158.035898 167.8334 
C 157.584278 167.38178 156.971663 167.128026 156.332975 167.128026 
C 155.694288 167.128026 155.081673 167.38178 154.630053 167.8334 
C 154.178432 168.28502 153.924679 168.897635 153.924679 169.536323 
C 153.924679 170.175011 154.178432 170.787625 154.630053 171.239246 
C 155.081673 171.690866 155.694288 171.944619 156.332975 171.944619 
z
" clip-path="url(#pcee7c2ce7a)" style="fill: #adff2f; stroke: #000000; stroke-width: 0.355414"/>
    <path d="M 116.579634 221.421976 
C 117.560161 221.421976 118.500661 221.032408 119.193999 220.33907 
C 119.887337 219.645733 120.276904 218.705233 120.276904 217.724705 
C 120.276904 216.744178 119.887337 215.803678 119.193999 215.11034 
C 118.500661 214.417003 117.560161 214.027435 116.579634 214.027435 
C 115.599106 214.027435 114.658607 214.417003 113.965269 215.11034 
C 113.271931 215.803678 112.882363 216.744178 112.882363 217.724705 
C 112.882363 218.705233 113.271931 219.645733 113.965269 220.33907 
C 114.658607 221.032408 115.599106 221.421976 116.579634 221.421976 
z
" clip-path="url(#pcee7c2ce7a)" style="fill: #adff2f; stroke: #000000; stroke-width: 0.355414"/>
    <path d="M 262.00431 89.258024 
C 262.786661 89.258024 263.537073 88.947193 264.090279 88.393987 
C 264.643484 87.840782 264.954315 87.090369 264.954315 86.308018 
C 264.954315 85.525668 264.643484 84.775255 264.090279 84.22205 
C 263.537073 83.668844 262.786661 83.358013 262.00431 83.358013 
C 261.221959 83.358013 260.471547 83.668844 259.918341 84.22205 
C 259.365136 84.775255 259.054305 85.525668 259.054305 86.308018 
C 259.054305 87.090369 259.365136 87.840782 259.918341 88.393987 
C 260.471547 88.947193 261.221959 89.258024 262.00431 89.258024 
z
" clip-path="url(#pcee7c2ce7a)" style="fill: #adff2f; stroke: #000000; stroke-width: 0.355414"/>
    <path d="M 227.287631 129.903889 
C 227.968291 129.903889 228.621164 129.63346 229.102463 129.152161 
C 229.583762 128.670862 229.854191 128.017989 229.854191 127.337329 
C 229.854191 126.65667 229.583762 126.003796 229.102463 125.522497 
C 228.621164 125.041198 227.968291 124.770769 227.287631 124.770769 
C 226.606971 124.770769 225.954098 125.041198 225.472799 125.522497 
C 224.9915 126.003796 224.721071 126.65667 224.721071 127.337329 
C 224.721071 128.017989 224.9915 128.670862 225.472799 129.152161 
C 225.954098 129.63346 226.606971 129.903889 227.287631 129.903889 
z
" clip-path="url(#pcee7c2ce7a)" style="fill: #adff2f; stroke: #000000; stroke-width: 0.355414"/>
    <path d="M 202.007414 134.050001 
C 202.663635 134.050001 203.293067 133.789282 203.757085 133.325264 
C 204.221103 132.861246 204.481822 132.231814 204.481822 131.575593 
C 204.481822 130.919373 204.221103 130.289941 203.757085 129.825923 
C 203.293067 129.361905 202.663635 129.101185 202.007414 129.101185 
C 201.351194 129.101185 200.721762 129.361905 200.257744 129.825923 
C 199.793726 130.289941 199.533007 130.919373 199.533007 131.575593 
C 199.533007 132.231814 199.793726 132.861246 200.257744 133.325264 
C 200.721762 133.789282 201.351194 134.050001 202.007414 134.050001 
z
" clip-path="url(#pcee7c2ce7a)" style="fill: #adff2f; stroke: #000000; stroke-width: 0.355414"/>
    <path d="M 218.158024 134.274652 
C 218.816043 134.274652 219.447199 134.013218 219.912489 133.547929 
C 220.377778 133.082639 220.639212 132.451483 220.639212 131.793464 
C 220.639212 131.135445 220.377778 130.504289 219.912489 130.038999 
C 219.447199 129.57371 218.816043 129.312276 218.158024 129.312276 
C 217.500005 129.312276 216.868849 129.57371 216.403559 130.038999 
C 215.93827 130.504289 215.676836 131.135445 215.676836 131.793464 
C 215.676836 132.451483 215.93827 133.082639 216.403559 133.547929 
C 216.868849 134.013218 217.500005 134.274652 218.158024 134.274652 
z
" clip-path="url(#pcee7c2ce7a)" style="fill: #adff2f; stroke: #000000; stroke-width: 0.355414"/>
    <path d="M 93.424792 201.075013 
C 94.102282 201.075013 94.752115 200.805843 95.231172 200.326786 
C 95.71023 199.847728 95.979399 199.197896 95.979399 198.520406 
C 95.979399 197.842916 95.71023 197.193083 95.231172 196.714026 
C 94.752115 196.234968 94.102282 195.965799 93.424792 195.965799 
C 92.747302 195.965799 92.09747 196.234968 91.618412 196.714026 
C 91.139355 197.193083 90.870185 197.842916 90.870185 198.520406 
C 90.870185 199.197896 91.139355 199.847728 91.618412 200.326786 
C 92.09747 200.805843 92.747302 201.075013 93.424792 201.075013 
z
" clip-path="url(#pcee7c2ce7a)" style="fill: #adff2f; stroke: #000000; stroke-width: 0.355414"/>
    <path d="M 222.179351 130.677462 
C 222.818938 130.677462 223.432416 130.423351 223.884673 129.971094 
C 224.336929 129.518838 224.59104 128.90536 224.59104 128.265773 
C 224.59104 127.626185 224.336929 127.012708 223.884673 126.560451 
C 223.432416 126.108194 222.818938 125.854084 222.179351 125.854084 
C 221.539764 125.854084 220.926286 126.108194 220.474029 126.560451 
C 220.021773 127.012708 219.767662 127.626185 219.767662 128.265773 
C 219.767662 128.90536 220.021773 129.518838 220.474029 129.971094 
C 220.926286 130.423351 221.539764 130.677462 222.179351 130.677462 
z
" clip-path="url(#pcee7c2ce7a)" style="fill: #adff2f; stroke: #000000; stroke-width: 0.355414"/>
    <path d="M 250.78259 122.430235 
C 251.574084 122.430235 252.333267 122.115771 252.892937 121.5561 
C 253.452608 120.99643 253.767072 120.237247 253.767072 119.445753 
C 253.767072 118.65426 253.452608 117.895077 252.892937 117.335406 
C 252.333267 116.775736 251.574084 116.461272 250.78259 116.461272 
C 249.991097 116.461272 249.231914 116.775736 248.672243 117.335406 
C 248.112573 117.895077 247.798109 118.65426 247.798109 119.445753 
C 247.798109 120.237247 248.112573 120.99643 248.672243 121.5561 
C 249.231914 122.115771 249.991097 122.430235 250.78259 122.430235 
z
" clip-path="url(#pcee7c2ce7a)" style="fill: #adff2f; stroke: #000000; stroke-width: 0.355414"/>
    <path d="M 319.937924 52.661256 
C 320.724191 52.661256 321.47836 52.348869 322.034335 51.792894 
C 322.59031 51.236919 322.902697 50.48275 322.902697 49.696482 
C 322.902697 48.910215 322.59031 48.156046 322.034335 47.600071 
C 321.47836 47.044096 320.724191 46.731709 319.937924 46.731709 
C 319.151657 46.731709 318.397487 47.044096 317.841512 47.600071 
C 317.285537 48.156046 316.97315 48.910215 316.97315 49.696482 
C 316.97315 50.48275 317.285537 51.236919 317.841512 51.792894 
C 318.397487 52.348869 319.151657 52.661256 319.937924 52.661256 
z
" clip-path="url(#pcee7c2ce7a)" style="fill: #adff2f; stroke: #000000; stroke-width: 0.355414"/>
    <path d="M 277.502174 76.812793 
C 278.327211 76.812793 279.118568 76.485002 279.701957 75.901613 
C 280.285347 75.318223 280.613137 74.526867 280.613137 73.70183 
C 280.613137 72.876793 280.285347 72.085436 279.701957 71.502047 
C 279.118568 70.918657 278.327211 70.590867 277.502174 70.590867 
C 276.677137 70.590867 275.885781 70.918657 275.302391 71.502047 
C 274.719002 72.085436 274.391211 72.876793 274.391211 73.70183 
C 274.391211 74.526867 274.719002 75.318223 275.302391 75.901613 
C 275.885781 76.485002 276.677137 76.812793 277.502174 76.812793 
z
" clip-path="url(#pcee7c2ce7a)" style="fill: #adff2f; stroke: #000000; stroke-width: 0.355414"/>
    <path d="M 166.034317 169.79205 
C 166.738418 169.79205 167.413775 169.512308 167.91165 169.014434 
C 168.409525 168.516559 168.689267 167.841201 168.689267 167.137101 
C 168.689267 166.433 168.409525 165.757642 167.91165 165.259767 
C 167.413775 164.761893 166.738418 164.482151 166.034317 164.482151 
C 165.330216 164.482151 164.654858 164.761893 164.156984 165.259767 
C 163.659109 165.757642 163.379367 166.433 163.379367 167.137101 
C 163.379367 167.841201 163.659109 168.516559 164.156984 169.014434 
C 164.654858 169.512308 165.330216 169.79205 166.034317 169.79205 
z
" clip-path="url(#pcee7c2ce7a)" style="fill: #adff2f; stroke: #000000; stroke-width: 0.355414"/>
    <path d="M 66.832951 203.865223 
C 67.732893 203.865223 68.596096 203.507672 69.232451 202.871317 
C 69.868806 202.234962 70.226357 201.371759 70.226357 200.471817 
C 70.226357 199.571875 69.868806 198.708672 69.232451 198.072317 
C 68.596096 197.435962 67.732893 197.078411 66.832951 197.078411 
C 65.933009 197.078411 65.069806 197.435962 64.433451 198.072317 
C 63.797096 198.708672 63.439545 199.571875 63.439545 200.471817 
C 63.439545 201.371759 63.797096 202.234962 64.433451 202.871317 
C 65.069806 203.507672 65.933009 203.865223 66.832951 203.865223 
z
" clip-path="url(#pcee7c2ce7a)" style="fill: #adff2f; stroke: #000000; stroke-width: 0.355414"/>
    <path d="M 220.279112 135.397191 
C 220.977531 135.397191 221.647439 135.119706 222.141296 134.625849 
C 222.635153 134.131992 222.912638 133.462084 222.912638 132.763665 
C 222.912638 132.065246 222.635153 131.395338 222.141296 130.901481 
C 221.647439 130.407624 220.977531 130.130139 220.279112 130.130139 
C 219.580693 130.130139 218.910785 130.407624 218.416928 130.901481 
C 217.923071 131.395338 217.645586 132.065246 217.645586 132.763665 
C 217.645586 133.462084 217.923071 134.131992 218.416928 134.625849 
C 218.910785 135.119706 219.580693 135.397191 220.279112 135.397191 
z
" clip-path="url(#pcee7c2ce7a)" style="fill: #adff2f; stroke: #000000; stroke-width: 0.355414"/>
    <path d="M 176.485806 170.602087 
C 177.299087 170.602087 178.079168 170.278967 178.654244 169.703891 
C 179.229321 169.128814 179.552441 168.348734 179.552441 167.535453 
C 179.552441 166.722172 179.229321 165.942091 178.654244 165.367015 
C 178.079168 164.791938 177.299087 164.468818 176.485806 164.468818 
C 175.672525 164.468818 174.892445 164.791938 174.317368 165.367015 
C 173.742292 165.942091 173.419172 166.722172 173.419172 167.535453 
C 173.419172 168.348734 173.742292 169.128814 174.317368 169.703891 
C 174.892445 170.278967 175.672525 170.602087 176.485806 170.602087 
z
" clip-path="url(#pcee7c2ce7a)" style="fill: #adff2f; stroke: #000000; stroke-width: 0.355414"/>
    <path d="M 203.54568 131.930948 
C 204.223975 131.930948 204.87458 131.661458 205.354207 131.181831 
C 205.833834 130.702205 206.103323 130.0516 206.103323 129.373305 
C 206.103323 128.69501 205.833834 128.044405 205.354207 127.564778 
C 204.87458 127.085152 204.223975 126.815662 203.54568 126.815662 
C 202.867386 126.815662 202.216781 127.085152 201.737154 127.564778 
C 201.257527 128.044405 200.988038 128.69501 200.988038 129.373305 
C 200.988038 130.0516 201.257527 130.702205 201.737154 131.181831 
C 202.216781 131.661458 202.867386 131.930948 203.54568 131.930948 
z
" clip-path="url(#pcee7c2ce7a)" style="fill: #adff2f; stroke: #000000; stroke-width: 0.355414"/>
    <path d="M 166.606912 175.570203 
C 167.402941 175.570203 168.166474 175.253938 168.729351 174.69106 
C 169.292228 174.128183 169.608494 173.364651 169.608494 172.568622 
C 169.608494 171.772593 169.292228 171.009061 168.729351 170.446183 
C 168.166474 169.883306 167.402941 169.56704 166.606912 169.56704 
C 165.810884 169.56704 165.047351 169.883306 164.484474 170.446183 
C 163.921596 171.009061 163.605331 171.772593 163.605331 172.568622 
C 163.605331 173.364651 163.921596 174.128183 164.484474 174.69106 
C 165.047351 175.253938 165.810884 175.570203 166.606912 175.570203 
z
" clip-path="url(#pcee7c2ce7a)" style="fill: #adff2f; stroke: #000000; stroke-width: 0.355414"/>
    <path d="M 80.361561 208.568892 
C 81.052154 208.568892 81.714555 208.294517 82.202878 207.806194 
C 82.691201 207.317871 82.965576 206.65547 82.965576 205.964877 
C 82.965576 205.274284 82.691201 204.611883 82.202878 204.123561 
C 81.714555 203.635238 81.052154 203.360862 80.361561 203.360862 
C 79.670968 203.360862 79.008567 203.635238 78.520244 204.123561 
C 78.031921 204.611883 77.757546 205.274284 77.757546 205.964877 
C 77.757546 206.65547 78.031921 207.317871 78.520244 207.806194 
C 79.008567 208.294517 79.670968 208.568892 80.361561 208.568892 
z
" clip-path="url(#pcee7c2ce7a)" style="fill: #adff2f; stroke: #000000; stroke-width: 0.355414"/>
    <path d="M 232.159267 126.134957 
C 232.828147 126.134957 233.469721 125.869208 233.942691 125.396238 
C 234.41566 124.923269 234.681409 124.281694 234.681409 123.612815 
C 234.681409 122.943935 234.41566 122.30236 233.942691 121.829391 
C 233.469721 121.356421 232.828147 121.090672 232.159267 121.090672 
C 231.490387 121.090672 230.848812 121.356421 230.375843 121.829391 
C 229.902873 122.30236 229.637125 122.943935 229.637125 123.612815 
C 229.637125 124.281694 229.902873 124.923269 230.375843 125.396238 
C 230.848812 125.869208 231.490387 126.134957 232.159267 126.134957 
z
" clip-path="url(#pcee7c2ce7a)" style="fill: #adff2f; stroke: #000000; stroke-width: 0.355414"/>
    <path d="M 174.301078 147.752753 
C 175.025258 147.752753 175.719876 147.465033 176.231948 146.95296 
C 176.744021 146.440887 177.031741 145.74627 177.031741 145.02209 
C 177.031741 144.29791 176.744021 143.603292 176.231948 143.09122 
C 175.719876 142.579147 175.025258 142.291427 174.301078 142.291427 
C 173.576898 142.291427 172.882281 142.579147 172.370208 143.09122 
C 171.858135 143.603292 171.570415 144.29791 171.570415 145.02209 
C 171.570415 145.74627 171.858135 146.440887 172.370208 146.95296 
C 172.882281 147.465033 173.576898 147.752753 174.301078 147.752753 
z
" clip-path="url(#pcee7c2ce7a)" style="fill: #adff2f; stroke: #000000; stroke-width: 0.355414"/>
    <path d="M 157.608387 176.039032 
C 158.327591 176.039032 159.017437 175.753289 159.525991 175.244734 
C 160.034546 174.736179 160.320289 174.046334 160.320289 173.327129 
C 160.320289 172.607924 160.034546 171.918079 159.525991 171.409524 
C 159.017437 170.90097 158.327591 170.615227 157.608387 170.615227 
C 156.889182 170.615227 156.199336 170.90097 155.690782 171.409524 
C 155.182227 171.918079 154.896484 172.607924 154.896484 173.327129 
C 154.896484 174.046334 155.182227 174.736179 155.690782 175.244734 
C 156.199336 175.753289 156.889182 176.039032 157.608387 176.039032 
z
" clip-path="url(#pcee7c2ce7a)" style="fill: #adff2f; stroke: #000000; stroke-width: 0.355414"/>
    <path d="M 129.912872 203.901471 
C 130.78094 203.901471 131.613571 203.556584 132.227387 202.942767 
C 132.841204 202.328951 133.186091 201.49632 133.186091 200.628252 
C 133.186091 199.760184 132.841204 198.927553 132.227387 198.313736 
C 131.613571 197.69992 130.78094 197.355033 129.912872 197.355033 
C 129.044804 197.355033 128.212173 197.69992 127.598356 198.313736 
C 126.98454 198.927553 126.639653 199.760184 126.639653 200.628252 
C 126.639653 201.49632 126.98454 202.328951 127.598356 202.942767 
C 128.212173 203.556584 129.044804 203.901471 129.912872 203.901471 
z
" clip-path="url(#pcee7c2ce7a)" style="fill: #adff2f; stroke: #000000; stroke-width: 0.355414"/>
    <path d="M 126.246511 176.670753 
C 126.992029 176.670753 127.707113 176.374556 128.234274 175.847395 
C 128.761435 175.320234 129.057633 174.60515 129.057633 173.859631 
C 129.057633 173.114113 128.761435 172.399029 128.234274 171.871868 
C 127.707113 171.344707 126.992029 171.04851 126.246511 171.04851 
C 125.500993 171.04851 124.785909 171.344707 124.258748 171.871868 
C 123.731587 172.399029 123.435389 173.114113 123.435389 173.859631 
C 123.435389 174.60515 123.731587 175.320234 124.258748 175.847395 
C 124.785909 176.374556 125.500993 176.670753 126.246511 176.670753 
z
" clip-path="url(#pcee7c2ce7a)" style="fill: #adff2f; stroke: #000000; stroke-width: 0.355414"/>
    <path d="M 201.5299 142.490211 
C 202.149273 142.490211 202.743362 142.244131 203.181325 141.806168 
C 203.619289 141.368205 203.865368 140.774116 203.865368 140.154742 
C 203.865368 139.535369 203.619289 138.94128 203.181325 138.503317 
C 202.743362 138.065353 202.149273 137.819274 201.5299 137.819274 
C 200.910526 137.819274 200.316437 138.065353 199.878474 138.503317 
C 199.440511 138.94128 199.194431 139.535369 199.194431 140.154742 
C 199.194431 140.774116 199.440511 141.368205 199.878474 141.806168 
C 200.316437 142.244131 200.910526 142.490211 201.5299 142.490211 
z
" clip-path="url(#pcee7c2ce7a)" style="fill: #adff2f; stroke: #000000; stroke-width: 0.355414"/>
    <path d="M 242.66228 111.93894 
C 243.248239 111.93894 243.810277 111.706136 244.224613 111.291801 
C 244.638948 110.877465 244.871752 110.315427 244.871752 109.729468 
C 244.871752 109.14351 244.638948 108.581472 244.224613 108.167136 
C 243.810277 107.752801 243.248239 107.519997 242.66228 107.519997 
C 242.076322 107.519997 241.514283 107.752801 241.099948 108.167136 
C 240.685613 108.581472 240.452809 109.14351 240.452809 109.729468 
C 240.452809 110.315427 240.685613 110.877465 241.099948 111.291801 
C 241.514283 111.706136 242.076322 111.93894 242.66228 111.93894 
z
" clip-path="url(#pcee7c2ce7a)" style="fill: #adff2f; stroke: #000000; stroke-width: 0.355414"/>
    <path d="M 296.741175 78.02411 
C 297.326696 78.02411 297.888315 77.79148 298.302341 77.377454 
C 298.716367 76.963428 298.948997 76.401809 298.948997 75.816288 
C 298.948997 75.230767 298.716367 74.669148 298.302341 74.255122 
C 297.888315 73.841096 297.326696 73.608466 296.741175 73.608466 
C 296.155654 73.608466 295.594035 73.841096 295.180009 74.255122 
C 294.765983 74.669148 294.533353 75.230767 294.533353 75.816288 
C 294.533353 76.401809 294.765983 76.963428 295.180009 77.377454 
C 295.594035 77.79148 296.155654 78.02411 296.741175 78.02411 
z
" clip-path="url(#pcee7c2ce7a)" style="fill: #adff2f; stroke: #000000; stroke-width: 0.355414"/>
    <path d="M 217.012887 138.842678 
C 217.733341 138.842678 218.424383 138.556439 218.933821 138.047001 
C 219.443259 137.537564 219.729498 136.846521 219.729498 136.126067 
C 219.729498 135.405614 219.443259 134.714571 218.933821 134.205133 
C 218.424383 133.695696 217.733341 133.409456 217.012887 133.409456 
C 216.292433 133.409456 215.601391 133.695696 215.091953 134.205133 
C 214.582515 134.714571 214.296276 135.405614 214.296276 136.126067 
C 214.296276 136.846521 214.582515 137.537564 215.091953 138.047001 
C 215.601391 138.556439 216.292433 138.842678 217.012887 138.842678 
z
" clip-path="url(#pcee7c2ce7a)" style="fill: #adff2f; stroke: #000000; stroke-width: 0.355414"/>
    <path d="M 261.981929 96.639708 
C 262.633772 96.639708 263.259005 96.380728 263.719927 95.919805 
C 264.18085 95.458883 264.43983 94.83365 264.43983 94.181807 
C 264.43983 93.529964 264.18085 92.904731 263.719927 92.443808 
C 263.259005 91.982885 262.633772 91.723905 261.981929 91.723905 
C 261.330086 91.723905 260.704853 91.982885 260.24393 92.443808 
C 259.783008 92.904731 259.524028 93.529964 259.524028 94.181807 
C 259.524028 94.83365 259.783008 95.458883 260.24393 95.919805 
C 260.704853 96.380728 261.330086 96.639708 261.981929 96.639708 
z
" clip-path="url(#pcee7c2ce7a)" style="fill: #adff2f; stroke: #000000; stroke-width: 0.355414"/>
    <path d="M 188.401029 138.598897 
C 189.130553 138.598897 189.830297 138.309053 190.346148 137.793202 
C 190.862 137.27735 191.151844 136.577606 191.151844 135.848082 
C 191.151844 135.118557 190.862 134.418814 190.346148 133.902962 
C 189.830297 133.38711 189.130553 133.097267 188.401029 133.097267 
C 187.671504 133.097267 186.971761 133.38711 186.455909 133.902962 
C 185.940057 134.418814 185.650214 135.118557 185.650214 135.848082 
C 185.650214 136.577606 185.940057 137.27735 186.455909 137.793202 
C 186.971761 138.309053 187.671504 138.598897 188.401029 138.598897 
z
" clip-path="url(#pcee7c2ce7a)" style="fill: #adff2f; stroke: #000000; stroke-width: 0.355414"/>
    <path d="M 151.1475 151.107767 
C 152.045347 151.107767 152.906542 150.751049 153.541415 150.116175 
C 154.176289 149.481301 154.533008 148.620107 154.533008 147.72226 
C 154.533008 146.824413 154.176289 145.963218 153.541415 145.328345 
C 152.906542 144.693471 152.045347 144.336753 151.1475 144.336753 
C 150.249653 144.336753 149.388459 144.693471 148.753585 145.328345 
C 148.118711 145.963218 147.761993 146.824413 147.761993 147.72226 
C 147.761993 148.620107 148.118711 149.481301 148.753585 150.116175 
C 149.388459 150.751049 150.249653 151.107767 151.1475 151.107767 
z
" clip-path="url(#pcee7c2ce7a)" style="fill: #adff2f; stroke: #000000; stroke-width: 0.355414"/>
    <path d="M 232.586154 107.108409 
C 233.378282 107.108409 234.138074 106.793692 234.698194 106.233573 
C 235.258313 105.673453 235.573029 104.913662 235.573029 104.121533 
C 235.573029 103.329404 235.258313 102.569613 234.698194 102.009493 
C 234.138074 101.449374 233.378282 101.134657 232.586154 101.134657 
C 231.794025 101.134657 231.034233 101.449374 230.474114 102.009493 
C 229.913994 102.569613 229.599278 103.329404 229.599278 104.121533 
C 229.599278 104.913662 229.913994 105.673453 230.474114 106.233573 
C 231.034233 106.793692 231.794025 107.108409 232.586154 107.108409 
z
" clip-path="url(#pcee7c2ce7a)" style="fill: #adff2f; stroke: #000000; stroke-width: 0.355414"/>
    <path d="M 125.369007 195.907405 
C 126.082551 195.907405 126.766966 195.623911 127.271517 195.11936 
C 127.776069 194.614808 128.059563 193.930393 128.059563 193.21685 
C 128.059563 192.503306 127.776069 191.818891 127.271517 191.31434 
C 126.766966 190.809788 126.082551 190.526294 125.369007 190.526294 
C 124.655464 190.526294 123.971049 190.809788 123.466497 191.31434 
C 122.961946 191.818891 122.678452 192.503306 122.678452 193.21685 
C 122.678452 193.930393 122.961946 194.614808 123.466497 195.11936 
C 123.971049 195.623911 124.655464 195.907405 125.369007 195.907405 
z
" clip-path="url(#pcee7c2ce7a)" style="fill: #adff2f; stroke: #000000; stroke-width: 0.355414"/>
    <path d="M 54.530682 232.019298 
C 55.099492 232.019298 55.645082 231.793307 56.047291 231.391098 
C 56.449501 230.988888 56.675491 230.443299 56.675491 229.874489 
C 56.675491 229.305679 56.449501 228.760089 56.047291 228.357879 
C 55.645082 227.95567 55.099492 227.729679 54.530682 227.729679 
C 53.961872 227.729679 53.416282 227.95567 53.014072 228.357879 
C 52.611863 228.760089 52.385872 229.305679 52.385872 229.874489 
C 52.385872 230.443299 52.611863 230.988888 53.014072 231.391098 
C 53.416282 231.793307 53.961872 232.019298 54.530682 232.019298 
z
" clip-path="url(#pcee7c2ce7a)" style="fill: #adff2f; stroke: #000000; stroke-width: 0.355414"/>
    <path d="M 192.288028 139.530272 
C 192.956182 139.530272 193.597061 139.264811 194.069517 138.792354 
C 194.541974 138.319898 194.807434 137.679019 194.807434 137.010865 
C 194.807434 136.342711 194.541974 135.701832 194.069517 135.229376 
C 193.597061 134.756919 192.956182 134.491458 192.288028 134.491458 
C 191.619873 134.491458 190.978995 134.756919 190.506538 135.229376 
C 190.034082 135.701832 189.768621 136.342711 189.768621 137.010865 
C 189.768621 137.679019 190.034082 138.319898 190.506538 138.792354 
C 190.978995 139.264811 191.619873 139.530272 192.288028 139.530272 
z
" clip-path="url(#pcee7c2ce7a)" style="fill: #adff2f; stroke: #000000; stroke-width: 0.355414"/>
    <path d="M 266.364941 111.668415 
C 267.14231 111.668415 267.887944 111.359563 268.437626 110.809881 
C 268.987308 110.260199 269.29616 109.514565 269.29616 108.737196 
C 269.29616 107.959828 268.987308 107.214194 268.437626 106.664512 
C 267.887944 106.11483 267.14231 105.805978 266.364941 105.805978 
C 265.587573 105.805978 264.841939 106.11483 264.292257 106.664512 
C 263.742574 107.214194 263.433723 107.959828 263.433723 108.737196 
C 263.433723 109.514565 263.742574 110.260199 264.292257 110.809881 
C 264.841939 111.359563 265.587573 111.668415 266.364941 111.668415 
z
" clip-path="url(#pcee7c2ce7a)" style="fill: #adff2f; stroke: #000000; stroke-width: 0.355414"/>
    <path d="M 304.469554 36.444402 
C 305.594715 36.444402 306.673945 35.99737 307.469554 35.201761 
C 308.265163 34.406152 308.712194 33.326923 308.712194 32.201761 
C 308.712194 31.0766 308.265163 29.997371 307.469554 29.201761 
C 306.673945 28.406152 305.594715 27.959121 304.469554 27.959121 
C 303.344393 27.959121 302.265163 28.406152 301.469554 29.201761 
C 300.673945 29.997371 300.226913 31.0766 300.226913 32.201761 
C 300.226913 33.326923 300.673945 34.406152 301.469554 35.201761 
C 302.265163 35.99737 303.344393 36.444402 304.469554 36.444402 
z
" clip-path="url(#pcee7c2ce7a)" style="fill: #adff2f; stroke: #000000; stroke-width: 0.355414"/>
    <path d="M 143.631803 189.589317 
C 144.422179 189.589317 145.18029 189.275297 145.739171 188.716417 
C 146.298051 188.157536 146.612071 187.399425 146.612071 186.609049 
C 146.612071 185.818673 146.298051 185.060562 145.739171 184.501681 
C 145.18029 183.942801 144.422179 183.628781 143.631803 183.628781 
C 142.841427 183.628781 142.083316 183.942801 141.524435 184.501681 
C 140.965555 185.060562 140.651535 185.818673 140.651535 186.609049 
C 140.651535 187.399425 140.965555 188.157536 141.524435 188.716417 
C 142.083316 189.275297 142.841427 189.589317 143.631803 189.589317 
z
" clip-path="url(#pcee7c2ce7a)" style="fill: #adff2f; stroke: #000000; stroke-width: 0.355414"/>
    <path d="M 349.111015 53.079236 
C 349.785411 53.079236 350.432277 52.811296 350.909147 52.334426 
C 351.386017 51.857556 351.653957 51.21069 351.653957 50.536294 
C 351.653957 49.861898 351.386017 49.215033 350.909147 48.738163 
C 350.432277 48.261293 349.785411 47.993353 349.111015 47.993353 
C 348.436619 47.993353 347.789754 48.261293 347.312884 48.738163 
C 346.836014 49.215033 346.568073 49.861898 346.568073 50.536294 
C 346.568073 51.21069 346.836014 51.857556 347.312884 52.334426 
C 347.789754 52.811296 348.436619 53.079236 349.111015 53.079236 
z
" clip-path="url(#pcee7c2ce7a)" style="fill: #adff2f; stroke: #000000; stroke-width: 0.355414"/>
    <path d="M 106.765836 190.070885 
C 107.491076 190.070885 108.186709 189.782744 108.699531 189.269922 
C 109.212353 188.757101 109.500494 188.061467 109.500494 187.336228 
C 109.500494 186.610988 109.212353 185.915355 108.699531 185.402533 
C 108.186709 184.889711 107.491076 184.60157 106.765836 184.60157 
C 106.040597 184.60157 105.344963 184.889711 104.832142 185.402533 
C 104.31932 185.915355 104.031179 186.610988 104.031179 187.336228 
C 104.031179 188.061467 104.31932 188.757101 104.832142 189.269922 
C 105.344963 189.782744 106.040597 190.070885 106.765836 190.070885 
z
" clip-path="url(#pcee7c2ce7a)" style="fill: #adff2f; stroke: #000000; stroke-width: 0.355414"/>
    <path d="M 251.27531 104.429352 
C 251.905761 104.429352 252.510475 104.178872 252.956272 103.733075 
C 253.402068 103.287279 253.652549 102.682564 253.652549 102.052113 
C 253.652549 101.421662 253.402068 100.816948 252.956272 100.371151 
C 252.510475 99.925355 251.905761 99.674874 251.27531 99.674874 
C 250.644858 99.674874 250.040144 99.925355 249.594348 100.371151 
C 249.148551 100.816948 248.89807 101.421662 248.89807 102.052113 
C 248.89807 102.682564 249.148551 103.287279 249.594348 103.733075 
C 250.040144 104.178872 250.644858 104.429352 251.27531 104.429352 
z
" clip-path="url(#pcee7c2ce7a)" style="fill: #adff2f; stroke: #000000; stroke-width: 0.355414"/>
    <path d="M 169.134268 157.803236 
C 169.726241 157.803236 170.294048 157.568042 170.712636 157.149454 
C 171.131224 156.730866 171.366417 156.163059 171.366417 155.571086 
C 171.366417 154.979114 171.131224 154.411307 170.712636 153.992719 
C 170.294048 153.574131 169.726241 153.338937 169.134268 153.338937 
C 168.542295 153.338937 167.974488 153.574131 167.5559 153.992719 
C 167.137312 154.411307 166.902119 154.979114 166.902119 155.571086 
C 166.902119 156.163059 167.137312 156.730866 167.5559 157.149454 
C 167.974488 157.568042 168.542295 157.803236 169.134268 157.803236 
z
" clip-path="url(#pcee7c2ce7a)" style="fill: #adff2f; stroke: #000000; stroke-width: 0.355414"/>
    <path d="M 226.105266 121.5708 
C 226.707651 121.5708 227.285444 121.33147 227.711394 120.90552 
C 228.137345 120.479569 228.376675 119.901776 228.376675 119.299391 
C 228.376675 118.697007 228.137345 118.119213 227.711394 117.693263 
C 227.285444 117.267313 226.707651 117.027983 226.105266 117.027983 
C 225.502882 117.027983 224.925088 117.267313 224.499138 117.693263 
C 224.073188 118.119213 223.833858 118.697007 223.833858 119.299391 
C 223.833858 119.901776 224.073188 120.479569 224.499138 120.90552 
C 224.925088 121.33147 225.502882 121.5708 226.105266 121.5708 
z
" clip-path="url(#pcee7c2ce7a)" style="fill: #adff2f; stroke: #000000; stroke-width: 0.355414"/>
    <path d="M 234.469577 117.601755 
C 235.043926 117.601755 235.594829 117.373564 236.000956 116.967437 
C 236.407082 116.561311 236.635274 116.010408 236.635274 115.436058 
C 236.635274 114.861709 236.407082 114.310805 236.000956 113.904679 
C 235.594829 113.498552 235.043926 113.270361 234.469577 113.270361 
C 233.895227 113.270361 233.344324 113.498552 232.938197 113.904679 
C 232.532071 114.310805 232.303879 114.861709 232.303879 115.436058 
C 232.303879 116.010408 232.532071 116.561311 232.938197 116.967437 
C 233.344324 117.373564 233.895227 117.601755 234.469577 117.601755 
z
" clip-path="url(#pcee7c2ce7a)" style="fill: #adff2f; stroke: #000000; stroke-width: 0.355414"/>
    <path d="M 120.796678 169.501091 
C 121.703577 169.501091 122.573455 169.140776 123.21473 168.499501 
C 123.856005 167.858226 124.21632 166.988348 124.21632 166.081449 
C 124.21632 165.174549 123.856005 164.304671 123.21473 163.663396 
C 122.573455 163.022121 121.703577 162.661806 120.796678 162.661806 
C 119.889778 162.661806 119.0199 163.022121 118.378625 163.663396 
C 117.73735 164.304671 117.377035 165.174549 117.377035 166.081449 
C 117.377035 166.988348 117.73735 167.858226 118.378625 168.499501 
C 119.0199 169.140776 119.889778 169.501091 120.796678 169.501091 
z
" clip-path="url(#pcee7c2ce7a)" style="fill: #adff2f; stroke: #000000; stroke-width: 0.355414"/>
    <path d="M 358.894318 38.613978 
C 359.48877 38.613978 360.058954 38.3778 360.479294 37.957459 
C 360.899635 37.537119 361.135813 36.966935 361.135813 36.372483 
C 361.135813 35.778032 360.899635 35.207848 360.479294 34.787507 
C 360.058954 34.367167 359.48877 34.130989 358.894318 34.130989 
C 358.299867 34.130989 357.729683 34.367167 357.309342 34.787507 
C 356.889002 35.207848 356.652824 35.778032 356.652824 36.372483 
C 356.652824 36.966935 356.889002 37.537119 357.309342 37.957459 
C 357.729683 38.3778 358.299867 38.613978 358.894318 38.613978 
z
" clip-path="url(#pcee7c2ce7a)" style="fill: #adff2f; stroke: #000000; stroke-width: 0.355414"/>
    <path d="M 253.030172 128.278847 
C 253.919307 128.278847 254.772145 127.92559 255.400858 127.296876 
C 256.029571 126.668163 256.382828 125.815325 256.382828 124.92619 
C 256.382828 124.037056 256.029571 123.184218 255.400858 122.555505 
C 254.772145 121.926791 253.919307 121.573534 253.030172 121.573534 
C 252.141037 121.573534 251.288199 121.926791 250.659486 122.555505 
C 250.030773 123.184218 249.677516 124.037056 249.677516 124.92619 
C 249.677516 125.815325 250.030773 126.668163 250.659486 127.296876 
C 251.288199 127.92559 252.141037 128.278847 253.030172 128.278847 
z
" clip-path="url(#pcee7c2ce7a)" style="fill: #adff2f; stroke: #000000; stroke-width: 0.355414"/>
    <path d="M 280.927894 96.947674 
C 281.620004 96.947674 282.28386 96.672696 282.773256 96.1833 
C 283.262652 95.693905 283.53763 95.030048 283.53763 94.337938 
C 283.53763 93.645828 283.262652 92.981972 282.773256 92.492576 
C 282.28386 92.00318 281.620004 91.728202 280.927894 91.728202 
C 280.235784 91.728202 279.571928 92.00318 279.082532 92.492576 
C 278.593136 92.981972 278.318158 93.645828 278.318158 94.337938 
C 278.318158 95.030048 278.593136 95.693905 279.082532 96.1833 
C 279.571928 96.672696 280.235784 96.947674 280.927894 96.947674 
z
" clip-path="url(#pcee7c2ce7a)" style="fill: #adff2f; stroke: #000000; stroke-width: 0.355414"/>
    <path d="M 178.111477 142.667869 
C 178.881341 142.667869 179.619777 142.361999 180.164153 141.817623 
C 180.70853 141.273247 181.0144 140.534811 181.0144 139.764946 
C 181.0144 138.995082 180.70853 138.256646 180.164153 137.71227 
C 179.619777 137.167894 178.881341 136.862023 178.111477 136.862023 
C 177.341613 136.862023 176.603176 137.167894 176.0588 137.71227 
C 175.514424 138.256646 175.208554 138.995082 175.208554 139.764946 
C 175.208554 140.534811 175.514424 141.273247 176.0588 141.817623 
C 176.603176 142.361999 177.341613 142.667869 178.111477 142.667869 
z
" clip-path="url(#pcee7c2ce7a)" style="fill: #adff2f; stroke: #000000; stroke-width: 0.355414"/>
    <path d="M 236.809124 115.851914 
C 237.389773 115.851914 237.946718 115.62122 238.357299 115.210639 
C 238.76788 114.800059 238.998574 114.243113 238.998574 113.662464 
C 238.998574 113.081815 238.76788 112.52487 238.357299 112.114289 
C 237.946718 111.703708 237.389773 111.473014 236.809124 111.473014 
C 236.228475 111.473014 235.671529 111.703708 235.260949 112.114289 
C 234.850368 112.52487 234.619673 113.081815 234.619673 113.662464 
C 234.619673 114.243113 234.850368 114.800059 235.260949 115.210639 
C 235.671529 115.62122 236.228475 115.851914 236.809124 115.851914 
z
" clip-path="url(#pcee7c2ce7a)" style="fill: #adff2f; stroke: #000000; stroke-width: 0.355414"/>
    <path d="M 155.062358 160.421583 
C 155.776001 160.421583 156.460511 160.13805 156.965134 159.633428 
C 157.469756 159.128806 157.753289 158.444295 157.753289 157.730652 
C 157.753289 157.017009 157.469756 156.332498 156.965134 155.827876 
C 156.460511 155.323254 155.776001 155.039721 155.062358 155.039721 
C 154.348714 155.039721 153.664204 155.323254 153.159582 155.827876 
C 152.65496 156.332498 152.371426 157.017009 152.371426 157.730652 
C 152.371426 158.444295 152.65496 159.128806 153.159582 159.633428 
C 153.664204 160.13805 154.348714 160.421583 155.062358 160.421583 
z
" clip-path="url(#pcee7c2ce7a)" style="fill: #adff2f; stroke: #000000; stroke-width: 0.355414"/>
    <path d="M 198.226729 132.876967 
C 198.948492 132.876967 199.640791 132.590207 200.151154 132.079844 
C 200.661518 131.56948 200.948278 130.877181 200.948278 130.155418 
C 200.948278 129.433655 200.661518 128.741356 200.151154 128.230993 
C 199.640791 127.720629 198.948492 127.43387 198.226729 127.43387 
C 197.504966 127.43387 196.812667 127.720629 196.302304 128.230993 
C 195.79194 128.741356 195.50518 129.433655 195.50518 130.155418 
C 195.50518 130.877181 195.79194 131.56948 196.302304 132.079844 
C 196.812667 132.590207 197.504966 132.876967 198.226729 132.876967 
z
" clip-path="url(#pcee7c2ce7a)" style="fill: #adff2f; stroke: #000000; stroke-width: 0.355414"/>
    <path d="M 162.757018 156.764539 
C 163.449469 156.764539 164.113652 156.489425 164.603288 155.999788 
C 165.092925 155.510152 165.368039 154.845968 165.368039 154.153517 
C 165.368039 153.461067 165.092925 152.796883 164.603288 152.307247 
C 164.113652 151.81761 163.449469 151.542496 162.757018 151.542496 
C 162.064567 151.542496 161.400383 151.81761 160.910747 152.307247 
C 160.42111 152.796883 160.145996 153.461067 160.145996 154.153517 
C 160.145996 154.845968 160.42111 155.510152 160.910747 155.999788 
C 161.400383 156.489425 162.064567 156.764539 162.757018 156.764539 
z
" clip-path="url(#pcee7c2ce7a)" style="fill: #adff2f; stroke: #000000; stroke-width: 0.355414"/>
    <path d="M 281.460537 92.613067 
C 282.084904 92.613067 282.683782 92.365004 283.125276 91.923509 
C 283.56677 91.482015 283.814834 90.883137 283.814834 90.25877 
C 283.814834 89.634403 283.56677 89.035525 283.125276 88.594031 
C 282.683782 88.152537 282.084904 87.904473 281.460537 87.904473 
C 280.83617 87.904473 280.237292 88.152537 279.795798 88.594031 
C 279.354304 89.035525 279.10624 89.634403 279.10624 90.25877 
C 279.10624 90.883137 279.354304 91.482015 279.795798 91.923509 
C 280.237292 92.365004 280.83617 92.613067 281.460537 92.613067 
z
" clip-path="url(#pcee7c2ce7a)" style="fill: #adff2f; stroke: #000000; stroke-width: 0.355414"/>
    <path d="M 142.443444 185.094751 
C 143.155441 185.094751 143.838373 184.811872 144.341831 184.308414 
C 144.845289 183.804955 145.128169 183.122024 145.128169 182.410026 
C 145.128169 181.698029 144.845289 181.015097 144.341831 180.511639 
C 143.838373 180.008181 143.155441 179.725301 142.443444 179.725301 
C 141.731446 179.725301 141.048514 180.008181 140.545056 180.511639 
C 140.041598 181.015097 139.758718 181.698029 139.758718 182.410026 
C 139.758718 183.122024 140.041598 183.804955 140.545056 184.308414 
C 141.048514 184.811872 141.731446 185.094751 142.443444 185.094751 
z
" clip-path="url(#pcee7c2ce7a)" style="fill: #adff2f; stroke: #000000; stroke-width: 0.355414"/>
    <path d="M 134.541464 170.081406 
C 135.310125 170.081406 136.047407 169.776014 136.590932 169.232489 
C 137.134458 168.688963 137.43985 167.951681 137.43985 167.18302 
C 137.43985 166.414359 137.134458 165.677077 136.590932 165.133551 
C 136.047407 164.590026 135.310125 164.284634 134.541464 164.284634 
C 133.772803 164.284634 133.03552 164.590026 132.491995 165.133551 
C 131.94847 165.677077 131.643077 166.414359 131.643077 167.18302 
C 131.643077 167.951681 131.94847 168.688963 132.491995 169.232489 
C 133.03552 169.776014 133.772803 170.081406 134.541464 170.081406 
z
" clip-path="url(#pcee7c2ce7a)" style="fill: #adff2f; stroke: #000000; stroke-width: 0.355414"/>
    <path d="M 258.615916 102.175849 
C 259.196392 102.175849 259.753171 101.945223 260.16363 101.534765 
C 260.574088 101.124306 260.804714 100.567527 260.804714 99.987051 
C 260.804714 99.406575 260.574088 98.849795 260.16363 98.439337 
C 259.753171 98.028878 259.196392 97.798253 258.615916 97.798253 
C 258.03544 97.798253 257.47866 98.028878 257.068202 98.439337 
C 256.657743 98.849795 256.427118 99.406575 256.427118 99.987051 
C 256.427118 100.567527 256.657743 101.124306 257.068202 101.534765 
C 257.47866 101.945223 258.03544 102.175849 258.615916 102.175849 
z
" clip-path="url(#pcee7c2ce7a)" style="fill: #adff2f; stroke: #000000; stroke-width: 0.355414"/>
    <path d="M 213.170027 134.867299 
C 213.783663 134.867299 214.372249 134.623499 214.806155 134.189592 
C 215.240061 133.755686 215.483861 133.1671 215.483861 132.553464 
C 215.483861 131.939828 215.240061 131.351242 214.806155 130.917336 
C 214.372249 130.48343 213.783663 130.239629 213.170027 130.239629 
C 212.556391 130.239629 211.967805 130.48343 211.533899 130.917336 
C 211.099992 131.351242 210.856192 131.939828 210.856192 132.553464 
C 210.856192 133.1671 211.099992 133.755686 211.533899 134.189592 
C 211.967805 134.623499 212.556391 134.867299 213.170027 134.867299 
z
" clip-path="url(#pcee7c2ce7a)" style="fill: #adff2f; stroke: #000000; stroke-width: 0.355414"/>
    <path d="M 243.577454 120.681698 
C 244.274339 120.681698 244.942775 120.404823 245.435547 119.912051 
C 245.928318 119.419279 246.205194 118.750843 246.205194 118.053958 
C 246.205194 117.357074 245.928318 116.688638 245.435547 116.195866 
C 244.942775 115.703094 244.274339 115.426219 243.577454 115.426219 
C 242.88057 115.426219 242.212134 115.703094 241.719362 116.195866 
C 241.22659 116.688638 240.949715 117.357074 240.949715 118.053958 
C 240.949715 118.750843 241.22659 119.419279 241.719362 119.912051 
C 242.212134 120.404823 242.88057 120.681698 243.577454 120.681698 
z
" clip-path="url(#pcee7c2ce7a)" style="fill: #adff2f; stroke: #000000; stroke-width: 0.355414"/>
    <path d="M 167.72939 182.917734 
C 168.632598 182.917734 169.498936 182.558885 170.137601 181.92022 
C 170.776266 181.281555 171.135114 180.415218 171.135114 179.512009 
C 171.135114 178.608801 170.776266 177.742463 170.137601 177.103798 
C 169.498936 176.465133 168.632598 176.106285 167.72939 176.106285 
C 166.826181 176.106285 165.959844 176.465133 165.321179 177.103798 
C 164.682514 177.742463 164.323665 178.608801 164.323665 179.512009 
C 164.323665 180.415218 164.682514 181.281555 165.321179 181.92022 
C 165.959844 182.558885 166.826181 182.917734 167.72939 182.917734 
z
" clip-path="url(#pcee7c2ce7a)" style="fill: #adff2f; stroke: #000000; stroke-width: 0.355414"/>
    <path d="M 343.883575 55.81033 
C 344.548822 55.81033 345.186912 55.546025 345.657313 55.075624 
C 346.127714 54.605223 346.392019 53.967133 346.392019 53.301886 
C 346.392019 52.636639 346.127714 51.998549 345.657313 51.528148 
C 345.186912 51.057747 344.548822 50.793441 343.883575 50.793441 
C 343.218327 50.793441 342.580237 51.057747 342.109837 51.528148 
C 341.639436 51.998549 341.37513 52.636639 341.37513 53.301886 
C 341.37513 53.967133 341.639436 54.605223 342.109837 55.075624 
C 342.580237 55.546025 343.218327 55.81033 343.883575 55.81033 
z
" clip-path="url(#pcee7c2ce7a)" style="fill: #adff2f; stroke: #000000; stroke-width: 0.355414"/>
    <path d="M 252.079208 108.758922 
C 252.661491 108.758922 253.220004 108.527578 253.631741 108.115842 
C 254.043477 107.704105 254.274821 107.145593 254.274821 106.563309 
C 254.274821 105.981026 254.043477 105.422513 253.631741 105.010777 
C 253.220004 104.59904 252.661491 104.367697 252.079208 104.367697 
C 251.496925 104.367697 250.938412 104.59904 250.526676 105.010777 
C 250.114939 105.422513 249.883595 105.981026 249.883595 106.563309 
C 249.883595 107.145593 250.114939 107.704105 250.526676 108.115842 
C 250.938412 108.527578 251.496925 108.758922 252.079208 108.758922 
z
" clip-path="url(#pcee7c2ce7a)" style="fill: #adff2f; stroke: #000000; stroke-width: 0.355414"/>
    <path d="M 97.352486 199.275409 
C 98.017331 199.275409 98.655036 199.011263 99.125153 198.541146 
C 99.59527 198.071029 99.859415 197.433325 99.859415 196.768479 
C 99.859415 196.103634 99.59527 195.465929 99.125153 194.995812 
C 98.655036 194.525696 98.017331 194.26155 97.352486 194.26155 
C 96.68764 194.26155 96.049936 194.525696 95.579819 194.995812 
C 95.109702 195.465929 94.845556 196.103634 94.845556 196.768479 
C 94.845556 197.433325 95.109702 198.071029 95.579819 198.541146 
C 96.049936 199.011263 96.68764 199.275409 97.352486 199.275409 
z
" clip-path="url(#pcee7c2ce7a)" style="fill: #adff2f; stroke: #000000; stroke-width: 0.355414"/>
    <path d="M 290.273499 75.518752 
C 290.988163 75.518752 291.673651 75.234813 292.178995 74.729469 
C 292.684338 74.224126 292.968277 73.538637 292.968277 72.823974 
C 292.968277 72.10931 292.684338 71.423822 292.178995 70.918478 
C 291.673651 70.413135 290.988163 70.129196 290.273499 70.129196 
C 289.558836 70.129196 288.873347 70.413135 288.368004 70.918478 
C 287.86266 71.423822 287.578721 72.10931 287.578721 72.823974 
C 287.578721 73.538637 287.86266 74.224126 288.368004 74.729469 
C 288.873347 75.234813 289.558836 75.518752 290.273499 75.518752 
z
" clip-path="url(#pcee7c2ce7a)" style="fill: #adff2f; stroke: #000000; stroke-width: 0.355414"/>
    <path d="M 137.512881 198.540112 
C 138.373191 198.540112 139.19838 198.198308 139.806711 197.589977 
C 140.415042 196.981646 140.756846 196.156457 140.756846 195.296147 
C 140.756846 194.435837 140.415042 193.610648 139.806711 193.002317 
C 139.19838 192.393987 138.373191 192.052182 137.512881 192.052182 
C 136.652572 192.052182 135.827382 192.393987 135.219052 193.002317 
C 134.610721 193.610648 134.268916 194.435837 134.268916 195.296147 
C 134.268916 196.156457 134.610721 196.981646 135.219052 197.589977 
C 135.827382 198.198308 136.652572 198.540112 137.512881 198.540112 
z
" clip-path="url(#pcee7c2ce7a)" style="fill: #adff2f; stroke: #000000; stroke-width: 0.355414"/>
    <path d="M 145.786868 185.018888 
C 146.530035 185.018888 147.242864 184.723624 147.768362 184.198126 
C 148.293861 183.672628 148.589124 182.959799 148.589124 182.216632 
C 148.589124 181.473465 148.293861 180.760636 147.768362 180.235137 
C 147.242864 179.709639 146.530035 179.414376 145.786868 179.414376 
C 145.043701 179.414376 144.330872 179.709639 143.805374 180.235137 
C 143.279875 180.760636 142.984612 181.473465 142.984612 182.216632 
C 142.984612 182.959799 143.279875 183.672628 143.805374 184.198126 
C 144.330872 184.723624 145.043701 185.018888 145.786868 185.018888 
z
" clip-path="url(#pcee7c2ce7a)" style="fill: #adff2f; stroke: #000000; stroke-width: 0.355414"/>
    <path d="M 184.781321 154.295032 
C 185.423516 154.295032 186.039495 154.039886 186.493595 153.585785 
C 186.947695 153.131685 187.202842 152.515706 187.202842 151.873512 
C 187.202842 151.231317 186.947695 150.615338 186.493595 150.161238 
C 186.039495 149.707138 185.423516 149.451991 184.781321 149.451991 
C 184.139127 149.451991 183.523148 149.707138 183.069048 150.161238 
C 182.614948 150.615338 182.359801 151.231317 182.359801 151.873512 
C 182.359801 152.515706 182.614948 153.131685 183.069048 153.585785 
C 183.523148 154.039886 184.139127 154.295032 184.781321 154.295032 
z
" clip-path="url(#pcee7c2ce7a)" style="fill: #adff2f; stroke: #000000; stroke-width: 0.355414"/>
    <path d="M 120.500762 184.483596 
C 121.170699 184.483596 121.813288 184.217427 122.287005 183.74371 
C 122.760722 183.269993 123.026891 182.627405 123.026891 181.957468 
C 123.026891 181.28753 122.760722 180.644942 122.287005 180.171225 
C 121.813288 179.697508 121.170699 179.431339 120.500762 179.431339 
C 119.830825 179.431339 119.188237 179.697508 118.714519 180.171225 
C 118.240802 180.644942 117.974634 181.28753 117.974634 181.957468 
C 117.974634 182.627405 118.240802 183.269993 118.714519 183.74371 
C 119.188237 184.217427 119.830825 184.483596 120.500762 184.483596 
z
" clip-path="url(#pcee7c2ce7a)" style="fill: #adff2f; stroke: #000000; stroke-width: 0.355414"/>
    <path d="M 251.227144 104.812297 
C 251.850378 104.812297 252.44817 104.564684 252.888864 104.12399 
C 253.329557 103.683297 253.57717 103.085505 253.57717 102.462271 
C 253.57717 101.839037 253.329557 101.241244 252.888864 100.800551 
C 252.44817 100.359858 251.850378 100.112245 251.227144 100.112245 
C 250.60391 100.112245 250.006118 100.359858 249.565424 100.800551 
C 249.124731 101.241244 248.877118 101.839037 248.877118 102.462271 
C 248.877118 103.085505 249.124731 103.683297 249.565424 104.12399 
C 250.006118 104.564684 250.60391 104.812297 251.227144 104.812297 
z
" clip-path="url(#pcee7c2ce7a)" style="fill: #adff2f; stroke: #000000; stroke-width: 0.355414"/>
    <path d="M 209.647206 140.071131 
C 210.312906 140.071131 210.95143 139.806645 211.42215 139.335925 
C 211.892871 138.865204 212.157356 138.22668 212.157356 137.560981 
C 212.157356 136.895281 211.892871 136.256757 211.42215 135.786037 
C 210.95143 135.315316 210.312906 135.050831 209.647206 135.050831 
C 208.981507 135.050831 208.342983 135.315316 207.872262 135.786037 
C 207.401541 136.256757 207.137056 136.895281 207.137056 137.560981 
C 207.137056 138.22668 207.401541 138.865204 207.872262 139.335925 
C 208.342983 139.806645 208.981507 140.071131 209.647206 140.071131 
z
" clip-path="url(#pcee7c2ce7a)" style="fill: #adff2f; stroke: #000000; stroke-width: 0.355414"/>
    <path d="M 311.370653 68.600221 
C 311.961518 68.600221 312.528263 68.365468 312.946067 67.947663 
C 313.363872 67.529859 313.598625 66.963114 313.598625 66.372249 
C 313.598625 65.781384 313.363872 65.21464 312.946067 64.796835 
C 312.528263 64.37903 311.961518 64.144277 311.370653 64.144277 
C 310.779788 64.144277 310.213043 64.37903 309.795239 64.796835 
C 309.377434 65.21464 309.142681 65.781384 309.142681 66.372249 
C 309.142681 66.963114 309.377434 67.529859 309.795239 67.947663 
C 310.213043 68.365468 310.779788 68.600221 311.370653 68.600221 
z
" clip-path="url(#pcee7c2ce7a)" style="fill: #adff2f; stroke: #000000; stroke-width: 0.355414"/>
    <path d="M 202.504894 140.246847 
C 203.094348 140.246847 203.659739 140.012654 204.076546 139.595847 
C 204.493353 139.17904 204.727545 138.613649 204.727545 138.024195 
C 204.727545 137.434741 204.493353 136.86935 204.076546 136.452543 
C 203.659739 136.035736 203.094348 135.801543 202.504894 135.801543 
C 201.915439 135.801543 201.350048 136.035736 200.933241 136.452543 
C 200.516434 136.86935 200.282242 137.434741 200.282242 138.024195 
C 200.282242 138.613649 200.516434 139.17904 200.933241 139.595847 
C 201.350048 140.012654 201.915439 140.246847 202.504894 140.246847 
z
" clip-path="url(#pcee7c2ce7a)" style="fill: #adff2f; stroke: #000000; stroke-width: 0.355414"/>
    <path d="M 200.651252 143.089114 
C 201.271478 143.089114 201.866383 142.842696 202.304949 142.404131 
C 202.743514 141.965566 202.989932 141.37066 202.989932 140.750435 
C 202.989932 140.130209 202.743514 139.535304 202.304949 139.096738 
C 201.866383 138.658173 201.271478 138.411755 200.651252 138.411755 
C 200.031027 138.411755 199.436122 138.658173 198.997556 139.096738 
C 198.558991 139.535304 198.312573 140.130209 198.312573 140.750435 
C 198.312573 141.37066 198.558991 141.965566 198.997556 142.404131 
C 199.436122 142.842696 200.031027 143.089114 200.651252 143.089114 
z
" clip-path="url(#pcee7c2ce7a)" style="fill: #adff2f; stroke: #000000; stroke-width: 0.355414"/>
    <path d="M 189.38483 140.962112 
C 190.060389 140.962112 190.708371 140.693709 191.186064 140.216016 
C 191.663757 139.738324 191.93216 139.090342 191.93216 138.414782 
C 191.93216 137.739222 191.663757 137.091241 191.186064 136.613548 
C 190.708371 136.135855 190.060389 135.867452 189.38483 135.867452 
C 188.70927 135.867452 188.061288 136.135855 187.583595 136.613548 
C 187.105902 137.091241 186.8375 137.739222 186.8375 138.414782 
C 186.8375 139.090342 187.105902 139.738324 187.583595 140.216016 
C 188.061288 140.693709 188.70927 140.962112 189.38483 140.962112 
z
" clip-path="url(#pcee7c2ce7a)" style="fill: #adff2f; stroke: #000000; stroke-width: 0.355414"/>
    <path d="M 109.210674 208.3185 
C 109.959081 208.3185 110.676935 208.021155 111.206138 207.491952 
C 111.735342 206.962749 112.032687 206.244895 112.032687 205.496488 
C 112.032687 204.748082 111.735342 204.030227 111.206138 203.501024 
C 110.676935 202.971821 109.959081 202.674476 109.210674 202.674476 
C 108.462268 202.674476 107.744414 202.971821 107.21521 203.501024 
C 106.686007 204.030227 106.388662 204.748082 106.388662 205.496488 
C 106.388662 206.244895 106.686007 206.962749 107.21521 207.491952 
C 107.744414 208.021155 108.462268 208.3185 109.210674 208.3185 
z
" clip-path="url(#pcee7c2ce7a)" style="fill: #adff2f; stroke: #000000; stroke-width: 0.355414"/>
    <path d="M 104.746279 194.366795 
C 105.41627 194.366795 106.058909 194.100605 106.532664 193.626851 
C 107.006419 193.153096 107.272609 192.510456 107.272609 191.840466 
C 107.272609 191.170475 107.006419 190.527836 106.532664 190.054081 
C 106.058909 189.580326 105.41627 189.314136 104.746279 189.314136 
C 104.076289 189.314136 103.433649 189.580326 102.959895 190.054081 
C 102.48614 190.527836 102.21995 191.170475 102.21995 191.840466 
C 102.21995 192.510456 102.48614 193.153096 102.959895 193.626851 
C 103.433649 194.100605 104.076289 194.366795 104.746279 194.366795 
z
" clip-path="url(#pcee7c2ce7a)" style="fill: #adff2f; stroke: #000000; stroke-width: 0.355414"/>
    <path d="M 135.315914 206.258654 
C 136.256095 206.258654 137.157895 205.885116 137.822703 205.220308 
C 138.487512 204.555499 138.86105 203.653699 138.86105 202.713518 
C 138.86105 201.773337 138.487512 200.871536 137.822703 200.206728 
C 137.157895 199.54192 136.256095 199.168382 135.315914 199.168382 
C 134.375732 199.168382 133.473932 199.54192 132.809124 200.206728 
C 132.144315 200.871536 131.770777 201.773337 131.770777 202.713518 
C 131.770777 203.653699 132.144315 204.555499 132.809124 205.220308 
C 133.473932 205.885116 134.375732 206.258654 135.315914 206.258654 
z
" clip-path="url(#pcee7c2ce7a)" style="fill: #adff2f; stroke: #000000; stroke-width: 0.355414"/>
    <path d="M 261.305076 86.00676 
C 262.144776 86.00676 262.950198 85.673143 263.543956 85.079385 
C 264.137714 84.485627 264.471331 83.680206 264.471331 82.840505 
C 264.471331 82.000805 264.137714 81.195383 263.543956 80.601625 
C 262.950198 80.007867 262.144776 79.67425 261.305076 79.67425 
C 260.465375 79.67425 259.659954 80.007867 259.066196 80.601625 
C 258.472438 81.195383 258.138821 82.000805 258.138821 82.840505 
C 258.138821 83.680206 258.472438 84.485627 259.066196 85.079385 
C 259.659954 85.673143 260.465375 86.00676 261.305076 86.00676 
z
" clip-path="url(#pcee7c2ce7a)" style="fill: #adff2f; stroke: #000000; stroke-width: 0.355414"/>
    <path d="M 188.304569 150.577458 
C 188.920137 150.577458 189.510575 150.33289 189.945847 149.897618 
C 190.38112 149.462346 190.625687 148.871907 190.625687 148.25634 
C 190.625687 147.640772 190.38112 147.050333 189.945847 146.615061 
C 189.510575 146.179789 188.920137 145.935221 188.304569 145.935221 
C 187.689001 145.935221 187.098562 146.179789 186.66329 146.615061 
C 186.228018 147.050333 185.98345 147.640772 185.98345 148.25634 
C 185.98345 148.871907 186.228018 149.462346 186.66329 149.897618 
C 187.098562 150.33289 187.689001 150.577458 188.304569 150.577458 
z
" clip-path="url(#pcee7c2ce7a)" style="fill: #adff2f; stroke: #000000; stroke-width: 0.355414"/>
    <path d="M 227.978391 116.597982 
C 228.656711 116.597982 229.30734 116.328483 229.786985 115.848838 
C 230.26663 115.369193 230.536129 114.718564 230.536129 114.040243 
C 230.536129 113.361923 230.26663 112.711294 229.786985 112.231649 
C 229.30734 111.752004 228.656711 111.482505 227.978391 111.482505 
C 227.300071 111.482505 226.649441 111.752004 226.169797 112.231649 
C 225.690152 112.711294 225.420652 113.361923 225.420652 114.040243 
C 225.420652 114.718564 225.690152 115.369193 226.169797 115.848838 
C 226.649441 116.328483 227.300071 116.597982 227.978391 116.597982 
z
" clip-path="url(#pcee7c2ce7a)" style="fill: #adff2f; stroke: #000000; stroke-width: 0.355414"/>
    <path d="M 109.381275 202.974761 
C 110.046746 202.974761 110.685051 202.710366 111.15561 202.239807 
C 111.62617 201.769247 111.890564 201.130943 111.890564 200.465471 
C 111.890564 199.8 111.62617 199.161695 111.15561 198.691136 
C 110.685051 198.220576 110.046746 197.956182 109.381275 197.956182 
C 108.715803 197.956182 108.077498 198.220576 107.606939 198.691136 
C 107.13638 199.161695 106.871985 199.8 106.871985 200.465471 
C 106.871985 201.130943 107.13638 201.769247 107.606939 202.239807 
C 108.077498 202.710366 108.715803 202.974761 109.381275 202.974761 
z
" clip-path="url(#pcee7c2ce7a)" style="fill: #adff2f; stroke: #000000; stroke-width: 0.355414"/>
    <path d="M 124.32663 196.754912 
C 125.043204 196.754912 125.730525 196.470214 126.23722 195.963519 
C 126.743914 195.456825 127.028612 194.769504 127.028612 194.05293 
C 127.028612 193.336356 126.743914 192.649034 126.23722 192.14234 
C 125.730525 191.635645 125.043204 191.350948 124.32663 191.350948 
C 123.610056 191.350948 122.922735 191.635645 122.41604 192.14234 
C 121.909346 192.649034 121.624648 193.336356 121.624648 194.05293 
C 121.624648 194.769504 121.909346 195.456825 122.41604 195.963519 
C 122.922735 196.470214 123.610056 196.754912 124.32663 196.754912 
z
" clip-path="url(#pcee7c2ce7a)" style="fill: #adff2f; stroke: #000000; stroke-width: 0.355414"/>
    <path d="M 152.321812 188.864238 
C 153.177067 188.864238 153.997407 188.524441 154.602164 187.919685 
C 155.20692 187.314929 155.546716 186.494588 155.546716 185.639333 
C 155.546716 184.784079 155.20692 183.963738 154.602164 183.358981 
C 153.997407 182.754225 153.177067 182.414429 152.321812 182.414429 
C 151.466557 182.414429 150.646216 182.754225 150.04146 183.358981 
C 149.436704 183.963738 149.096907 184.784079 149.096907 185.639333 
C 149.096907 186.494588 149.436704 187.314929 150.04146 187.919685 
C 150.646216 188.524441 151.466557 188.864238 152.321812 188.864238 
z
" clip-path="url(#pcee7c2ce7a)" style="fill: #adff2f; stroke: #000000; stroke-width: 0.355414"/>
    <path d="M 151.33087 196.449447 
C 152.273951 196.449447 153.178533 196.074757 153.845391 195.407898 
C 154.51225 194.74104 154.88694 193.836458 154.88694 192.893377 
C 154.88694 191.950297 154.51225 191.045715 153.845391 190.378856 
C 153.178533 189.711998 152.273951 189.337308 151.33087 189.337308 
C 150.38779 189.337308 149.483208 189.711998 148.816349 190.378856 
C 148.149491 191.045715 147.774801 191.950297 147.774801 192.893377 
C 147.774801 193.836458 148.149491 194.74104 148.816349 195.407898 
C 149.483208 196.074757 150.38779 196.449447 151.33087 196.449447 
z
" clip-path="url(#pcee7c2ce7a)" style="fill: #adff2f; stroke: #000000; stroke-width: 0.355414"/>
   </g>
   <g id="PathCollection_2"/>
   <g id="PathCollection_3"/>
   <g id="PathCollection_4"/>
   <g id="PathCollection_5"/>
   <g id="line2d_11">
    <path d="M 270.801871 93.533416 
L 262.878199 98.505548 
L 125.207039 184.894715 
L 159.516766 163.365232 
L 256.638341 102.421083 
L 244.003789 110.349321 
L 222.425661 123.889671 
L 333.382827 54.263636 
L 245.282587 109.546867 
L 216.235343 127.774115 
L 98.968616 201.359421 
L 103.198807 198.704959 
L 196.095102 140.412197 
L 307.055801 70.783947 
L 246.346602 108.879191 
L 102.917044 198.881769 
L 98.909428 201.396563 
L 156.332975 165.363074 
L 116.579634 190.308444 
L 262.00431 99.053923 
L 227.287631 120.838762 
L 202.007414 136.7022 
L 218.158024 126.567623 
L 93.424792 204.838191 
L 222.179351 124.044231 
L 250.78259 106.09559 
L 319.937924 62.700369 
L 277.502174 89.328955 
L 166.034317 159.27545 
L 66.832951 221.524672 
L 220.279112 125.236639 
L 176.485806 152.717101 
L 203.54568 135.736926 
L 166.606912 158.916144 
L 80.361561 213.03542 
L 232.159267 117.781797 
L 174.301078 154.088022 
L 157.608387 164.562751 
L 129.912872 181.941785 
L 126.246511 184.242442 
L 201.5299 137.001834 
L 242.66228 111.191116 
L 296.741175 77.256413 
L 217.012887 127.286203 
L 261.981929 99.067965 
L 188.401029 145.240256 
L 151.1475 168.616979 
L 232.586154 117.513918 
L 125.369007 184.79308 
L 54.530682 229.244391 
L 192.288028 142.801149 
L 266.364941 96.317608 
L 304.469554 72.406822 
L 143.631803 173.333106 
L 349.111015 44.394132 
L 106.765836 196.466637 
L 251.27531 105.786408 
L 169.134268 157.330216 
L 226.105266 121.5807 
L 234.469577 116.332071 
L 120.796678 187.662232 
L 358.894318 38.255092 
L 253.030172 104.685227 
L 280.927894 87.179301 
L 178.111477 151.696987 
L 236.809124 114.863998 
L 155.062358 166.160395 
L 198.226729 139.074588 
L 162.757018 161.331967 
L 281.460537 86.845073 
L 142.443444 174.078811 
L 134.541464 179.037332 
L 258.615916 101.180155 
L 213.170027 129.697616 
L 243.577454 110.61684 
L 167.72939 158.211786 
L 343.883575 47.67438 
L 252.079208 105.281964 
L 97.352486 202.373548 
L 290.273499 81.314903 
L 137.512881 177.172754 
L 145.786868 171.9808 
L 184.781321 147.511632 
L 120.500762 187.84792 
L 251.227144 105.816634 
L 209.647206 131.908197 
L 311.370653 68.07636 
L 202.504894 136.390021 
L 200.651252 137.553195 
L 189.38483 144.622915 
L 109.210674 194.932494 
L 104.746279 197.73392 
L 135.315914 178.551361 
L 261.305076 99.492692 
L 188.304569 145.300782 
L 227.978391 120.405309 
L 109.381275 194.825442 
L 124.32663 185.447173 
L 152.321812 167.880094 
L 151.33087 168.501914 
" clip-path="url(#pcee7c2ce7a)" style="fill: none; stroke: #008000; stroke-linecap: round"/>
   </g>
   <g id="patch_3">
    <path d="M 39.3125 239.758125 
L 39.3125 22.318125 
" style="fill: none; stroke: #ffffff; stroke-width: 1.25; stroke-linejoin: miter; stroke-linecap: square"/>
   </g>
   <g id="patch_4">
    <path d="M 374.1125 239.758125 
L 374.1125 22.318125 
" style="fill: none; stroke: #ffffff; stroke-width: 1.25; stroke-linejoin: miter; stroke-linecap: square"/>
   </g>
   <g id="patch_5">
    <path d="M 39.3125 239.758125 
L 374.1125 239.758125 
" style="fill: none; stroke: #ffffff; stroke-width: 1.25; stroke-linejoin: miter; stroke-linecap: square"/>
   </g>
   <g id="patch_6">
    <path d="M 39.3125 22.318125 
L 374.1125 22.318125 
" style="fill: none; stroke: #ffffff; stroke-width: 1.25; stroke-linejoin: miter; stroke-linecap: square"/>
   </g>
   <g id="text_13">
    <!-- Tensorflow linear regression [MSE = 0.25] -->
    <g style="fill: #262626" transform="translate(81.352813 16.318125)scale(0.12 -0.12)">
     <defs>
      <path id="DejaVuSans-54" d="M -19 4666 
L 3928 4666 
L 3928 4134 
L 2272 4134 
L 2272 0 
L 1638 0 
L 1638 4134 
L -19 4134 
L -19 4666 
z
" transform="scale(0.015625)"/>
      <path id="DejaVuSans-65" d="M 3597 1894 
L 3597 1613 
L 953 1613 
Q 991 1019 1311 708 
Q 1631 397 2203 397 
Q 2534 397 2845 478 
Q 3156 559 3463 722 
L 3463 178 
Q 3153 47 2828 -22 
Q 2503 -91 2169 -91 
Q 1331 -91 842 396 
Q 353 884 353 1716 
Q 353 2575 817 3079 
Q 1281 3584 2069 3584 
Q 2775 3584 3186 3129 
Q 3597 2675 3597 1894 
z
M 3022 2063 
Q 3016 2534 2758 2815 
Q 2500 3097 2075 3097 
Q 1594 3097 1305 2825 
Q 1016 2553 972 2059 
L 3022 2063 
z
" transform="scale(0.015625)"/>
      <path id="DejaVuSans-6e" d="M 3513 2113 
L 3513 0 
L 2938 0 
L 2938 2094 
Q 2938 2591 2744 2837 
Q 2550 3084 2163 3084 
Q 1697 3084 1428 2787 
Q 1159 2491 1159 1978 
L 1159 0 
L 581 0 
L 581 3500 
L 1159 3500 
L 1159 2956 
Q 1366 3272 1645 3428 
Q 1925 3584 2291 3584 
Q 2894 3584 3203 3211 
Q 3513 2838 3513 2113 
z
" transform="scale(0.015625)"/>
      <path id="DejaVuSans-73" d="M 2834 3397 
L 2834 2853 
Q 2591 2978 2328 3040 
Q 2066 3103 1784 3103 
Q 1356 3103 1142 2972 
Q 928 2841 928 2578 
Q 928 2378 1081 2264 
Q 1234 2150 1697 2047 
L 1894 2003 
Q 2506 1872 2764 1633 
Q 3022 1394 3022 966 
Q 3022 478 2636 193 
Q 2250 -91 1575 -91 
Q 1294 -91 989 -36 
Q 684 19 347 128 
L 347 722 
Q 666 556 975 473 
Q 1284 391 1588 391 
Q 1994 391 2212 530 
Q 2431 669 2431 922 
Q 2431 1156 2273 1281 
Q 2116 1406 1581 1522 
L 1381 1569 
Q 847 1681 609 1914 
Q 372 2147 372 2553 
Q 372 3047 722 3315 
Q 1072 3584 1716 3584 
Q 2034 3584 2315 3537 
Q 2597 3491 2834 3397 
z
" transform="scale(0.015625)"/>
      <path id="DejaVuSans-6f" d="M 1959 3097 
Q 1497 3097 1228 2736 
Q 959 2375 959 1747 
Q 959 1119 1226 758 
Q 1494 397 1959 397 
Q 2419 397 2687 759 
Q 2956 1122 2956 1747 
Q 2956 2369 2687 2733 
Q 2419 3097 1959 3097 
z
M 1959 3584 
Q 2709 3584 3137 3096 
Q 3566 2609 3566 1747 
Q 3566 888 3137 398 
Q 2709 -91 1959 -91 
Q 1206 -91 779 398 
Q 353 888 353 1747 
Q 353 2609 779 3096 
Q 1206 3584 1959 3584 
z
" transform="scale(0.015625)"/>
      <path id="DejaVuSans-72" d="M 2631 2963 
Q 2534 3019 2420 3045 
Q 2306 3072 2169 3072 
Q 1681 3072 1420 2755 
Q 1159 2438 1159 1844 
L 1159 0 
L 581 0 
L 581 3500 
L 1159 3500 
L 1159 2956 
Q 1341 3275 1631 3429 
Q 1922 3584 2338 3584 
Q 2397 3584 2469 3576 
Q 2541 3569 2628 3553 
L 2631 2963 
z
" transform="scale(0.015625)"/>
      <path id="DejaVuSans-66" d="M 2375 4863 
L 2375 4384 
L 1825 4384 
Q 1516 4384 1395 4259 
Q 1275 4134 1275 3809 
L 1275 3500 
L 2222 3500 
L 2222 3053 
L 1275 3053 
L 1275 0 
L 697 0 
L 697 3053 
L 147 3053 
L 147 3500 
L 697 3500 
L 697 3744 
Q 697 4328 969 4595 
Q 1241 4863 1831 4863 
L 2375 4863 
z
" transform="scale(0.015625)"/>
      <path id="DejaVuSans-6c" d="M 603 4863 
L 1178 4863 
L 1178 0 
L 603 0 
L 603 4863 
z
" transform="scale(0.015625)"/>
      <path id="DejaVuSans-77" d="M 269 3500 
L 844 3500 
L 1563 769 
L 2278 3500 
L 2956 3500 
L 3675 769 
L 4391 3500 
L 4966 3500 
L 4050 0 
L 3372 0 
L 2619 2869 
L 1863 0 
L 1184 0 
L 269 3500 
z
" transform="scale(0.015625)"/>
      <path id="DejaVuSans-20" transform="scale(0.015625)"/>
      <path id="DejaVuSans-69" d="M 603 3500 
L 1178 3500 
L 1178 0 
L 603 0 
L 603 3500 
z
M 603 4863 
L 1178 4863 
L 1178 4134 
L 603 4134 
L 603 4863 
z
" transform="scale(0.015625)"/>
      <path id="DejaVuSans-61" d="M 2194 1759 
Q 1497 1759 1228 1600 
Q 959 1441 959 1056 
Q 959 750 1161 570 
Q 1363 391 1709 391 
Q 2188 391 2477 730 
Q 2766 1069 2766 1631 
L 2766 1759 
L 2194 1759 
z
M 3341 1997 
L 3341 0 
L 2766 0 
L 2766 531 
Q 2569 213 2275 61 
Q 1981 -91 1556 -91 
Q 1019 -91 701 211 
Q 384 513 384 1019 
Q 384 1609 779 1909 
Q 1175 2209 1959 2209 
L 2766 2209 
L 2766 2266 
Q 2766 2663 2505 2880 
Q 2244 3097 1772 3097 
Q 1472 3097 1187 3025 
Q 903 2953 641 2809 
L 641 3341 
Q 956 3463 1253 3523 
Q 1550 3584 1831 3584 
Q 2591 3584 2966 3190 
Q 3341 2797 3341 1997 
z
" transform="scale(0.015625)"/>
      <path id="DejaVuSans-67" d="M 2906 1791 
Q 2906 2416 2648 2759 
Q 2391 3103 1925 3103 
Q 1463 3103 1205 2759 
Q 947 2416 947 1791 
Q 947 1169 1205 825 
Q 1463 481 1925 481 
Q 2391 481 2648 825 
Q 2906 1169 2906 1791 
z
M 3481 434 
Q 3481 -459 3084 -895 
Q 2688 -1331 1869 -1331 
Q 1566 -1331 1297 -1286 
Q 1028 -1241 775 -1147 
L 775 -588 
Q 1028 -725 1275 -790 
Q 1522 -856 1778 -856 
Q 2344 -856 2625 -561 
Q 2906 -266 2906 331 
L 2906 616 
Q 2728 306 2450 153 
Q 2172 0 1784 0 
Q 1141 0 747 490 
Q 353 981 353 1791 
Q 353 2603 747 3093 
Q 1141 3584 1784 3584 
Q 2172 3584 2450 3431 
Q 2728 3278 2906 2969 
L 2906 3500 
L 3481 3500 
L 3481 434 
z
" transform="scale(0.015625)"/>
      <path id="DejaVuSans-5b" d="M 550 4863 
L 1875 4863 
L 1875 4416 
L 1125 4416 
L 1125 -397 
L 1875 -397 
L 1875 -844 
L 550 -844 
L 550 4863 
z
" transform="scale(0.015625)"/>
      <path id="DejaVuSans-4d" d="M 628 4666 
L 1569 4666 
L 2759 1491 
L 3956 4666 
L 4897 4666 
L 4897 0 
L 4281 0 
L 4281 4097 
L 3078 897 
L 2444 897 
L 1241 4097 
L 1241 0 
L 628 0 
L 628 4666 
z
" transform="scale(0.015625)"/>
      <path id="DejaVuSans-53" d="M 3425 4513 
L 3425 3897 
Q 3066 4069 2747 4153 
Q 2428 4238 2131 4238 
Q 1616 4238 1336 4038 
Q 1056 3838 1056 3469 
Q 1056 3159 1242 3001 
Q 1428 2844 1947 2747 
L 2328 2669 
Q 3034 2534 3370 2195 
Q 3706 1856 3706 1288 
Q 3706 609 3251 259 
Q 2797 -91 1919 -91 
Q 1588 -91 1214 -16 
Q 841 59 441 206 
L 441 856 
Q 825 641 1194 531 
Q 1563 422 1919 422 
Q 2459 422 2753 634 
Q 3047 847 3047 1241 
Q 3047 1584 2836 1778 
Q 2625 1972 2144 2069 
L 1759 2144 
Q 1053 2284 737 2584 
Q 422 2884 422 3419 
Q 422 4038 858 4394 
Q 1294 4750 2059 4750 
Q 2388 4750 2728 4690 
Q 3069 4631 3425 4513 
z
" transform="scale(0.015625)"/>
      <path id="DejaVuSans-45" d="M 628 4666 
L 3578 4666 
L 3578 4134 
L 1259 4134 
L 1259 2753 
L 3481 2753 
L 3481 2222 
L 1259 2222 
L 1259 531 
L 3634 531 
L 3634 0 
L 628 0 
L 628 4666 
z
" transform="scale(0.015625)"/>
      <path id="DejaVuSans-3d" d="M 678 2906 
L 4684 2906 
L 4684 2381 
L 678 2381 
L 678 2906 
z
M 678 1631 
L 4684 1631 
L 4684 1100 
L 678 1100 
L 678 1631 
z
" transform="scale(0.015625)"/>
      <path id="DejaVuSans-2e" d="M 684 794 
L 1344 794 
L 1344 0 
L 684 0 
L 684 794 
z
" transform="scale(0.015625)"/>
      <path id="DejaVuSans-35" d="M 691 4666 
L 3169 4666 
L 3169 4134 
L 1269 4134 
L 1269 2991 
Q 1406 3038 1543 3061 
Q 1681 3084 1819 3084 
Q 2600 3084 3056 2656 
Q 3513 2228 3513 1497 
Q 3513 744 3044 326 
Q 2575 -91 1722 -91 
Q 1428 -91 1123 -41 
Q 819 9 494 109 
L 494 744 
Q 775 591 1075 516 
Q 1375 441 1709 441 
Q 2250 441 2565 725 
Q 2881 1009 2881 1497 
Q 2881 1984 2565 2268 
Q 2250 2553 1709 2553 
Q 1456 2553 1204 2497 
Q 953 2441 691 2322 
L 691 4666 
z
" transform="scale(0.015625)"/>
      <path id="DejaVuSans-5d" d="M 1947 4863 
L 1947 -844 
L 622 -844 
L 622 -397 
L 1369 -397 
L 1369 4416 
L 622 4416 
L 622 4863 
L 1947 4863 
z
" transform="scale(0.015625)"/>
     </defs>
     <use xlink:href="#DejaVuSans-54"/>
     <use xlink:href="#DejaVuSans-65" x="44.083984"/>
     <use xlink:href="#DejaVuSans-6e" x="105.607422"/>
     <use xlink:href="#DejaVuSans-73" x="168.986328"/>
     <use xlink:href="#DejaVuSans-6f" x="221.085938"/>
     <use xlink:href="#DejaVuSans-72" x="282.267578"/>
     <use xlink:href="#DejaVuSans-66" x="323.380859"/>
     <use xlink:href="#DejaVuSans-6c" x="358.585938"/>
     <use xlink:href="#DejaVuSans-6f" x="386.369141"/>
     <use xlink:href="#DejaVuSans-77" x="447.550781"/>
     <use xlink:href="#DejaVuSans-20" x="529.337891"/>
     <use xlink:href="#DejaVuSans-6c" x="561.125"/>
     <use xlink:href="#DejaVuSans-69" x="588.908203"/>
     <use xlink:href="#DejaVuSans-6e" x="616.691406"/>
     <use xlink:href="#DejaVuSans-65" x="680.070312"/>
     <use xlink:href="#DejaVuSans-61" x="741.59375"/>
     <use xlink:href="#DejaVuSans-72" x="802.873047"/>
     <use xlink:href="#DejaVuSans-20" x="843.986328"/>
     <use xlink:href="#DejaVuSans-72" x="875.773438"/>
     <use xlink:href="#DejaVuSans-65" x="914.636719"/>
     <use xlink:href="#DejaVuSans-67" x="976.160156"/>
     <use xlink:href="#DejaVuSans-72" x="1039.636719"/>
     <use xlink:href="#DejaVuSans-65" x="1078.5"/>
     <use xlink:href="#DejaVuSans-73" x="1140.023438"/>
     <use xlink:href="#DejaVuSans-73" x="1192.123047"/>
     <use xlink:href="#DejaVuSans-69" x="1244.222656"/>
     <use xlink:href="#DejaVuSans-6f" x="1272.005859"/>
     <use xlink:href="#DejaVuSans-6e" x="1333.1875"/>
     <use xlink:href="#DejaVuSans-20" x="1396.566406"/>
     <use xlink:href="#DejaVuSans-5b" x="1428.353516"/>
     <use xlink:href="#DejaVuSans-4d" x="1467.367188"/>
     <use xlink:href="#DejaVuSans-53" x="1553.646484"/>
     <use xlink:href="#DejaVuSans-45" x="1617.123047"/>
     <use xlink:href="#DejaVuSans-20" x="1680.306641"/>
     <use xlink:href="#DejaVuSans-3d" x="1712.09375"/>
     <use xlink:href="#DejaVuSans-20" x="1795.882812"/>
     <use xlink:href="#DejaVuSans-30" x="1827.669922"/>
     <use xlink:href="#DejaVuSans-2e" x="1891.292969"/>
     <use xlink:href="#DejaVuSans-32" x="1923.080078"/>
     <use xlink:href="#DejaVuSans-35" x="1986.703125"/>
     <use xlink:href="#DejaVuSans-5d" x="2050.326172"/>
    </g>
   </g>
   <g id="legend_1">
    <g id="patch_7">
     <path d="M 44.9125 108.353875 
L 108.24625 108.353875 
Q 109.84625 108.353875 109.84625 106.753875 
L 109.84625 27.918125 
Q 109.84625 26.318125 108.24625 26.318125 
L 44.9125 26.318125 
Q 43.3125 26.318125 43.3125 27.918125 
L 43.3125 106.753875 
Q 43.3125 108.353875 44.9125 108.353875 
z
" style="fill: #eaeaf2; opacity: 0.8; stroke: #cccccc; stroke-linejoin: miter"/>
    </g>
    <g id="text_14">
     <!-- marker size for -->
     <g style="fill: #262626" transform="translate(46.5125 35.596875)scale(0.08 -0.08)">
      <defs>
       <path id="DejaVuSans-6d" d="M 3328 2828 
Q 3544 3216 3844 3400 
Q 4144 3584 4550 3584 
Q 5097 3584 5394 3201 
Q 5691 2819 5691 2113 
L 5691 0 
L 5113 0 
L 5113 2094 
Q 5113 2597 4934 2840 
Q 4756 3084 4391 3084 
Q 3944 3084 3684 2787 
Q 3425 2491 3425 1978 
L 3425 0 
L 2847 0 
L 2847 2094 
Q 2847 2600 2669 2842 
Q 2491 3084 2119 3084 
Q 1678 3084 1418 2786 
Q 1159 2488 1159 1978 
L 1159 0 
L 581 0 
L 581 3500 
L 1159 3500 
L 1159 2956 
Q 1356 3278 1631 3431 
Q 1906 3584 2284 3584 
Q 2666 3584 2933 3390 
Q 3200 3197 3328 2828 
z
" transform="scale(0.015625)"/>
       <path id="DejaVuSans-6b" d="M 581 4863 
L 1159 4863 
L 1159 1991 
L 2875 3500 
L 3609 3500 
L 1753 1863 
L 3688 0 
L 2938 0 
L 1159 1709 
L 1159 0 
L 581 0 
L 581 4863 
z
" transform="scale(0.015625)"/>
       <path id="DejaVuSans-7a" d="M 353 3500 
L 3084 3500 
L 3084 2975 
L 922 459 
L 3084 459 
L 3084 0 
L 275 0 
L 275 525 
L 2438 3041 
L 353 3041 
L 353 3500 
z
" transform="scale(0.015625)"/>
      </defs>
      <use xlink:href="#DejaVuSans-6d"/>
      <use xlink:href="#DejaVuSans-61" x="97.412109"/>
      <use xlink:href="#DejaVuSans-72" x="158.691406"/>
      <use xlink:href="#DejaVuSans-6b" x="199.804688"/>
      <use xlink:href="#DejaVuSans-65" x="254.089844"/>
      <use xlink:href="#DejaVuSans-72" x="315.613281"/>
      <use xlink:href="#DejaVuSans-20" x="356.726562"/>
      <use xlink:href="#DejaVuSans-73" x="388.513672"/>
      <use xlink:href="#DejaVuSans-69" x="440.613281"/>
      <use xlink:href="#DejaVuSans-7a" x="468.396484"/>
      <use xlink:href="#DejaVuSans-65" x="520.886719"/>
      <use xlink:href="#DejaVuSans-20" x="582.410156"/>
      <use xlink:href="#DejaVuSans-66" x="614.197266"/>
      <use xlink:href="#DejaVuSans-6f" x="649.402344"/>
      <use xlink:href="#DejaVuSans-72" x="710.583984"/>
     </g>
     <!-- error values -->
     <g style="fill: #262626" transform="translate(46.5125 44.555125)scale(0.08 -0.08)">
      <defs>
       <path id="DejaVuSans-76" d="M 191 3500 
L 800 3500 
L 1894 563 
L 2988 3500 
L 3597 3500 
L 2284 0 
L 1503 0 
L 191 3500 
z
" transform="scale(0.015625)"/>
       <path id="DejaVuSans-75" d="M 544 1381 
L 544 3500 
L 1119 3500 
L 1119 1403 
Q 1119 906 1312 657 
Q 1506 409 1894 409 
Q 2359 409 2629 706 
Q 2900 1003 2900 1516 
L 2900 3500 
L 3475 3500 
L 3475 0 
L 2900 0 
L 2900 538 
Q 2691 219 2414 64 
Q 2138 -91 1772 -91 
Q 1169 -91 856 284 
Q 544 659 544 1381 
z
M 1991 3584 
L 1991 3584 
z
" transform="scale(0.015625)"/>
      </defs>
      <use xlink:href="#DejaVuSans-65"/>
      <use xlink:href="#DejaVuSans-72" x="61.523438"/>
      <use xlink:href="#DejaVuSans-72" x="100.886719"/>
      <use xlink:href="#DejaVuSans-6f" x="139.75"/>
      <use xlink:href="#DejaVuSans-72" x="200.931641"/>
      <use xlink:href="#DejaVuSans-20" x="242.044922"/>
      <use xlink:href="#DejaVuSans-76" x="273.832031"/>
      <use xlink:href="#DejaVuSans-61" x="333.011719"/>
      <use xlink:href="#DejaVuSans-6c" x="394.291016"/>
      <use xlink:href="#DejaVuSans-75" x="422.074219"/>
      <use xlink:href="#DejaVuSans-65" x="485.453125"/>
      <use xlink:href="#DejaVuSans-73" x="546.976562"/>
     </g>
    </g>
    <g id="PathCollection_6">
     <defs>
      <path id="m98103736ef" d="M 0 2.717248 
C 0.720623 2.717248 1.411828 2.430942 1.921385 1.921385 
C 2.430942 1.411828 2.717248 0.720623 2.717248 0 
C 2.717248 -0.720623 2.430942 -1.411828 1.921385 -1.921385 
C 1.411828 -2.430942 0.720623 -2.717248 0 -2.717248 
C -0.720623 -2.717248 -1.411828 -2.430942 -1.921385 -1.921385 
C -2.430942 -1.411828 -2.717248 -0.720623 -2.717248 0 
C -2.717248 0.720623 -2.430942 1.411828 -1.921385 1.921385 
C -1.411828 2.430942 -0.720623 2.717248 0 2.717248 
z
" style="stroke: #333333"/>
     </defs>
     <g>
      <use xlink:href="#m98103736ef" x="62.4575" y="54.197625" style="fill: #333333; stroke: #333333"/>
     </g>
    </g>
    <g id="text_15">
     <!-- 0.4 -->
     <g style="fill: #262626" transform="translate(76.8575 56.297625)scale(0.08 -0.08)">
      <use xlink:href="#DejaVuSans-30"/>
      <use xlink:href="#DejaVuSans-2e" x="63.623047"/>
      <use xlink:href="#DejaVuSans-34" x="95.410156"/>
     </g>
    </g>
    <g id="PathCollection_7">
     <defs>
      <path id="mb7e0eb307b" d="M 0 3.221803 
C 0.854432 3.221803 1.673984 2.882334 2.278159 2.278159 
C 2.882334 1.673984 3.221803 0.854432 3.221803 0 
C 3.221803 -0.854432 2.882334 -1.673984 2.278159 -2.278159 
C 1.673984 -2.882334 0.854432 -3.221803 0 -3.221803 
C -0.854432 -3.221803 -1.673984 -2.882334 -2.278159 -2.278159 
C -2.882334 -1.673984 -3.221803 -0.854432 -3.221803 0 
C -3.221803 0.854432 -2.882334 1.673984 -2.278159 2.278159 
C -1.673984 2.882334 -0.854432 3.221803 0 3.221803 
z
" style="stroke: #333333"/>
     </defs>
     <g>
      <use xlink:href="#mb7e0eb307b" x="62.4575" y="65.940125" style="fill: #333333; stroke: #333333"/>
     </g>
    </g>
    <g id="text_16">
     <!-- 0.8 -->
     <g style="fill: #262626" transform="translate(76.8575 68.040125)scale(0.08 -0.08)">
      <use xlink:href="#DejaVuSans-30"/>
      <use xlink:href="#DejaVuSans-2e" x="63.623047"/>
      <use xlink:href="#DejaVuSans-38" x="95.410156"/>
     </g>
    </g>
    <g id="PathCollection_8">
     <defs>
      <path id="mc9294fd26b" d="M 0 3.657403 
C 0.969955 3.657403 1.900313 3.272036 2.586174 2.586174 
C 3.272036 1.900313 3.657403 0.969955 3.657403 0 
C 3.657403 -0.969955 3.272036 -1.900313 2.586174 -2.586174 
C 1.900313 -3.272036 0.969955 -3.657403 0 -3.657403 
C -0.969955 -3.657403 -1.900313 -3.272036 -2.586174 -2.586174 
C -3.272036 -1.900313 -3.657403 -0.969955 -3.657403 0 
C -3.657403 0.969955 -3.272036 1.900313 -2.586174 2.586174 
C -1.900313 3.272036 -0.969955 3.657403 0 3.657403 
z
" style="stroke: #333333"/>
     </defs>
     <g>
      <use xlink:href="#mc9294fd26b" x="62.4575" y="77.682625" style="fill: #333333; stroke: #333333"/>
     </g>
    </g>
    <g id="text_17">
     <!-- 1.2 -->
     <g style="fill: #262626" transform="translate(76.8575 79.782625)scale(0.08 -0.08)">
      <use xlink:href="#DejaVuSans-31"/>
      <use xlink:href="#DejaVuSans-2e" x="63.623047"/>
      <use xlink:href="#DejaVuSans-32" x="95.410156"/>
     </g>
    </g>
    <g id="PathCollection_9">
     <defs>
      <path id="ma500a8ef1a" d="M 0 4.046378 
C 1.073112 4.046378 2.102416 3.620026 2.861221 2.861221 
C 3.620026 2.102416 4.046378 1.073112 4.046378 0 
C 4.046378 -1.073112 3.620026 -2.102416 2.861221 -2.861221 
C 2.102416 -3.620026 1.073112 -4.046378 0 -4.046378 
C -1.073112 -4.046378 -2.102416 -3.620026 -2.861221 -2.861221 
C -3.620026 -2.102416 -4.046378 -1.073112 -4.046378 0 
C -4.046378 1.073112 -3.620026 2.102416 -2.861221 2.861221 
C -2.102416 3.620026 -1.073112 4.046378 0 4.046378 
z
" style="stroke: #333333"/>
     </defs>
     <g>
      <use xlink:href="#ma500a8ef1a" x="62.4575" y="89.425125" style="fill: #333333; stroke: #333333"/>
     </g>
    </g>
    <g id="text_18">
     <!-- 1.6 -->
     <g style="fill: #262626" transform="translate(76.8575 91.525125)scale(0.08 -0.08)">
      <use xlink:href="#DejaVuSans-31"/>
      <use xlink:href="#DejaVuSans-2e" x="63.623047"/>
      <use xlink:href="#DejaVuSans-36" x="95.410156"/>
     </g>
    </g>
    <g id="line2d_12">
     <path d="M 54.4575 100.467625 
L 62.4575 100.467625 
L 70.4575 100.467625 
" style="fill: none; stroke: #008000; stroke-linecap: round"/>
    </g>
    <g id="text_19">
     <!-- y_hat -->
     <g style="fill: #262626" transform="translate(76.8575 103.267625)scale(0.08 -0.08)">
      <defs>
       <path id="DejaVuSans-5f" d="M 3263 -1063 
L 3263 -1509 
L -63 -1509 
L -63 -1063 
L 3263 -1063 
z
" transform="scale(0.015625)"/>
       <path id="DejaVuSans-68" d="M 3513 2113 
L 3513 0 
L 2938 0 
L 2938 2094 
Q 2938 2591 2744 2837 
Q 2550 3084 2163 3084 
Q 1697 3084 1428 2787 
Q 1159 2491 1159 1978 
L 1159 0 
L 581 0 
L 581 4863 
L 1159 4863 
L 1159 2956 
Q 1366 3272 1645 3428 
Q 1925 3584 2291 3584 
Q 2894 3584 3203 3211 
Q 3513 2838 3513 2113 
z
" transform="scale(0.015625)"/>
       <path id="DejaVuSans-74" d="M 1172 4494 
L 1172 3500 
L 2356 3500 
L 2356 3053 
L 1172 3053 
L 1172 1153 
Q 1172 725 1289 603 
Q 1406 481 1766 481 
L 2356 481 
L 2356 0 
L 1766 0 
Q 1100 0 847 248 
Q 594 497 594 1153 
L 594 3053 
L 172 3053 
L 172 3500 
L 594 3500 
L 594 4494 
L 1172 4494 
z
" transform="scale(0.015625)"/>
      </defs>
      <use xlink:href="#DejaVuSans-79"/>
      <use xlink:href="#DejaVuSans-5f" x="59.179688"/>
      <use xlink:href="#DejaVuSans-68" x="109.179688"/>
      <use xlink:href="#DejaVuSans-61" x="172.558594"/>
      <use xlink:href="#DejaVuSans-74" x="233.837891"/>
     </g>
    </g>
   </g>
  </g>
 </g>
 <defs>
  <clipPath id="pcee7c2ce7a">
   <rect x="39.3125" y="22.318125" width="334.8" height="217.44"/>
  </clipPath>
 </defs>
</svg>
