<?xml version="1.0" encoding="utf-8" standalone="no"?>
<!DOCTYPE svg PUBLIC "-//W3C//DTD SVG 1.1//EN"
  "http://www.w3.org/Graphics/SVG/1.1/DTD/svg11.dtd">
<svg xmlns:xlink="http://www.w3.org/1999/xlink" width="404.527656pt" height="282.717813pt" viewBox="0 0 404.527656 282.717813" xmlns="http://www.w3.org/2000/svg" version="1.1">
 <metadata>
  <rdf:RDF xmlns:dc="http://purl.org/dc/elements/1.1/" xmlns:cc="http://creativecommons.org/ns#" xmlns:rdf="http://www.w3.org/1999/02/22-rdf-syntax-ns#">
   <cc:Work>
    <dc:type rdf:resource="http://purl.org/dc/dcmitype/StillImage"/>
    <dc:date>2023-01-11T15:25:32.002697</dc:date>
    <dc:format>image/svg+xml</dc:format>
    <dc:creator>
     <cc:Agent>
      <dc:title>Matplotlib v3.5.2, https://matplotlib.org/</dc:title>
     </cc:Agent>
    </dc:creator>
   </cc:Work>
  </rdf:RDF>
 </metadata>
 <defs>
  <style type="text/css">*{stroke-linejoin: round; stroke-linecap: butt}</style>
 </defs>
 <g id="figure_1">
  <g id="patch_1">
   <path d="M 0 282.717813 
L 404.527656 282.717813 
L 404.527656 0 
L 0 0 
z
" style="fill: #ffffff"/>
  </g>
  <g id="axes_1">
   <g id="patch_2">
    <path d="M 62.527656 239.758125 
L 397.327656 239.758125 
L 397.327656 22.318125 
L 62.527656 22.318125 
z
" style="fill: #eaeaf2"/>
   </g>
   <g id="matplotlib.axis_1">
    <g id="xtick_1">
     <g id="line2d_1">
      <path d="M 102.514285 239.758125 
L 102.514285 22.318125 
" clip-path="url(#p9560f84b4d)" style="fill: none; stroke: #ffffff; stroke-linecap: round"/>
     </g>
     <g id="text_1">
      <!-- −2 -->
      <g style="fill: #262626" transform="translate(94.406082 257.616406)scale(0.11 -0.11)">
       <defs>
        <path id="DejaVuSans-2212" d="M 678 2272 
L 4684 2272 
L 4684 1741 
L 678 1741 
L 678 2272 
z
" transform="scale(0.015625)"/>
        <path id="DejaVuSans-32" d="M 1228 531 
L 3431 531 
L 3431 0 
L 469 0 
L 469 531 
Q 828 903 1448 1529 
Q 2069 2156 2228 2338 
Q 2531 2678 2651 2914 
Q 2772 3150 2772 3378 
Q 2772 3750 2511 3984 
Q 2250 4219 1831 4219 
Q 1534 4219 1204 4116 
Q 875 4013 500 3803 
L 500 4441 
Q 881 4594 1212 4672 
Q 1544 4750 1819 4750 
Q 2544 4750 2975 4387 
Q 3406 4025 3406 3419 
Q 3406 3131 3298 2873 
Q 3191 2616 2906 2266 
Q 2828 2175 2409 1742 
Q 1991 1309 1228 531 
z
" transform="scale(0.015625)"/>
       </defs>
       <use xlink:href="#DejaVuSans-2212"/>
       <use xlink:href="#DejaVuSans-32" x="83.789062"/>
      </g>
     </g>
    </g>
    <g id="xtick_2">
     <g id="line2d_2">
      <path d="M 171.714645 239.758125 
L 171.714645 22.318125 
" clip-path="url(#p9560f84b4d)" style="fill: none; stroke: #ffffff; stroke-linecap: round"/>
     </g>
     <g id="text_2">
      <!-- −1 -->
      <g style="fill: #262626" transform="translate(163.606442 257.616406)scale(0.11 -0.11)">
       <defs>
        <path id="DejaVuSans-31" d="M 794 531 
L 1825 531 
L 1825 4091 
L 703 3866 
L 703 4441 
L 1819 4666 
L 2450 4666 
L 2450 531 
L 3481 531 
L 3481 0 
L 794 0 
L 794 531 
z
" transform="scale(0.015625)"/>
       </defs>
       <use xlink:href="#DejaVuSans-2212"/>
       <use xlink:href="#DejaVuSans-31" x="83.789062"/>
      </g>
     </g>
    </g>
    <g id="xtick_3">
     <g id="line2d_3">
      <path d="M 240.915005 239.758125 
L 240.915005 22.318125 
" clip-path="url(#p9560f84b4d)" style="fill: none; stroke: #ffffff; stroke-linecap: round"/>
     </g>
     <g id="text_3">
      <!-- 0 -->
      <g style="fill: #262626" transform="translate(237.41563 257.616406)scale(0.11 -0.11)">
       <defs>
        <path id="DejaVuSans-30" d="M 2034 4250 
Q 1547 4250 1301 3770 
Q 1056 3291 1056 2328 
Q 1056 1369 1301 889 
Q 1547 409 2034 409 
Q 2525 409 2770 889 
Q 3016 1369 3016 2328 
Q 3016 3291 2770 3770 
Q 2525 4250 2034 4250 
z
M 2034 4750 
Q 2819 4750 3233 4129 
Q 3647 3509 3647 2328 
Q 3647 1150 3233 529 
Q 2819 -91 2034 -91 
Q 1250 -91 836 529 
Q 422 1150 422 2328 
Q 422 3509 836 4129 
Q 1250 4750 2034 4750 
z
" transform="scale(0.015625)"/>
       </defs>
       <use xlink:href="#DejaVuSans-30"/>
      </g>
     </g>
    </g>
    <g id="xtick_4">
     <g id="line2d_4">
      <path d="M 310.115365 239.758125 
L 310.115365 22.318125 
" clip-path="url(#p9560f84b4d)" style="fill: none; stroke: #ffffff; stroke-linecap: round"/>
     </g>
     <g id="text_4">
      <!-- 1 -->
      <g style="fill: #262626" transform="translate(306.61599 257.616406)scale(0.11 -0.11)">
       <use xlink:href="#DejaVuSans-31"/>
      </g>
     </g>
    </g>
    <g id="xtick_5">
     <g id="line2d_5">
      <path d="M 379.315725 239.758125 
L 379.315725 22.318125 
" clip-path="url(#p9560f84b4d)" style="fill: none; stroke: #ffffff; stroke-linecap: round"/>
     </g>
     <g id="text_5">
      <!-- 2 -->
      <g style="fill: #262626" transform="translate(375.81635 257.616406)scale(0.11 -0.11)">
       <use xlink:href="#DejaVuSans-32"/>
      </g>
     </g>
    </g>
    <g id="text_6">
     <!-- x -->
     <g style="fill: #262626" transform="translate(226.376406 273.022188)scale(0.12 -0.12)">
      <defs>
       <path id="DejaVuSans-78" d="M 3513 3500 
L 2247 1797 
L 3578 0 
L 2900 0 
L 1881 1375 
L 863 0 
L 184 0 
L 1544 1831 
L 300 3500 
L 978 3500 
L 1906 2253 
L 2834 3500 
L 3513 3500 
z
" transform="scale(0.015625)"/>
      </defs>
      <use xlink:href="#DejaVuSans-78"/>
     </g>
    </g>
   </g>
   <g id="matplotlib.axis_2">
    <g id="ytick_1">
     <g id="line2d_6">
      <path d="M 62.527656 229.784159 
L 397.327656 229.784159 
" clip-path="url(#p9560f84b4d)" style="fill: none; stroke: #ffffff; stroke-linecap: round"/>
     </g>
     <g id="text_7">
      <!-- −100 -->
      <g style="fill: #262626" transform="translate(22.81375 233.9633)scale(0.11 -0.11)">
       <use xlink:href="#DejaVuSans-2212"/>
       <use xlink:href="#DejaVuSans-31" x="83.789062"/>
       <use xlink:href="#DejaVuSans-30" x="147.412109"/>
       <use xlink:href="#DejaVuSans-30" x="211.035156"/>
      </g>
     </g>
    </g>
    <g id="ytick_2">
     <g id="line2d_7">
      <path d="M 62.527656 200.675705 
L 397.327656 200.675705 
" clip-path="url(#p9560f84b4d)" style="fill: none; stroke: #ffffff; stroke-linecap: round"/>
     </g>
     <g id="text_8">
      <!-- −75 -->
      <g style="fill: #262626" transform="translate(29.8125 204.854846)scale(0.11 -0.11)">
       <defs>
        <path id="DejaVuSans-37" d="M 525 4666 
L 3525 4666 
L 3525 4397 
L 1831 0 
L 1172 0 
L 2766 4134 
L 525 4134 
L 525 4666 
z
" transform="scale(0.015625)"/>
        <path id="DejaVuSans-35" d="M 691 4666 
L 3169 4666 
L 3169 4134 
L 1269 4134 
L 1269 2991 
Q 1406 3038 1543 3061 
Q 1681 3084 1819 3084 
Q 2600 3084 3056 2656 
Q 3513 2228 3513 1497 
Q 3513 744 3044 326 
Q 2575 -91 1722 -91 
Q 1428 -91 1123 -41 
Q 819 9 494 109 
L 494 744 
Q 775 591 1075 516 
Q 1375 441 1709 441 
Q 2250 441 2565 725 
Q 2881 1009 2881 1497 
Q 2881 1984 2565 2268 
Q 2250 2553 1709 2553 
Q 1456 2553 1204 2497 
Q 953 2441 691 2322 
L 691 4666 
z
" transform="scale(0.015625)"/>
       </defs>
       <use xlink:href="#DejaVuSans-2212"/>
       <use xlink:href="#DejaVuSans-37" x="83.789062"/>
       <use xlink:href="#DejaVuSans-35" x="147.412109"/>
      </g>
     </g>
    </g>
    <g id="ytick_3">
     <g id="line2d_8">
      <path d="M 62.527656 171.567251 
L 397.327656 171.567251 
" clip-path="url(#p9560f84b4d)" style="fill: none; stroke: #ffffff; stroke-linecap: round"/>
     </g>
     <g id="text_9">
      <!-- −50 -->
      <g style="fill: #262626" transform="translate(29.8125 175.746392)scale(0.11 -0.11)">
       <use xlink:href="#DejaVuSans-2212"/>
       <use xlink:href="#DejaVuSans-35" x="83.789062"/>
       <use xlink:href="#DejaVuSans-30" x="147.412109"/>
      </g>
     </g>
    </g>
    <g id="ytick_4">
     <g id="line2d_9">
      <path d="M 62.527656 142.458797 
L 397.327656 142.458797 
" clip-path="url(#p9560f84b4d)" style="fill: none; stroke: #ffffff; stroke-linecap: round"/>
     </g>
     <g id="text_10">
      <!-- −25 -->
      <g style="fill: #262626" transform="translate(29.8125 146.637938)scale(0.11 -0.11)">
       <use xlink:href="#DejaVuSans-2212"/>
       <use xlink:href="#DejaVuSans-32" x="83.789062"/>
       <use xlink:href="#DejaVuSans-35" x="147.412109"/>
      </g>
     </g>
    </g>
    <g id="ytick_5">
     <g id="line2d_10">
      <path d="M 62.527656 113.350343 
L 397.327656 113.350343 
" clip-path="url(#p9560f84b4d)" style="fill: none; stroke: #ffffff; stroke-linecap: round"/>
     </g>
     <g id="text_11">
      <!-- 0 -->
      <g style="fill: #262626" transform="translate(46.028906 117.529484)scale(0.11 -0.11)">
       <use xlink:href="#DejaVuSans-30"/>
      </g>
     </g>
    </g>
    <g id="ytick_6">
     <g id="line2d_11">
      <path d="M 62.527656 84.241889 
L 397.327656 84.241889 
" clip-path="url(#p9560f84b4d)" style="fill: none; stroke: #ffffff; stroke-linecap: round"/>
     </g>
     <g id="text_12">
      <!-- 25 -->
      <g style="fill: #262626" transform="translate(39.030156 88.42103)scale(0.11 -0.11)">
       <use xlink:href="#DejaVuSans-32"/>
       <use xlink:href="#DejaVuSans-35" x="63.623047"/>
      </g>
     </g>
    </g>
    <g id="ytick_7">
     <g id="line2d_12">
      <path d="M 62.527656 55.133435 
L 397.327656 55.133435 
" clip-path="url(#p9560f84b4d)" style="fill: none; stroke: #ffffff; stroke-linecap: round"/>
     </g>
     <g id="text_13">
      <!-- 50 -->
      <g style="fill: #262626" transform="translate(39.030156 59.312576)scale(0.11 -0.11)">
       <use xlink:href="#DejaVuSans-35"/>
       <use xlink:href="#DejaVuSans-30" x="63.623047"/>
      </g>
     </g>
    </g>
    <g id="ytick_8">
     <g id="line2d_13">
      <path d="M 62.527656 26.024981 
L 397.327656 26.024981 
" clip-path="url(#p9560f84b4d)" style="fill: none; stroke: #ffffff; stroke-linecap: round"/>
     </g>
     <g id="text_14">
      <!-- 75 -->
      <g style="fill: #262626" transform="translate(39.030156 30.204122)scale(0.11 -0.11)">
       <use xlink:href="#DejaVuSans-37"/>
       <use xlink:href="#DejaVuSans-35" x="63.623047"/>
      </g>
     </g>
    </g>
    <g id="text_15">
     <!-- y -->
     <g style="fill: #262626" transform="translate(16.318125 134.589375)rotate(-90)scale(0.12 -0.12)">
      <defs>
       <path id="DejaVuSans-79" d="M 2059 -325 
Q 1816 -950 1584 -1140 
Q 1353 -1331 966 -1331 
L 506 -1331 
L 506 -850 
L 844 -850 
Q 1081 -850 1212 -737 
Q 1344 -625 1503 -206 
L 1606 56 
L 191 3500 
L 800 3500 
L 1894 763 
L 2988 3500 
L 3597 3500 
L 2059 -325 
z
" transform="scale(0.015625)"/>
      </defs>
      <use xlink:href="#DejaVuSans-79"/>
     </g>
    </g>
   </g>
   <g id="PathCollection_1">
    <defs>
     <path id="me4759392a5" d="M 0 2.236068 
C 0.593012 2.236068 1.161816 2.000462 1.581139 1.581139 
C 2.000462 1.161816 2.236068 0.593012 2.236068 0 
C 2.236068 -0.593012 2.000462 -1.161816 1.581139 -1.581139 
C 1.161816 -2.000462 0.593012 -2.236068 0 -2.236068 
C -0.593012 -2.236068 -1.161816 -2.000462 -1.581139 -1.581139 
C -2.000462 -1.161816 -2.236068 -0.593012 -2.236068 0 
C -2.236068 0.593012 -2.000462 1.161816 -1.581139 1.581139 
C -1.161816 2.000462 -0.593012 2.236068 0 2.236068 
z
" style="stroke: #000000; stroke-width: 0.357771"/>
    </defs>
    <g clip-path="url(#p9560f84b4d)">
     <use xlink:href="#me4759392a5" x="263.145818" y="112.174654" style="fill: #adff2f; stroke: #000000; stroke-width: 0.357771"/>
     <use xlink:href="#me4759392a5" x="302.920052" y="127.157725" style="fill: #adff2f; stroke: #000000; stroke-width: 0.357771"/>
     <use xlink:href="#me4759392a5" x="240.840501" y="103.474602" style="fill: #adff2f; stroke: #000000; stroke-width: 0.357771"/>
     <use xlink:href="#me4759392a5" x="139.877113" y="165.487408" style="fill: #adff2f; stroke: #000000; stroke-width: 0.357771"/>
     <use xlink:href="#me4759392a5" x="337.134675" y="91.581492" style="fill: #adff2f; stroke: #000000; stroke-width: 0.357771"/>
     <use xlink:href="#me4759392a5" x="259.520107" y="67.473282" style="fill: #adff2f; stroke: #000000; stroke-width: 0.357771"/>
     <use xlink:href="#me4759392a5" x="305.618122" y="82.410388" style="fill: #adff2f; stroke: #000000; stroke-width: 0.357771"/>
     <use xlink:href="#me4759392a5" x="265.457916" y="112.956323" style="fill: #adff2f; stroke: #000000; stroke-width: 0.357771"/>
     <use xlink:href="#me4759392a5" x="299.169623" y="38.302738" style="fill: #adff2f; stroke: #000000; stroke-width: 0.357771"/>
     <use xlink:href="#me4759392a5" x="174.031909" y="100.873675" style="fill: #adff2f; stroke: #000000; stroke-width: 0.357771"/>
     <use xlink:href="#me4759392a5" x="255.265896" y="57.955511" style="fill: #adff2f; stroke: #000000; stroke-width: 0.357771"/>
     <use xlink:href="#me4759392a5" x="303.933093" y="143.812779" style="fill: #adff2f; stroke: #000000; stroke-width: 0.357771"/>
     <use xlink:href="#me4759392a5" x="254.018628" y="132.288657" style="fill: #adff2f; stroke: #000000; stroke-width: 0.357771"/>
     <use xlink:href="#me4759392a5" x="198.491743" y="158.228187" style="fill: #adff2f; stroke: #000000; stroke-width: 0.357771"/>
     <use xlink:href="#me4759392a5" x="261.179527" y="97.517497" style="fill: #adff2f; stroke: #000000; stroke-width: 0.357771"/>
     <use xlink:href="#me4759392a5" x="354.653159" y="45.681708" style="fill: #adff2f; stroke: #000000; stroke-width: 0.357771"/>
     <use xlink:href="#me4759392a5" x="258.914975" y="130.988794" style="fill: #adff2f; stroke: #000000; stroke-width: 0.357771"/>
     <use xlink:href="#me4759392a5" x="325.414101" y="135.352798" style="fill: #adff2f; stroke: #000000; stroke-width: 0.357771"/>
     <use xlink:href="#me4759392a5" x="316.974094" y="81.660188" style="fill: #adff2f; stroke: #000000; stroke-width: 0.357771"/>
     <use xlink:href="#me4759392a5" x="321.243479" y="140.365669" style="fill: #adff2f; stroke: #000000; stroke-width: 0.357771"/>
     <use xlink:href="#me4759392a5" x="217.206224" y="125.450963" style="fill: #adff2f; stroke: #000000; stroke-width: 0.357771"/>
     <use xlink:href="#me4759392a5" x="207.766909" y="129.308597" style="fill: #adff2f; stroke: #000000; stroke-width: 0.357771"/>
     <use xlink:href="#me4759392a5" x="368.377192" y="69.60332" style="fill: #adff2f; stroke: #000000; stroke-width: 0.357771"/>
     <use xlink:href="#me4759392a5" x="164.700417" y="135.839795" style="fill: #adff2f; stroke: #000000; stroke-width: 0.357771"/>
     <use xlink:href="#me4759392a5" x="156.737961" y="143.416175" style="fill: #adff2f; stroke: #000000; stroke-width: 0.357771"/>
     <use xlink:href="#me4759392a5" x="130.422976" y="183.57264" style="fill: #adff2f; stroke: #000000; stroke-width: 0.357771"/>
     <use xlink:href="#me4759392a5" x="160.767523" y="158.953425" style="fill: #adff2f; stroke: #000000; stroke-width: 0.357771"/>
     <use xlink:href="#me4759392a5" x="214.197555" y="158.064206" style="fill: #adff2f; stroke: #000000; stroke-width: 0.357771"/>
     <use xlink:href="#me4759392a5" x="163.505378" y="40.787042" style="fill: #adff2f; stroke: #000000; stroke-width: 0.357771"/>
     <use xlink:href="#me4759392a5" x="242.265664" y="143.839032" style="fill: #adff2f; stroke: #000000; stroke-width: 0.357771"/>
     <use xlink:href="#me4759392a5" x="164.77254" y="109.531865" style="fill: #adff2f; stroke: #000000; stroke-width: 0.357771"/>
     <use xlink:href="#me4759392a5" x="137.442623" y="105.626768" style="fill: #adff2f; stroke: #000000; stroke-width: 0.357771"/>
     <use xlink:href="#me4759392a5" x="332.447033" y="153.393554" style="fill: #adff2f; stroke: #000000; stroke-width: 0.357771"/>
     <use xlink:href="#me4759392a5" x="336.035955" y="174.707583" style="fill: #adff2f; stroke: #000000; stroke-width: 0.357771"/>
     <use xlink:href="#me4759392a5" x="287.400456" y="71.432016" style="fill: #adff2f; stroke: #000000; stroke-width: 0.357771"/>
     <use xlink:href="#me4759392a5" x="357.040206" y="70.84325" style="fill: #adff2f; stroke: #000000; stroke-width: 0.357771"/>
     <use xlink:href="#me4759392a5" x="113.112389" y="162.710758" style="fill: #adff2f; stroke: #000000; stroke-width: 0.357771"/>
     <use xlink:href="#me4759392a5" x="190.795522" y="142.549065" style="fill: #adff2f; stroke: #000000; stroke-width: 0.357771"/>
     <use xlink:href="#me4759392a5" x="296.820621" y="58.57362" style="fill: #adff2f; stroke: #000000; stroke-width: 0.357771"/>
     <use xlink:href="#me4759392a5" x="306.713924" y="38.492152" style="fill: #adff2f; stroke: #000000; stroke-width: 0.357771"/>
     <use xlink:href="#me4759392a5" x="351.61572" y="112.247296" style="fill: #adff2f; stroke: #000000; stroke-width: 0.357771"/>
     <use xlink:href="#me4759392a5" x="382.109474" y="104.85798" style="fill: #adff2f; stroke: #000000; stroke-width: 0.357771"/>
     <use xlink:href="#me4759392a5" x="215.176584" y="94.097735" style="fill: #adff2f; stroke: #000000; stroke-width: 0.357771"/>
     <use xlink:href="#me4759392a5" x="228.00366" y="108.316772" style="fill: #adff2f; stroke: #000000; stroke-width: 0.357771"/>
     <use xlink:href="#me4759392a5" x="211.142502" y="149.942665" style="fill: #adff2f; stroke: #000000; stroke-width: 0.357771"/>
     <use xlink:href="#me4759392a5" x="253.655524" y="91.750074" style="fill: #adff2f; stroke: #000000; stroke-width: 0.357771"/>
     <use xlink:href="#me4759392a5" x="255.442235" y="171.982318" style="fill: #adff2f; stroke: #000000; stroke-width: 0.357771"/>
     <use xlink:href="#me4759392a5" x="303.803707" y="102.304457" style="fill: #adff2f; stroke: #000000; stroke-width: 0.357771"/>
     <use xlink:href="#me4759392a5" x="157.333403" y="55.659472" style="fill: #adff2f; stroke: #000000; stroke-width: 0.357771"/>
     <use xlink:href="#me4759392a5" x="313.631116" y="91.195215" style="fill: #adff2f; stroke: #000000; stroke-width: 0.357771"/>
     <use xlink:href="#me4759392a5" x="99.161678" y="71.837332" style="fill: #adff2f; stroke: #000000; stroke-width: 0.357771"/>
     <use xlink:href="#me4759392a5" x="166.022477" y="76.688696" style="fill: #adff2f; stroke: #000000; stroke-width: 0.357771"/>
     <use xlink:href="#me4759392a5" x="322.676856" y="150.317572" style="fill: #adff2f; stroke: #000000; stroke-width: 0.357771"/>
     <use xlink:href="#me4759392a5" x="162.214404" y="73.385227" style="fill: #adff2f; stroke: #000000; stroke-width: 0.357771"/>
     <use xlink:href="#me4759392a5" x="167.547599" y="136.217806" style="fill: #adff2f; stroke: #000000; stroke-width: 0.357771"/>
     <use xlink:href="#me4759392a5" x="263.089259" y="111.273122" style="fill: #adff2f; stroke: #000000; stroke-width: 0.357771"/>
     <use xlink:href="#me4759392a5" x="233.510407" y="107.310256" style="fill: #adff2f; stroke: #000000; stroke-width: 0.357771"/>
     <use xlink:href="#me4759392a5" x="230.465248" y="97.66507" style="fill: #adff2f; stroke: #000000; stroke-width: 0.357771"/>
     <use xlink:href="#me4759392a5" x="252.262943" y="131.705228" style="fill: #adff2f; stroke: #000000; stroke-width: 0.357771"/>
     <use xlink:href="#me4759392a5" x="320.954524" y="150.016272" style="fill: #adff2f; stroke: #000000; stroke-width: 0.357771"/>
     <use xlink:href="#me4759392a5" x="268.587221" y="32.201761" style="fill: #adff2f; stroke: #000000; stroke-width: 0.357771"/>
     <use xlink:href="#me4759392a5" x="194.403448" y="55.604111" style="fill: #adff2f; stroke: #000000; stroke-width: 0.357771"/>
     <use xlink:href="#me4759392a5" x="128.387079" y="172.187694" style="fill: #adff2f; stroke: #000000; stroke-width: 0.357771"/>
     <use xlink:href="#me4759392a5" x="77.745838" y="143.435725" style="fill: #adff2f; stroke: #000000; stroke-width: 0.357771"/>
     <use xlink:href="#me4759392a5" x="227.456086" y="86.186867" style="fill: #adff2f; stroke: #000000; stroke-width: 0.357771"/>
     <use xlink:href="#me4759392a5" x="235.494952" y="84.583539" style="fill: #adff2f; stroke: #000000; stroke-width: 0.357771"/>
     <use xlink:href="#me4759392a5" x="272.386936" y="73.790115" style="fill: #adff2f; stroke: #000000; stroke-width: 0.357771"/>
     <use xlink:href="#me4759392a5" x="203.887571" y="82.229686" style="fill: #adff2f; stroke: #000000; stroke-width: 0.357771"/>
     <use xlink:href="#me4759392a5" x="283.011219" y="68.178785" style="fill: #adff2f; stroke: #000000; stroke-width: 0.357771"/>
     <use xlink:href="#me4759392a5" x="275.385414" y="182.569926" style="fill: #adff2f; stroke: #000000; stroke-width: 0.357771"/>
     <use xlink:href="#me4759392a5" x="321.092662" y="138.478697" style="fill: #adff2f; stroke: #000000; stroke-width: 0.357771"/>
     <use xlink:href="#me4759392a5" x="128.082501" y="50.224389" style="fill: #adff2f; stroke: #000000; stroke-width: 0.357771"/>
     <use xlink:href="#me4759392a5" x="310.223419" y="75.536034" style="fill: #adff2f; stroke: #000000; stroke-width: 0.357771"/>
     <use xlink:href="#me4759392a5" x="144.072232" y="149.454838" style="fill: #adff2f; stroke: #000000; stroke-width: 0.357771"/>
     <use xlink:href="#me4759392a5" x="292.386581" y="113.720686" style="fill: #adff2f; stroke: #000000; stroke-width: 0.357771"/>
     <use xlink:href="#me4759392a5" x="235.1261" y="103.858608" style="fill: #adff2f; stroke: #000000; stroke-width: 0.357771"/>
     <use xlink:href="#me4759392a5" x="162.398722" y="142.653089" style="fill: #adff2f; stroke: #000000; stroke-width: 0.357771"/>
     <use xlink:href="#me4759392a5" x="380.721324" y="113.735001" style="fill: #adff2f; stroke: #000000; stroke-width: 0.357771"/>
     <use xlink:href="#me4759392a5" x="237.596267" y="167.832942" style="fill: #adff2f; stroke: #000000; stroke-width: 0.357771"/>
     <use xlink:href="#me4759392a5" x="192.841766" y="229.874489" style="fill: #adff2f; stroke: #000000; stroke-width: 0.357771"/>
     <use xlink:href="#me4759392a5" x="221.668366" y="156.769096" style="fill: #adff2f; stroke: #000000; stroke-width: 0.357771"/>
     <use xlink:href="#me4759392a5" x="282.556477" y="184.161898" style="fill: #adff2f; stroke: #000000; stroke-width: 0.357771"/>
     <use xlink:href="#me4759392a5" x="116.685216" y="99.961628" style="fill: #adff2f; stroke: #000000; stroke-width: 0.357771"/>
     <use xlink:href="#me4759392a5" x="158.065285" y="189.08428" style="fill: #adff2f; stroke: #000000; stroke-width: 0.357771"/>
     <use xlink:href="#me4759392a5" x="269.624813" y="70.053234" style="fill: #adff2f; stroke: #000000; stroke-width: 0.357771"/>
     <use xlink:href="#me4759392a5" x="314.599202" y="164.909533" style="fill: #adff2f; stroke: #000000; stroke-width: 0.357771"/>
     <use xlink:href="#me4759392a5" x="303.32889" y="80.607256" style="fill: #adff2f; stroke: #000000; stroke-width: 0.357771"/>
     <use xlink:href="#me4759392a5" x="271.131541" y="98.055117" style="fill: #adff2f; stroke: #000000; stroke-width: 0.357771"/>
     <use xlink:href="#me4759392a5" x="264.399979" y="44.912746" style="fill: #adff2f; stroke: #000000; stroke-width: 0.357771"/>
     <use xlink:href="#me4759392a5" x="210.806593" y="127.450934" style="fill: #adff2f; stroke: #000000; stroke-width: 0.357771"/>
     <use xlink:href="#me4759392a5" x="370.792286" y="106.485044" style="fill: #adff2f; stroke: #000000; stroke-width: 0.357771"/>
     <use xlink:href="#me4759392a5" x="205.382191" y="64.041116" style="fill: #adff2f; stroke: #000000; stroke-width: 0.357771"/>
     <use xlink:href="#me4759392a5" x="255.450706" y="111.214922" style="fill: #adff2f; stroke: #000000; stroke-width: 0.357771"/>
     <use xlink:href="#me4759392a5" x="270.682361" y="81.150848" style="fill: #adff2f; stroke: #000000; stroke-width: 0.357771"/>
     <use xlink:href="#me4759392a5" x="219.083675" y="125.509006" style="fill: #adff2f; stroke: #000000; stroke-width: 0.357771"/>
     <use xlink:href="#me4759392a5" x="257.108949" y="136.238221" style="fill: #adff2f; stroke: #000000; stroke-width: 0.357771"/>
     <use xlink:href="#me4759392a5" x="183.66575" y="162.187976" style="fill: #adff2f; stroke: #000000; stroke-width: 0.357771"/>
     <use xlink:href="#me4759392a5" x="183.569988" y="178.52998" style="fill: #adff2f; stroke: #000000; stroke-width: 0.357771"/>
     <use xlink:href="#me4759392a5" x="308.403704" y="155.26485" style="fill: #adff2f; stroke: #000000; stroke-width: 0.357771"/>
     <use xlink:href="#me4759392a5" x="194.546672" y="107.094322" style="fill: #adff2f; stroke: #000000; stroke-width: 0.357771"/>
    </g>
   </g>
   <g id="line2d_14">
    <path d="M 263.145818 111.779114 
L 302.920052 107.350337 
L 240.840501 114.262764 
L 139.877113 125.504824 
L 337.134675 103.540611 
L 259.520107 112.182829 
L 305.618122 107.049912 
L 265.457916 111.521667 
L 299.169623 107.767939 
L 174.031909 121.701759 
L 255.265896 112.656526 
L 303.933093 107.237537 
L 254.018628 112.795407 
L 198.491743 118.978208 
L 261.179527 111.998056 
L 354.653159 101.589965 
L 258.914975 112.250209 
L 325.414101 104.845672 
L 316.974094 105.785449 
L 321.243479 105.310062 
L 217.206224 116.89439 
L 207.766909 117.945438 
L 368.377192 100.061823 
L 164.700417 122.740801 
L 156.737961 123.627404 
L 130.422976 126.557522 
L 160.767523 123.178721 
L 214.197555 117.229399 
L 163.505378 122.873866 
L 242.265664 114.104075 
L 164.77254 122.73277 
L 137.442623 125.775899 
L 332.447033 104.06257 
L 336.035955 103.662951 
L 287.400456 109.078411 
L 357.040206 101.324172 
L 113.112389 128.485019 
L 190.795522 119.835166 
L 296.820621 108.029496 
L 306.713924 106.927897 
L 351.61572 101.928177 
L 382.109474 98.532762 
L 215.176584 117.120387 
L 228.00366 115.692119 
L 211.142502 117.569573 
L 253.655524 112.835838 
L 255.442235 112.636891 
L 303.803707 107.251944 
L 157.333403 123.561103 
L 313.631116 106.157682 
L 99.161678 130.038401 
L 166.022477 122.593593 
L 322.676856 105.150458 
L 162.214404 123.017613 
L 167.547599 122.423773 
L 263.089259 111.785411 
L 233.510407 115.078954 
L 230.465248 115.418026 
L 252.262943 112.990899 
L 320.954524 105.342236 
L 268.587221 111.173225 
L 194.403448 119.433431 
L 128.387079 126.784215 
L 77.745838 132.42301 
L 227.456086 115.75309 
L 235.494952 114.857979 
L 272.386936 110.750135 
L 203.887571 118.377394 
L 283.011219 109.567143 
L 275.385414 110.416261 
L 321.092662 105.326855 
L 128.082501 126.818129 
L 310.223419 106.537122 
L 144.072232 125.037706 
L 292.386581 108.523216 
L 235.1261 114.89905 
L 162.398722 122.99709 
L 380.721324 98.68733 
L 237.596267 114.624002 
L 192.841766 119.607321 
L 221.668366 116.39754 
L 282.556477 109.617778 
L 116.685216 128.087192 
L 158.065285 123.479609 
L 269.624813 111.057691 
L 314.599202 106.049888 
L 303.32889 107.304814 
L 271.131541 110.88992 
L 264.399979 111.639465 
L 210.806593 117.606976 
L 370.792286 99.792907 
L 205.382191 118.210972 
L 255.450706 112.635948 
L 270.682361 110.939936 
L 219.083675 116.68534 
L 257.108949 112.451306 
L 183.66575 120.629051 
L 183.569988 120.639714 
L 308.403704 106.739744 
L 194.546672 119.417484 
" clip-path="url(#p9560f84b4d)" style="fill: none; stroke: #008000; stroke-width: 0.5; stroke-linecap: round"/>
   </g>
   <g id="line2d_15">
    <path d="M 263.145818 114.632714 
L 302.920052 111.210521 
L 240.840501 116.551873 
L 139.877113 125.238809 
L 337.134675 108.266679 
L 259.520107 114.944672 
L 305.618122 110.978378 
L 265.457916 114.43378 
L 299.169623 111.533209 
L 174.031909 122.300116 
L 255.265896 115.310706 
L 303.933093 111.123358 
L 254.018628 115.418021 
L 198.491743 120.19558 
L 261.179527 114.801894 
L 354.653159 106.75938 
L 258.914975 114.996738 
L 325.414101 109.275123 
L 316.974094 110.001305 
L 321.243479 109.633964 
L 217.206224 118.585378 
L 207.766909 119.397541 
L 368.377192 105.578559 
L 164.700417 123.103001 
L 156.737961 123.788094 
L 130.422976 126.052248 
L 160.767523 123.441389 
L 214.197555 118.844245 
L 163.505378 123.205823 
L 242.265664 116.429252 
L 164.77254 123.096795 
L 137.442623 125.448275 
L 332.447033 108.670007 
L 336.035955 108.361213 
L 287.400456 112.545834 
L 357.040206 106.553998 
L 113.112389 127.541658 
L 190.795522 120.857767 
L 296.820621 111.735318 
L 306.713924 110.884094 
L 351.61572 107.020724 
L 382.109474 104.397026 
L 215.176584 118.760009 
L 228.00366 117.656361 
L 211.142502 119.107103 
L 253.655524 115.449263 
L 255.442235 115.295534 
L 303.803707 111.134491 
L 157.333403 123.736863 
L 313.631116 110.288936 
L 99.161678 128.741984 
L 166.022477 122.989251 
L 322.676856 109.510637 
L 162.214404 123.316899 
L 167.547599 122.858028 
L 263.089259 114.63758 
L 233.510407 117.182558 
L 230.465248 117.444565 
L 252.262943 115.569081 
L 320.954524 109.658827 
L 268.587221 114.164533 
L 194.403448 120.547339 
L 128.387079 126.227416 
L 77.745838 130.584612 
L 227.456086 117.703475 
L 235.494952 117.011807 
L 272.386936 113.837604 
L 203.887571 119.73132 
L 283.011219 112.923486 
L 275.385414 113.579614 
L 321.092662 109.646941 
L 128.082501 126.253623 
L 310.223419 110.582136 
L 144.072232 124.877859 
L 292.386581 112.116825 
L 235.1261 117.043543 
L 162.398722 123.30104 
L 380.721324 104.516463 
L 237.596267 116.831009 
L 192.841766 120.681706 
L 221.668366 118.201453 
L 282.556477 112.962612 
L 116.685216 127.234251 
L 158.065285 123.673891 
L 269.624813 114.075258 
L 314.599202 110.205641 
L 303.32889 111.175344 
L 271.131541 113.945619 
L 264.399979 114.524805 
L 210.806593 119.136005 
L 370.792286 105.370763 
L 205.382191 119.602722 
L 255.450706 115.294805 
L 270.682361 113.984266 
L 219.083675 118.423841 
L 257.108949 115.152129 
L 183.66575 121.471216 
L 183.569988 121.479455 
L 308.403704 110.738705 
L 194.546672 120.535016 
" clip-path="url(#p9560f84b4d)" style="fill: none; stroke: #0000ff; stroke-width: 0.5; stroke-linecap: round"/>
   </g>
   <g id="line2d_16">
    <path d="M 263.145818 111.882914 
L 302.920052 107.659992 
L 240.840501 114.251122 
L 139.877113 124.970638 
L 337.134675 104.027346 
L 259.520107 112.267865 
L 305.618122 107.373532 
L 265.457916 111.637434 
L 299.169623 108.058184 
L 174.031909 121.344344 
L 255.265896 112.719544 
L 303.933093 107.552435 
L 254.018628 112.851969 
L 198.491743 118.747387 
L 261.179527 112.09168 
L 354.653159 102.167368 
L 258.914975 112.332113 
L 325.414101 105.271747 
L 316.974094 106.167842 
L 321.243479 105.714551 
L 217.206224 116.760427 
L 207.766909 117.762621 
L 368.377192 100.710256 
L 164.700417 122.33509 
L 156.737961 123.180483 
L 130.422976 125.974406 
L 160.767523 122.752655 
L 214.197555 117.079865 
L 163.505378 122.461971 
L 242.265664 114.099809 
L 164.77254 122.327433 
L 137.442623 125.229114 
L 332.447033 104.525044 
L 336.035955 104.144 
L 287.400456 109.307743 
L 357.040206 101.91393 
L 113.112389 127.812311 
L 190.795522 119.564513 
L 296.820621 108.307583 
L 306.713924 107.257188 
L 351.61572 102.48986 
L 382.109474 99.252268 
L 215.176584 116.975919 
L 228.00366 115.614039 
L 211.142502 117.404227 
L 253.655524 112.890521 
L 255.442235 112.700822 
L 303.803707 107.566172 
L 157.333403 123.117263 
L 313.631116 106.522773 
L 99.161678 129.29349 
L 166.022477 122.194724 
L 322.676856 105.562366 
L 162.214404 122.599036 
L 167.547599 122.032799 
L 263.089259 111.888919 
L 233.510407 115.029375 
L 230.465248 115.352686 
L 252.262943 113.038374 
L 320.954524 105.74523 
L 268.587221 111.305188 
L 194.403448 119.181451 
L 128.387079 126.190562 
L 77.745838 131.567259 
L 227.456086 115.672176 
L 235.494952 114.818671 
L 272.386936 110.901764 
L 203.887571 118.1745 
L 283.011219 109.773759 
L 275.385414 110.583408 
L 321.092662 105.730564 
L 128.082501 126.222899 
L 310.223419 106.884577 
L 144.072232 124.525233 
L 292.386581 108.778355 
L 235.1261 114.857833 
L 162.398722 122.579467 
L 380.721324 99.399651 
L 237.596267 114.595569 
L 192.841766 119.347258 
L 221.668366 116.286672 
L 282.556477 109.82204 
L 116.685216 127.432975 
L 158.065285 123.039558 
L 269.624813 111.195025 
L 314.599202 106.41999 
L 303.32889 107.616585 
L 271.131541 111.035052 
L 264.399979 111.749757 
L 210.806593 117.439891 
L 370.792286 100.45384 
L 205.382191 118.015812 
L 255.450706 112.699922 
L 270.682361 111.082742 
L 219.083675 116.561094 
L 257.108949 112.523863 
L 183.66575 120.321497 
L 183.569988 120.331665 
L 308.403704 107.07778 
L 194.546672 119.166245 
" clip-path="url(#p9560f84b4d)" style="fill: none; stroke: #00ffff; stroke-width: 0.5; stroke-linecap: round"/>
   </g>
   <g id="line2d_17">
    <path d="M 263.145818 113.424091 
L 302.920052 112.257583 
L 240.840501 114.078266 
L 139.877113 117.039344 
L 337.134675 111.254128 
L 259.520107 113.530426 
L 305.618122 112.178453 
L 265.457916 113.356281 
L 299.169623 112.367576 
L 174.031909 116.037644 
L 255.265896 113.655195 
L 303.933093 112.227872 
L 254.018628 113.691775 
L 198.491743 115.320281 
L 261.179527 113.481759 
L 354.653159 110.740342 
L 258.914975 113.548174 
L 325.414101 111.597872 
L 316.974094 111.845402 
L 321.243479 111.720189 
L 217.206224 114.771418 
L 207.766909 115.048256 
L 368.377192 110.33784 
L 164.700417 116.311321 
L 156.737961 116.544845 
L 130.422976 117.316617 
L 160.767523 116.426665 
L 214.197555 114.859657 
L 163.505378 116.346369 
L 242.265664 114.036469 
L 164.77254 116.309205 
L 137.442623 117.110744 
L 332.447033 111.391608 
L 336.035955 111.286352 
L 287.400456 112.712745 
L 357.040206 110.670334 
L 113.112389 117.824306 
L 190.795522 115.545997 
L 296.820621 112.436468 
L 306.713924 112.146315 
L 351.61572 110.829425 
L 382.109474 109.935097 
L 215.176584 114.830944 
L 228.00366 114.454748 
L 211.142502 114.949256 
L 253.655524 113.702424 
L 255.442235 113.650023 
L 303.803707 112.231667 
L 157.333403 116.527382 
L 313.631116 111.943446 
L 99.161678 118.233456 
L 166.022477 116.272547 
L 322.676856 111.67815 
L 162.214404 116.384231 
L 167.547599 116.227818 
L 263.089259 113.42575 
L 233.510407 114.293245 
L 230.465248 114.382554 
L 252.262943 113.743266 
L 320.954524 111.728663 
L 268.587221 113.264504 
L 194.403448 115.440183 
L 128.387079 117.376327 
L 77.745838 118.861545 
L 227.456086 114.470808 
L 235.494952 114.235042 
L 272.386936 113.153065 
L 203.887571 115.162031 
L 283.011219 112.841474 
L 275.385414 113.065125 
L 321.092662 111.724612 
L 128.082501 117.385259 
L 310.223419 112.043388 
L 144.072232 116.916309 
L 292.386581 112.566511 
L 235.1261 114.24586 
L 162.398722 116.378825 
L 380.721324 109.975809 
L 237.596267 114.173414 
L 192.841766 115.485984 
L 221.668366 114.640551 
L 282.556477 112.85481 
L 116.685216 117.719522 
L 158.065285 116.505917 
L 269.624813 113.234073 
L 314.599202 111.915054 
L 303.32889 112.245592 
L 271.131541 113.189884 
L 264.399979 113.387308 
L 210.806593 114.959108 
L 370.792286 110.26701 
L 205.382191 115.118196 
L 255.450706 113.649775 
L 270.682361 113.203057 
L 219.083675 114.716356 
L 257.108949 113.601141 
L 183.66575 115.755101 
L 183.569988 115.757909 
L 308.403704 112.096757 
L 194.546672 115.435983 
" clip-path="url(#p9560f84b4d)" style="fill: none; stroke: #ffff00; stroke-width: 0.5; stroke-linecap: round"/>
   </g>
   <g id="patch_3">
    <path d="M 62.527656 239.758125 
L 62.527656 22.318125 
" style="fill: none; stroke: #ffffff; stroke-width: 1.25; stroke-linejoin: miter; stroke-linecap: square"/>
   </g>
   <g id="patch_4">
    <path d="M 397.327656 239.758125 
L 397.327656 22.318125 
" style="fill: none; stroke: #ffffff; stroke-width: 1.25; stroke-linejoin: miter; stroke-linecap: square"/>
   </g>
   <g id="patch_5">
    <path d="M 62.527656 239.758125 
L 397.327656 239.758125 
" style="fill: none; stroke: #ffffff; stroke-width: 1.25; stroke-linejoin: miter; stroke-linecap: square"/>
   </g>
   <g id="patch_6">
    <path d="M 62.527656 22.318125 
L 397.327656 22.318125 
" style="fill: none; stroke: #ffffff; stroke-width: 1.25; stroke-linejoin: miter; stroke-linecap: square"/>
   </g>
   <g id="text_16">
    <!-- Comparison of Linear Regressions -->
    <g style="fill: #262626" transform="translate(127.910781 16.318125)scale(0.12 -0.12)">
     <defs>
      <path id="DejaVuSans-43" d="M 4122 4306 
L 4122 3641 
Q 3803 3938 3442 4084 
Q 3081 4231 2675 4231 
Q 1875 4231 1450 3742 
Q 1025 3253 1025 2328 
Q 1025 1406 1450 917 
Q 1875 428 2675 428 
Q 3081 428 3442 575 
Q 3803 722 4122 1019 
L 4122 359 
Q 3791 134 3420 21 
Q 3050 -91 2638 -91 
Q 1578 -91 968 557 
Q 359 1206 359 2328 
Q 359 3453 968 4101 
Q 1578 4750 2638 4750 
Q 3056 4750 3426 4639 
Q 3797 4528 4122 4306 
z
" transform="scale(0.015625)"/>
      <path id="DejaVuSans-6f" d="M 1959 3097 
Q 1497 3097 1228 2736 
Q 959 2375 959 1747 
Q 959 1119 1226 758 
Q 1494 397 1959 397 
Q 2419 397 2687 759 
Q 2956 1122 2956 1747 
Q 2956 2369 2687 2733 
Q 2419 3097 1959 3097 
z
M 1959 3584 
Q 2709 3584 3137 3096 
Q 3566 2609 3566 1747 
Q 3566 888 3137 398 
Q 2709 -91 1959 -91 
Q 1206 -91 779 398 
Q 353 888 353 1747 
Q 353 2609 779 3096 
Q 1206 3584 1959 3584 
z
" transform="scale(0.015625)"/>
      <path id="DejaVuSans-6d" d="M 3328 2828 
Q 3544 3216 3844 3400 
Q 4144 3584 4550 3584 
Q 5097 3584 5394 3201 
Q 5691 2819 5691 2113 
L 5691 0 
L 5113 0 
L 5113 2094 
Q 5113 2597 4934 2840 
Q 4756 3084 4391 3084 
Q 3944 3084 3684 2787 
Q 3425 2491 3425 1978 
L 3425 0 
L 2847 0 
L 2847 2094 
Q 2847 2600 2669 2842 
Q 2491 3084 2119 3084 
Q 1678 3084 1418 2786 
Q 1159 2488 1159 1978 
L 1159 0 
L 581 0 
L 581 3500 
L 1159 3500 
L 1159 2956 
Q 1356 3278 1631 3431 
Q 1906 3584 2284 3584 
Q 2666 3584 2933 3390 
Q 3200 3197 3328 2828 
z
" transform="scale(0.015625)"/>
      <path id="DejaVuSans-70" d="M 1159 525 
L 1159 -1331 
L 581 -1331 
L 581 3500 
L 1159 3500 
L 1159 2969 
Q 1341 3281 1617 3432 
Q 1894 3584 2278 3584 
Q 2916 3584 3314 3078 
Q 3713 2572 3713 1747 
Q 3713 922 3314 415 
Q 2916 -91 2278 -91 
Q 1894 -91 1617 61 
Q 1341 213 1159 525 
z
M 3116 1747 
Q 3116 2381 2855 2742 
Q 2594 3103 2138 3103 
Q 1681 3103 1420 2742 
Q 1159 2381 1159 1747 
Q 1159 1113 1420 752 
Q 1681 391 2138 391 
Q 2594 391 2855 752 
Q 3116 1113 3116 1747 
z
" transform="scale(0.015625)"/>
      <path id="DejaVuSans-61" d="M 2194 1759 
Q 1497 1759 1228 1600 
Q 959 1441 959 1056 
Q 959 750 1161 570 
Q 1363 391 1709 391 
Q 2188 391 2477 730 
Q 2766 1069 2766 1631 
L 2766 1759 
L 2194 1759 
z
M 3341 1997 
L 3341 0 
L 2766 0 
L 2766 531 
Q 2569 213 2275 61 
Q 1981 -91 1556 -91 
Q 1019 -91 701 211 
Q 384 513 384 1019 
Q 384 1609 779 1909 
Q 1175 2209 1959 2209 
L 2766 2209 
L 2766 2266 
Q 2766 2663 2505 2880 
Q 2244 3097 1772 3097 
Q 1472 3097 1187 3025 
Q 903 2953 641 2809 
L 641 3341 
Q 956 3463 1253 3523 
Q 1550 3584 1831 3584 
Q 2591 3584 2966 3190 
Q 3341 2797 3341 1997 
z
" transform="scale(0.015625)"/>
      <path id="DejaVuSans-72" d="M 2631 2963 
Q 2534 3019 2420 3045 
Q 2306 3072 2169 3072 
Q 1681 3072 1420 2755 
Q 1159 2438 1159 1844 
L 1159 0 
L 581 0 
L 581 3500 
L 1159 3500 
L 1159 2956 
Q 1341 3275 1631 3429 
Q 1922 3584 2338 3584 
Q 2397 3584 2469 3576 
Q 2541 3569 2628 3553 
L 2631 2963 
z
" transform="scale(0.015625)"/>
      <path id="DejaVuSans-69" d="M 603 3500 
L 1178 3500 
L 1178 0 
L 603 0 
L 603 3500 
z
M 603 4863 
L 1178 4863 
L 1178 4134 
L 603 4134 
L 603 4863 
z
" transform="scale(0.015625)"/>
      <path id="DejaVuSans-73" d="M 2834 3397 
L 2834 2853 
Q 2591 2978 2328 3040 
Q 2066 3103 1784 3103 
Q 1356 3103 1142 2972 
Q 928 2841 928 2578 
Q 928 2378 1081 2264 
Q 1234 2150 1697 2047 
L 1894 2003 
Q 2506 1872 2764 1633 
Q 3022 1394 3022 966 
Q 3022 478 2636 193 
Q 2250 -91 1575 -91 
Q 1294 -91 989 -36 
Q 684 19 347 128 
L 347 722 
Q 666 556 975 473 
Q 1284 391 1588 391 
Q 1994 391 2212 530 
Q 2431 669 2431 922 
Q 2431 1156 2273 1281 
Q 2116 1406 1581 1522 
L 1381 1569 
Q 847 1681 609 1914 
Q 372 2147 372 2553 
Q 372 3047 722 3315 
Q 1072 3584 1716 3584 
Q 2034 3584 2315 3537 
Q 2597 3491 2834 3397 
z
" transform="scale(0.015625)"/>
      <path id="DejaVuSans-6e" d="M 3513 2113 
L 3513 0 
L 2938 0 
L 2938 2094 
Q 2938 2591 2744 2837 
Q 2550 3084 2163 3084 
Q 1697 3084 1428 2787 
Q 1159 2491 1159 1978 
L 1159 0 
L 581 0 
L 581 3500 
L 1159 3500 
L 1159 2956 
Q 1366 3272 1645 3428 
Q 1925 3584 2291 3584 
Q 2894 3584 3203 3211 
Q 3513 2838 3513 2113 
z
" transform="scale(0.015625)"/>
      <path id="DejaVuSans-20" transform="scale(0.015625)"/>
      <path id="DejaVuSans-66" d="M 2375 4863 
L 2375 4384 
L 1825 4384 
Q 1516 4384 1395 4259 
Q 1275 4134 1275 3809 
L 1275 3500 
L 2222 3500 
L 2222 3053 
L 1275 3053 
L 1275 0 
L 697 0 
L 697 3053 
L 147 3053 
L 147 3500 
L 697 3500 
L 697 3744 
Q 697 4328 969 4595 
Q 1241 4863 1831 4863 
L 2375 4863 
z
" transform="scale(0.015625)"/>
      <path id="DejaVuSans-4c" d="M 628 4666 
L 1259 4666 
L 1259 531 
L 3531 531 
L 3531 0 
L 628 0 
L 628 4666 
z
" transform="scale(0.015625)"/>
      <path id="DejaVuSans-65" d="M 3597 1894 
L 3597 1613 
L 953 1613 
Q 991 1019 1311 708 
Q 1631 397 2203 397 
Q 2534 397 2845 478 
Q 3156 559 3463 722 
L 3463 178 
Q 3153 47 2828 -22 
Q 2503 -91 2169 -91 
Q 1331 -91 842 396 
Q 353 884 353 1716 
Q 353 2575 817 3079 
Q 1281 3584 2069 3584 
Q 2775 3584 3186 3129 
Q 3597 2675 3597 1894 
z
M 3022 2063 
Q 3016 2534 2758 2815 
Q 2500 3097 2075 3097 
Q 1594 3097 1305 2825 
Q 1016 2553 972 2059 
L 3022 2063 
z
" transform="scale(0.015625)"/>
      <path id="DejaVuSans-52" d="M 2841 2188 
Q 3044 2119 3236 1894 
Q 3428 1669 3622 1275 
L 4263 0 
L 3584 0 
L 2988 1197 
Q 2756 1666 2539 1819 
Q 2322 1972 1947 1972 
L 1259 1972 
L 1259 0 
L 628 0 
L 628 4666 
L 2053 4666 
Q 2853 4666 3247 4331 
Q 3641 3997 3641 3322 
Q 3641 2881 3436 2590 
Q 3231 2300 2841 2188 
z
M 1259 4147 
L 1259 2491 
L 2053 2491 
Q 2509 2491 2742 2702 
Q 2975 2913 2975 3322 
Q 2975 3731 2742 3939 
Q 2509 4147 2053 4147 
L 1259 4147 
z
" transform="scale(0.015625)"/>
      <path id="DejaVuSans-67" d="M 2906 1791 
Q 2906 2416 2648 2759 
Q 2391 3103 1925 3103 
Q 1463 3103 1205 2759 
Q 947 2416 947 1791 
Q 947 1169 1205 825 
Q 1463 481 1925 481 
Q 2391 481 2648 825 
Q 2906 1169 2906 1791 
z
M 3481 434 
Q 3481 -459 3084 -895 
Q 2688 -1331 1869 -1331 
Q 1566 -1331 1297 -1286 
Q 1028 -1241 775 -1147 
L 775 -588 
Q 1028 -725 1275 -790 
Q 1522 -856 1778 -856 
Q 2344 -856 2625 -561 
Q 2906 -266 2906 331 
L 2906 616 
Q 2728 306 2450 153 
Q 2172 0 1784 0 
Q 1141 0 747 490 
Q 353 981 353 1791 
Q 353 2603 747 3093 
Q 1141 3584 1784 3584 
Q 2172 3584 2450 3431 
Q 2728 3278 2906 2969 
L 2906 3500 
L 3481 3500 
L 3481 434 
z
" transform="scale(0.015625)"/>
     </defs>
     <use xlink:href="#DejaVuSans-43"/>
     <use xlink:href="#DejaVuSans-6f" x="69.824219"/>
     <use xlink:href="#DejaVuSans-6d" x="131.005859"/>
     <use xlink:href="#DejaVuSans-70" x="228.417969"/>
     <use xlink:href="#DejaVuSans-61" x="291.894531"/>
     <use xlink:href="#DejaVuSans-72" x="353.173828"/>
     <use xlink:href="#DejaVuSans-69" x="394.287109"/>
     <use xlink:href="#DejaVuSans-73" x="422.070312"/>
     <use xlink:href="#DejaVuSans-6f" x="474.169922"/>
     <use xlink:href="#DejaVuSans-6e" x="535.351562"/>
     <use xlink:href="#DejaVuSans-20" x="598.730469"/>
     <use xlink:href="#DejaVuSans-6f" x="630.517578"/>
     <use xlink:href="#DejaVuSans-66" x="691.699219"/>
     <use xlink:href="#DejaVuSans-20" x="726.904297"/>
     <use xlink:href="#DejaVuSans-4c" x="758.691406"/>
     <use xlink:href="#DejaVuSans-69" x="814.404297"/>
     <use xlink:href="#DejaVuSans-6e" x="842.1875"/>
     <use xlink:href="#DejaVuSans-65" x="905.566406"/>
     <use xlink:href="#DejaVuSans-61" x="967.089844"/>
     <use xlink:href="#DejaVuSans-72" x="1028.369141"/>
     <use xlink:href="#DejaVuSans-20" x="1069.482422"/>
     <use xlink:href="#DejaVuSans-52" x="1101.269531"/>
     <use xlink:href="#DejaVuSans-65" x="1166.251953"/>
     <use xlink:href="#DejaVuSans-67" x="1227.775391"/>
     <use xlink:href="#DejaVuSans-72" x="1291.251953"/>
     <use xlink:href="#DejaVuSans-65" x="1330.115234"/>
     <use xlink:href="#DejaVuSans-73" x="1391.638672"/>
     <use xlink:href="#DejaVuSans-73" x="1443.738281"/>
     <use xlink:href="#DejaVuSans-69" x="1495.837891"/>
     <use xlink:href="#DejaVuSans-6f" x="1523.621094"/>
     <use xlink:href="#DejaVuSans-6e" x="1584.802734"/>
     <use xlink:href="#DejaVuSans-73" x="1648.181641"/>
    </g>
   </g>
   <g id="legend_1">
    <g id="patch_7">
     <path d="M 244.636406 235.758125 
L 391.727656 235.758125 
Q 393.327656 235.758125 393.327656 234.158125 
L 393.327656 187.988125 
Q 393.327656 186.388125 391.727656 186.388125 
L 244.636406 186.388125 
Q 243.036406 186.388125 243.036406 187.988125 
L 243.036406 234.158125 
Q 243.036406 235.758125 244.636406 235.758125 
z
" style="fill: #eaeaf2; opacity: 0.8; stroke: #cccccc; stroke-linejoin: miter"/>
    </g>
    <g id="line2d_18">
     <path d="M 246.236406 192.866875 
L 254.236406 192.866875 
L 262.236406 192.866875 
" style="fill: none; stroke: #008000; stroke-width: 0.5; stroke-linecap: round"/>
    </g>
    <g id="text_17">
     <!-- NumPy [MSE = 1210.84] -->
     <g style="fill: #262626" transform="translate(268.636406 195.666875)scale(0.08 -0.08)">
      <defs>
       <path id="DejaVuSans-4e" d="M 628 4666 
L 1478 4666 
L 3547 763 
L 3547 4666 
L 4159 4666 
L 4159 0 
L 3309 0 
L 1241 3903 
L 1241 0 
L 628 0 
L 628 4666 
z
" transform="scale(0.015625)"/>
       <path id="DejaVuSans-75" d="M 544 1381 
L 544 3500 
L 1119 3500 
L 1119 1403 
Q 1119 906 1312 657 
Q 1506 409 1894 409 
Q 2359 409 2629 706 
Q 2900 1003 2900 1516 
L 2900 3500 
L 3475 3500 
L 3475 0 
L 2900 0 
L 2900 538 
Q 2691 219 2414 64 
Q 2138 -91 1772 -91 
Q 1169 -91 856 284 
Q 544 659 544 1381 
z
M 1991 3584 
L 1991 3584 
z
" transform="scale(0.015625)"/>
       <path id="DejaVuSans-50" d="M 1259 4147 
L 1259 2394 
L 2053 2394 
Q 2494 2394 2734 2622 
Q 2975 2850 2975 3272 
Q 2975 3691 2734 3919 
Q 2494 4147 2053 4147 
L 1259 4147 
z
M 628 4666 
L 2053 4666 
Q 2838 4666 3239 4311 
Q 3641 3956 3641 3272 
Q 3641 2581 3239 2228 
Q 2838 1875 2053 1875 
L 1259 1875 
L 1259 0 
L 628 0 
L 628 4666 
z
" transform="scale(0.015625)"/>
       <path id="DejaVuSans-5b" d="M 550 4863 
L 1875 4863 
L 1875 4416 
L 1125 4416 
L 1125 -397 
L 1875 -397 
L 1875 -844 
L 550 -844 
L 550 4863 
z
" transform="scale(0.015625)"/>
       <path id="DejaVuSans-4d" d="M 628 4666 
L 1569 4666 
L 2759 1491 
L 3956 4666 
L 4897 4666 
L 4897 0 
L 4281 0 
L 4281 4097 
L 3078 897 
L 2444 897 
L 1241 4097 
L 1241 0 
L 628 0 
L 628 4666 
z
" transform="scale(0.015625)"/>
       <path id="DejaVuSans-53" d="M 3425 4513 
L 3425 3897 
Q 3066 4069 2747 4153 
Q 2428 4238 2131 4238 
Q 1616 4238 1336 4038 
Q 1056 3838 1056 3469 
Q 1056 3159 1242 3001 
Q 1428 2844 1947 2747 
L 2328 2669 
Q 3034 2534 3370 2195 
Q 3706 1856 3706 1288 
Q 3706 609 3251 259 
Q 2797 -91 1919 -91 
Q 1588 -91 1214 -16 
Q 841 59 441 206 
L 441 856 
Q 825 641 1194 531 
Q 1563 422 1919 422 
Q 2459 422 2753 634 
Q 3047 847 3047 1241 
Q 3047 1584 2836 1778 
Q 2625 1972 2144 2069 
L 1759 2144 
Q 1053 2284 737 2584 
Q 422 2884 422 3419 
Q 422 4038 858 4394 
Q 1294 4750 2059 4750 
Q 2388 4750 2728 4690 
Q 3069 4631 3425 4513 
z
" transform="scale(0.015625)"/>
       <path id="DejaVuSans-45" d="M 628 4666 
L 3578 4666 
L 3578 4134 
L 1259 4134 
L 1259 2753 
L 3481 2753 
L 3481 2222 
L 1259 2222 
L 1259 531 
L 3634 531 
L 3634 0 
L 628 0 
L 628 4666 
z
" transform="scale(0.015625)"/>
       <path id="DejaVuSans-3d" d="M 678 2906 
L 4684 2906 
L 4684 2381 
L 678 2381 
L 678 2906 
z
M 678 1631 
L 4684 1631 
L 4684 1100 
L 678 1100 
L 678 1631 
z
" transform="scale(0.015625)"/>
       <path id="DejaVuSans-2e" d="M 684 794 
L 1344 794 
L 1344 0 
L 684 0 
L 684 794 
z
" transform="scale(0.015625)"/>
       <path id="DejaVuSans-38" d="M 2034 2216 
Q 1584 2216 1326 1975 
Q 1069 1734 1069 1313 
Q 1069 891 1326 650 
Q 1584 409 2034 409 
Q 2484 409 2743 651 
Q 3003 894 3003 1313 
Q 3003 1734 2745 1975 
Q 2488 2216 2034 2216 
z
M 1403 2484 
Q 997 2584 770 2862 
Q 544 3141 544 3541 
Q 544 4100 942 4425 
Q 1341 4750 2034 4750 
Q 2731 4750 3128 4425 
Q 3525 4100 3525 3541 
Q 3525 3141 3298 2862 
Q 3072 2584 2669 2484 
Q 3125 2378 3379 2068 
Q 3634 1759 3634 1313 
Q 3634 634 3220 271 
Q 2806 -91 2034 -91 
Q 1263 -91 848 271 
Q 434 634 434 1313 
Q 434 1759 690 2068 
Q 947 2378 1403 2484 
z
M 1172 3481 
Q 1172 3119 1398 2916 
Q 1625 2713 2034 2713 
Q 2441 2713 2670 2916 
Q 2900 3119 2900 3481 
Q 2900 3844 2670 4047 
Q 2441 4250 2034 4250 
Q 1625 4250 1398 4047 
Q 1172 3844 1172 3481 
z
" transform="scale(0.015625)"/>
       <path id="DejaVuSans-34" d="M 2419 4116 
L 825 1625 
L 2419 1625 
L 2419 4116 
z
M 2253 4666 
L 3047 4666 
L 3047 1625 
L 3713 1625 
L 3713 1100 
L 3047 1100 
L 3047 0 
L 2419 0 
L 2419 1100 
L 313 1100 
L 313 1709 
L 2253 4666 
z
" transform="scale(0.015625)"/>
       <path id="DejaVuSans-5d" d="M 1947 4863 
L 1947 -844 
L 622 -844 
L 622 -397 
L 1369 -397 
L 1369 4416 
L 622 4416 
L 622 4863 
L 1947 4863 
z
" transform="scale(0.015625)"/>
      </defs>
      <use xlink:href="#DejaVuSans-4e"/>
      <use xlink:href="#DejaVuSans-75" x="74.804688"/>
      <use xlink:href="#DejaVuSans-6d" x="138.183594"/>
      <use xlink:href="#DejaVuSans-50" x="235.595703"/>
      <use xlink:href="#DejaVuSans-79" x="295.898438"/>
      <use xlink:href="#DejaVuSans-20" x="355.078125"/>
      <use xlink:href="#DejaVuSans-5b" x="386.865234"/>
      <use xlink:href="#DejaVuSans-4d" x="425.878906"/>
      <use xlink:href="#DejaVuSans-53" x="512.158203"/>
      <use xlink:href="#DejaVuSans-45" x="575.634766"/>
      <use xlink:href="#DejaVuSans-20" x="638.818359"/>
      <use xlink:href="#DejaVuSans-3d" x="670.605469"/>
      <use xlink:href="#DejaVuSans-20" x="754.394531"/>
      <use xlink:href="#DejaVuSans-31" x="786.181641"/>
      <use xlink:href="#DejaVuSans-32" x="849.804688"/>
      <use xlink:href="#DejaVuSans-31" x="913.427734"/>
      <use xlink:href="#DejaVuSans-30" x="977.050781"/>
      <use xlink:href="#DejaVuSans-2e" x="1040.673828"/>
      <use xlink:href="#DejaVuSans-38" x="1072.460938"/>
      <use xlink:href="#DejaVuSans-34" x="1136.083984"/>
      <use xlink:href="#DejaVuSans-5d" x="1199.707031"/>
     </g>
    </g>
    <g id="line2d_19">
     <path d="M 246.236406 204.609375 
L 254.236406 204.609375 
L 262.236406 204.609375 
" style="fill: none; stroke: #0000ff; stroke-width: 0.5; stroke-linecap: round"/>
    </g>
    <g id="text_18">
     <!-- Tensorflow [MSE = 1217.22] -->
     <g style="fill: #262626" transform="translate(268.636406 207.409375)scale(0.08 -0.08)">
      <defs>
       <path id="DejaVuSans-54" d="M -19 4666 
L 3928 4666 
L 3928 4134 
L 2272 4134 
L 2272 0 
L 1638 0 
L 1638 4134 
L -19 4134 
L -19 4666 
z
" transform="scale(0.015625)"/>
       <path id="DejaVuSans-6c" d="M 603 4863 
L 1178 4863 
L 1178 0 
L 603 0 
L 603 4863 
z
" transform="scale(0.015625)"/>
       <path id="DejaVuSans-77" d="M 269 3500 
L 844 3500 
L 1563 769 
L 2278 3500 
L 2956 3500 
L 3675 769 
L 4391 3500 
L 4966 3500 
L 4050 0 
L 3372 0 
L 2619 2869 
L 1863 0 
L 1184 0 
L 269 3500 
z
" transform="scale(0.015625)"/>
      </defs>
      <use xlink:href="#DejaVuSans-54"/>
      <use xlink:href="#DejaVuSans-65" x="44.083984"/>
      <use xlink:href="#DejaVuSans-6e" x="105.607422"/>
      <use xlink:href="#DejaVuSans-73" x="168.986328"/>
      <use xlink:href="#DejaVuSans-6f" x="221.085938"/>
      <use xlink:href="#DejaVuSans-72" x="282.267578"/>
      <use xlink:href="#DejaVuSans-66" x="323.380859"/>
      <use xlink:href="#DejaVuSans-6c" x="358.585938"/>
      <use xlink:href="#DejaVuSans-6f" x="386.369141"/>
      <use xlink:href="#DejaVuSans-77" x="447.550781"/>
      <use xlink:href="#DejaVuSans-20" x="529.337891"/>
      <use xlink:href="#DejaVuSans-5b" x="561.125"/>
      <use xlink:href="#DejaVuSans-4d" x="600.138672"/>
      <use xlink:href="#DejaVuSans-53" x="686.417969"/>
      <use xlink:href="#DejaVuSans-45" x="749.894531"/>
      <use xlink:href="#DejaVuSans-20" x="813.078125"/>
      <use xlink:href="#DejaVuSans-3d" x="844.865234"/>
      <use xlink:href="#DejaVuSans-20" x="928.654297"/>
      <use xlink:href="#DejaVuSans-31" x="960.441406"/>
      <use xlink:href="#DejaVuSans-32" x="1024.064453"/>
      <use xlink:href="#DejaVuSans-31" x="1087.6875"/>
      <use xlink:href="#DejaVuSans-37" x="1151.310547"/>
      <use xlink:href="#DejaVuSans-2e" x="1214.933594"/>
      <use xlink:href="#DejaVuSans-32" x="1246.720703"/>
      <use xlink:href="#DejaVuSans-32" x="1310.34375"/>
      <use xlink:href="#DejaVuSans-5d" x="1373.966797"/>
     </g>
    </g>
    <g id="line2d_20">
     <path d="M 246.236406 216.351875 
L 254.236406 216.351875 
L 262.236406 216.351875 
" style="fill: none; stroke: #00ffff; stroke-width: 0.5; stroke-linecap: round"/>
    </g>
    <g id="text_19">
     <!-- Scikit Ridge [MSE = 1210.93] -->
     <g style="fill: #262626" transform="translate(268.636406 219.151875)scale(0.08 -0.08)">
      <defs>
       <path id="DejaVuSans-63" d="M 3122 3366 
L 3122 2828 
Q 2878 2963 2633 3030 
Q 2388 3097 2138 3097 
Q 1578 3097 1268 2742 
Q 959 2388 959 1747 
Q 959 1106 1268 751 
Q 1578 397 2138 397 
Q 2388 397 2633 464 
Q 2878 531 3122 666 
L 3122 134 
Q 2881 22 2623 -34 
Q 2366 -91 2075 -91 
Q 1284 -91 818 406 
Q 353 903 353 1747 
Q 353 2603 823 3093 
Q 1294 3584 2113 3584 
Q 2378 3584 2631 3529 
Q 2884 3475 3122 3366 
z
" transform="scale(0.015625)"/>
       <path id="DejaVuSans-6b" d="M 581 4863 
L 1159 4863 
L 1159 1991 
L 2875 3500 
L 3609 3500 
L 1753 1863 
L 3688 0 
L 2938 0 
L 1159 1709 
L 1159 0 
L 581 0 
L 581 4863 
z
" transform="scale(0.015625)"/>
       <path id="DejaVuSans-74" d="M 1172 4494 
L 1172 3500 
L 2356 3500 
L 2356 3053 
L 1172 3053 
L 1172 1153 
Q 1172 725 1289 603 
Q 1406 481 1766 481 
L 2356 481 
L 2356 0 
L 1766 0 
Q 1100 0 847 248 
Q 594 497 594 1153 
L 594 3053 
L 172 3053 
L 172 3500 
L 594 3500 
L 594 4494 
L 1172 4494 
z
" transform="scale(0.015625)"/>
       <path id="DejaVuSans-64" d="M 2906 2969 
L 2906 4863 
L 3481 4863 
L 3481 0 
L 2906 0 
L 2906 525 
Q 2725 213 2448 61 
Q 2172 -91 1784 -91 
Q 1150 -91 751 415 
Q 353 922 353 1747 
Q 353 2572 751 3078 
Q 1150 3584 1784 3584 
Q 2172 3584 2448 3432 
Q 2725 3281 2906 2969 
z
M 947 1747 
Q 947 1113 1208 752 
Q 1469 391 1925 391 
Q 2381 391 2643 752 
Q 2906 1113 2906 1747 
Q 2906 2381 2643 2742 
Q 2381 3103 1925 3103 
Q 1469 3103 1208 2742 
Q 947 2381 947 1747 
z
" transform="scale(0.015625)"/>
       <path id="DejaVuSans-39" d="M 703 97 
L 703 672 
Q 941 559 1184 500 
Q 1428 441 1663 441 
Q 2288 441 2617 861 
Q 2947 1281 2994 2138 
Q 2813 1869 2534 1725 
Q 2256 1581 1919 1581 
Q 1219 1581 811 2004 
Q 403 2428 403 3163 
Q 403 3881 828 4315 
Q 1253 4750 1959 4750 
Q 2769 4750 3195 4129 
Q 3622 3509 3622 2328 
Q 3622 1225 3098 567 
Q 2575 -91 1691 -91 
Q 1453 -91 1209 -44 
Q 966 3 703 97 
z
M 1959 2075 
Q 2384 2075 2632 2365 
Q 2881 2656 2881 3163 
Q 2881 3666 2632 3958 
Q 2384 4250 1959 4250 
Q 1534 4250 1286 3958 
Q 1038 3666 1038 3163 
Q 1038 2656 1286 2365 
Q 1534 2075 1959 2075 
z
" transform="scale(0.015625)"/>
       <path id="DejaVuSans-33" d="M 2597 2516 
Q 3050 2419 3304 2112 
Q 3559 1806 3559 1356 
Q 3559 666 3084 287 
Q 2609 -91 1734 -91 
Q 1441 -91 1130 -33 
Q 819 25 488 141 
L 488 750 
Q 750 597 1062 519 
Q 1375 441 1716 441 
Q 2309 441 2620 675 
Q 2931 909 2931 1356 
Q 2931 1769 2642 2001 
Q 2353 2234 1838 2234 
L 1294 2234 
L 1294 2753 
L 1863 2753 
Q 2328 2753 2575 2939 
Q 2822 3125 2822 3475 
Q 2822 3834 2567 4026 
Q 2313 4219 1838 4219 
Q 1578 4219 1281 4162 
Q 984 4106 628 3988 
L 628 4550 
Q 988 4650 1302 4700 
Q 1616 4750 1894 4750 
Q 2613 4750 3031 4423 
Q 3450 4097 3450 3541 
Q 3450 3153 3228 2886 
Q 3006 2619 2597 2516 
z
" transform="scale(0.015625)"/>
      </defs>
      <use xlink:href="#DejaVuSans-53"/>
      <use xlink:href="#DejaVuSans-63" x="63.476562"/>
      <use xlink:href="#DejaVuSans-69" x="118.457031"/>
      <use xlink:href="#DejaVuSans-6b" x="146.240234"/>
      <use xlink:href="#DejaVuSans-69" x="204.150391"/>
      <use xlink:href="#DejaVuSans-74" x="231.933594"/>
      <use xlink:href="#DejaVuSans-20" x="271.142578"/>
      <use xlink:href="#DejaVuSans-52" x="302.929688"/>
      <use xlink:href="#DejaVuSans-69" x="372.412109"/>
      <use xlink:href="#DejaVuSans-64" x="400.195312"/>
      <use xlink:href="#DejaVuSans-67" x="463.671875"/>
      <use xlink:href="#DejaVuSans-65" x="527.148438"/>
      <use xlink:href="#DejaVuSans-20" x="588.671875"/>
      <use xlink:href="#DejaVuSans-5b" x="620.458984"/>
      <use xlink:href="#DejaVuSans-4d" x="659.472656"/>
      <use xlink:href="#DejaVuSans-53" x="745.751953"/>
      <use xlink:href="#DejaVuSans-45" x="809.228516"/>
      <use xlink:href="#DejaVuSans-20" x="872.412109"/>
      <use xlink:href="#DejaVuSans-3d" x="904.199219"/>
      <use xlink:href="#DejaVuSans-20" x="987.988281"/>
      <use xlink:href="#DejaVuSans-31" x="1019.775391"/>
      <use xlink:href="#DejaVuSans-32" x="1083.398438"/>
      <use xlink:href="#DejaVuSans-31" x="1147.021484"/>
      <use xlink:href="#DejaVuSans-30" x="1210.644531"/>
      <use xlink:href="#DejaVuSans-2e" x="1274.267578"/>
      <use xlink:href="#DejaVuSans-39" x="1306.054688"/>
      <use xlink:href="#DejaVuSans-33" x="1369.677734"/>
      <use xlink:href="#DejaVuSans-5d" x="1433.300781"/>
     </g>
    </g>
    <g id="line2d_21">
     <path d="M 246.236406 228.094375 
L 254.236406 228.094375 
L 262.236406 228.094375 
" style="fill: none; stroke: #ffff00; stroke-width: 0.5; stroke-linecap: round"/>
    </g>
    <g id="text_20">
     <!-- Scikit LASSO [MSE = 1258.87] -->
     <g style="fill: #262626" transform="translate(268.636406 230.894375)scale(0.08 -0.08)">
      <defs>
       <path id="DejaVuSans-41" d="M 2188 4044 
L 1331 1722 
L 3047 1722 
L 2188 4044 
z
M 1831 4666 
L 2547 4666 
L 4325 0 
L 3669 0 
L 3244 1197 
L 1141 1197 
L 716 0 
L 50 0 
L 1831 4666 
z
" transform="scale(0.015625)"/>
       <path id="DejaVuSans-4f" d="M 2522 4238 
Q 1834 4238 1429 3725 
Q 1025 3213 1025 2328 
Q 1025 1447 1429 934 
Q 1834 422 2522 422 
Q 3209 422 3611 934 
Q 4013 1447 4013 2328 
Q 4013 3213 3611 3725 
Q 3209 4238 2522 4238 
z
M 2522 4750 
Q 3503 4750 4090 4092 
Q 4678 3434 4678 2328 
Q 4678 1225 4090 567 
Q 3503 -91 2522 -91 
Q 1538 -91 948 565 
Q 359 1222 359 2328 
Q 359 3434 948 4092 
Q 1538 4750 2522 4750 
z
" transform="scale(0.015625)"/>
      </defs>
      <use xlink:href="#DejaVuSans-53"/>
      <use xlink:href="#DejaVuSans-63" x="63.476562"/>
      <use xlink:href="#DejaVuSans-69" x="118.457031"/>
      <use xlink:href="#DejaVuSans-6b" x="146.240234"/>
      <use xlink:href="#DejaVuSans-69" x="204.150391"/>
      <use xlink:href="#DejaVuSans-74" x="231.933594"/>
      <use xlink:href="#DejaVuSans-20" x="271.142578"/>
      <use xlink:href="#DejaVuSans-4c" x="302.929688"/>
      <use xlink:href="#DejaVuSans-41" x="360.892578"/>
      <use xlink:href="#DejaVuSans-53" x="429.300781"/>
      <use xlink:href="#DejaVuSans-53" x="492.777344"/>
      <use xlink:href="#DejaVuSans-4f" x="556.253906"/>
      <use xlink:href="#DejaVuSans-20" x="634.964844"/>
      <use xlink:href="#DejaVuSans-5b" x="666.751953"/>
      <use xlink:href="#DejaVuSans-4d" x="705.765625"/>
      <use xlink:href="#DejaVuSans-53" x="792.044922"/>
      <use xlink:href="#DejaVuSans-45" x="855.521484"/>
      <use xlink:href="#DejaVuSans-20" x="918.705078"/>
      <use xlink:href="#DejaVuSans-3d" x="950.492188"/>
      <use xlink:href="#DejaVuSans-20" x="1034.28125"/>
      <use xlink:href="#DejaVuSans-31" x="1066.068359"/>
      <use xlink:href="#DejaVuSans-32" x="1129.691406"/>
      <use xlink:href="#DejaVuSans-35" x="1193.314453"/>
      <use xlink:href="#DejaVuSans-38" x="1256.9375"/>
      <use xlink:href="#DejaVuSans-2e" x="1320.560547"/>
      <use xlink:href="#DejaVuSans-38" x="1352.347656"/>
      <use xlink:href="#DejaVuSans-37" x="1415.970703"/>
      <use xlink:href="#DejaVuSans-5d" x="1479.59375"/>
     </g>
    </g>
   </g>
  </g>
 </g>
 <defs>
  <clipPath id="p9560f84b4d">
   <rect x="62.527656" y="22.318125" width="334.8" height="217.44"/>
  </clipPath>
 </defs>
</svg>
