<?xml version="1.0" encoding="utf-8" standalone="no"?>
<!DOCTYPE svg PUBLIC "-//W3C//DTD SVG 1.1//EN"
  "http://www.w3.org/Graphics/SVG/1.1/DTD/svg11.dtd">
<svg xmlns:xlink="http://www.w3.org/1999/xlink" width="385.411094pt" height="296.399687pt" viewBox="0 0 385.411094 296.399687" xmlns="http://www.w3.org/2000/svg" version="1.1">
 <metadata>
  <rdf:RDF xmlns:dc="http://purl.org/dc/elements/1.1/" xmlns:cc="http://creativecommons.org/ns#" xmlns:rdf="http://www.w3.org/1999/02/22-rdf-syntax-ns#">
   <cc:Work>
    <dc:type rdf:resource="http://purl.org/dc/dcmitype/StillImage"/>
    <dc:date>2023-01-17T15:27:17.688341</dc:date>
    <dc:format>image/svg+xml</dc:format>
    <dc:creator>
     <cc:Agent>
      <dc:title>Matplotlib v3.5.2, https://matplotlib.org/</dc:title>
     </cc:Agent>
    </dc:creator>
   </cc:Work>
  </rdf:RDF>
 </metadata>
 <defs>
  <style type="text/css">*{stroke-linejoin: round; stroke-linecap: butt}</style>
 </defs>
 <g id="figure_1">
  <g id="patch_1">
   <path d="M 0 296.399687 
L 385.411094 296.399687 
L 385.411094 0 
L 0 0 
z
" style="fill: #ffffff"/>
  </g>
  <g id="axes_1">
   <g id="patch_2">
    <path d="M 43.411094 253.44 
L 378.211094 253.44 
L 378.211094 36 
L 43.411094 36 
z
" style="fill: #d9d9d9"/>
   </g>
   <g id="matplotlib.axis_1">
    <g id="xtick_1">
     <g id="line2d_1">
      <path d="M 57.405703 253.44 
L 57.405703 36 
" clip-path="url(#pc097d7d252)" style="fill: none; stroke: #ffffff; stroke-linecap: round"/>
     </g>
     <g id="text_1">
      <!-- 0 -->
      <g style="fill: #262626" transform="translate(53.906328 271.298281)scale(0.11 -0.11)">
       <defs>
        <path id="DejaVuSans-30" d="M 2034 4250 
Q 1547 4250 1301 3770 
Q 1056 3291 1056 2328 
Q 1056 1369 1301 889 
Q 1547 409 2034 409 
Q 2525 409 2770 889 
Q 3016 1369 3016 2328 
Q 3016 3291 2770 3770 
Q 2525 4250 2034 4250 
z
M 2034 4750 
Q 2819 4750 3233 4129 
Q 3647 3509 3647 2328 
Q 3647 1150 3233 529 
Q 2819 -91 2034 -91 
Q 1250 -91 836 529 
Q 422 1150 422 2328 
Q 422 3509 836 4129 
Q 1250 4750 2034 4750 
z
" transform="scale(0.015625)"/>
       </defs>
       <use xlink:href="#DejaVuSans-30"/>
      </g>
     </g>
    </g>
    <g id="xtick_2">
     <g id="line2d_2">
      <path d="M 118.584324 253.44 
L 118.584324 36 
" clip-path="url(#pc097d7d252)" style="fill: none; stroke: #ffffff; stroke-linecap: round"/>
     </g>
     <g id="text_2">
      <!-- 200 -->
      <g style="fill: #262626" transform="translate(108.086199 271.298281)scale(0.11 -0.11)">
       <defs>
        <path id="DejaVuSans-32" d="M 1228 531 
L 3431 531 
L 3431 0 
L 469 0 
L 469 531 
Q 828 903 1448 1529 
Q 2069 2156 2228 2338 
Q 2531 2678 2651 2914 
Q 2772 3150 2772 3378 
Q 2772 3750 2511 3984 
Q 2250 4219 1831 4219 
Q 1534 4219 1204 4116 
Q 875 4013 500 3803 
L 500 4441 
Q 881 4594 1212 4672 
Q 1544 4750 1819 4750 
Q 2544 4750 2975 4387 
Q 3406 4025 3406 3419 
Q 3406 3131 3298 2873 
Q 3191 2616 2906 2266 
Q 2828 2175 2409 1742 
Q 1991 1309 1228 531 
z
" transform="scale(0.015625)"/>
       </defs>
       <use xlink:href="#DejaVuSans-32"/>
       <use xlink:href="#DejaVuSans-30" x="63.623047"/>
       <use xlink:href="#DejaVuSans-30" x="127.246094"/>
      </g>
     </g>
    </g>
    <g id="xtick_3">
     <g id="line2d_3">
      <path d="M 179.762944 253.44 
L 179.762944 36 
" clip-path="url(#pc097d7d252)" style="fill: none; stroke: #ffffff; stroke-linecap: round"/>
     </g>
     <g id="text_3">
      <!-- 400 -->
      <g style="fill: #262626" transform="translate(169.264819 271.298281)scale(0.11 -0.11)">
       <defs>
        <path id="DejaVuSans-34" d="M 2419 4116 
L 825 1625 
L 2419 1625 
L 2419 4116 
z
M 2253 4666 
L 3047 4666 
L 3047 1625 
L 3713 1625 
L 3713 1100 
L 3047 1100 
L 3047 0 
L 2419 0 
L 2419 1100 
L 313 1100 
L 313 1709 
L 2253 4666 
z
" transform="scale(0.015625)"/>
       </defs>
       <use xlink:href="#DejaVuSans-34"/>
       <use xlink:href="#DejaVuSans-30" x="63.623047"/>
       <use xlink:href="#DejaVuSans-30" x="127.246094"/>
      </g>
     </g>
    </g>
    <g id="xtick_4">
     <g id="line2d_4">
      <path d="M 240.941564 253.44 
L 240.941564 36 
" clip-path="url(#pc097d7d252)" style="fill: none; stroke: #ffffff; stroke-linecap: round"/>
     </g>
     <g id="text_4">
      <!-- 600 -->
      <g style="fill: #262626" transform="translate(230.443439 271.298281)scale(0.11 -0.11)">
       <defs>
        <path id="DejaVuSans-36" d="M 2113 2584 
Q 1688 2584 1439 2293 
Q 1191 2003 1191 1497 
Q 1191 994 1439 701 
Q 1688 409 2113 409 
Q 2538 409 2786 701 
Q 3034 994 3034 1497 
Q 3034 2003 2786 2293 
Q 2538 2584 2113 2584 
z
M 3366 4563 
L 3366 3988 
Q 3128 4100 2886 4159 
Q 2644 4219 2406 4219 
Q 1781 4219 1451 3797 
Q 1122 3375 1075 2522 
Q 1259 2794 1537 2939 
Q 1816 3084 2150 3084 
Q 2853 3084 3261 2657 
Q 3669 2231 3669 1497 
Q 3669 778 3244 343 
Q 2819 -91 2113 -91 
Q 1303 -91 875 529 
Q 447 1150 447 2328 
Q 447 3434 972 4092 
Q 1497 4750 2381 4750 
Q 2619 4750 2861 4703 
Q 3103 4656 3366 4563 
z
" transform="scale(0.015625)"/>
       </defs>
       <use xlink:href="#DejaVuSans-36"/>
       <use xlink:href="#DejaVuSans-30" x="63.623047"/>
       <use xlink:href="#DejaVuSans-30" x="127.246094"/>
      </g>
     </g>
    </g>
    <g id="xtick_5">
     <g id="line2d_5">
      <path d="M 302.120185 253.44 
L 302.120185 36 
" clip-path="url(#pc097d7d252)" style="fill: none; stroke: #ffffff; stroke-linecap: round"/>
     </g>
     <g id="text_5">
      <!-- 800 -->
      <g style="fill: #262626" transform="translate(291.62206 271.298281)scale(0.11 -0.11)">
       <defs>
        <path id="DejaVuSans-38" d="M 2034 2216 
Q 1584 2216 1326 1975 
Q 1069 1734 1069 1313 
Q 1069 891 1326 650 
Q 1584 409 2034 409 
Q 2484 409 2743 651 
Q 3003 894 3003 1313 
Q 3003 1734 2745 1975 
Q 2488 2216 2034 2216 
z
M 1403 2484 
Q 997 2584 770 2862 
Q 544 3141 544 3541 
Q 544 4100 942 4425 
Q 1341 4750 2034 4750 
Q 2731 4750 3128 4425 
Q 3525 4100 3525 3541 
Q 3525 3141 3298 2862 
Q 3072 2584 2669 2484 
Q 3125 2378 3379 2068 
Q 3634 1759 3634 1313 
Q 3634 634 3220 271 
Q 2806 -91 2034 -91 
Q 1263 -91 848 271 
Q 434 634 434 1313 
Q 434 1759 690 2068 
Q 947 2378 1403 2484 
z
M 1172 3481 
Q 1172 3119 1398 2916 
Q 1625 2713 2034 2713 
Q 2441 2713 2670 2916 
Q 2900 3119 2900 3481 
Q 2900 3844 2670 4047 
Q 2441 4250 2034 4250 
Q 1625 4250 1398 4047 
Q 1172 3844 1172 3481 
z
" transform="scale(0.015625)"/>
       </defs>
       <use xlink:href="#DejaVuSans-38"/>
       <use xlink:href="#DejaVuSans-30" x="63.623047"/>
       <use xlink:href="#DejaVuSans-30" x="127.246094"/>
      </g>
     </g>
    </g>
    <g id="xtick_6">
     <g id="line2d_6">
      <path d="M 363.298805 253.44 
L 363.298805 36 
" clip-path="url(#pc097d7d252)" style="fill: none; stroke: #ffffff; stroke-linecap: round"/>
     </g>
     <g id="text_6">
      <!-- 1000 -->
      <g style="fill: #262626" transform="translate(349.301305 271.298281)scale(0.11 -0.11)">
       <defs>
        <path id="DejaVuSans-31" d="M 794 531 
L 1825 531 
L 1825 4091 
L 703 3866 
L 703 4441 
L 1819 4666 
L 2450 4666 
L 2450 531 
L 3481 531 
L 3481 0 
L 794 0 
L 794 531 
z
" transform="scale(0.015625)"/>
       </defs>
       <use xlink:href="#DejaVuSans-31"/>
       <use xlink:href="#DejaVuSans-30" x="63.623047"/>
       <use xlink:href="#DejaVuSans-30" x="127.246094"/>
       <use xlink:href="#DejaVuSans-30" x="190.869141"/>
      </g>
     </g>
    </g>
    <g id="text_7">
     <!-- Time -->
     <g style="fill: #262626" transform="translate(196.130781 286.704062)scale(0.12 -0.12)">
      <defs>
       <path id="DejaVuSans-54" d="M -19 4666 
L 3928 4666 
L 3928 4134 
L 2272 4134 
L 2272 0 
L 1638 0 
L 1638 4134 
L -19 4134 
L -19 4666 
z
" transform="scale(0.015625)"/>
       <path id="DejaVuSans-69" d="M 603 3500 
L 1178 3500 
L 1178 0 
L 603 0 
L 603 3500 
z
M 603 4863 
L 1178 4863 
L 1178 4134 
L 603 4134 
L 603 4863 
z
" transform="scale(0.015625)"/>
       <path id="DejaVuSans-6d" d="M 3328 2828 
Q 3544 3216 3844 3400 
Q 4144 3584 4550 3584 
Q 5097 3584 5394 3201 
Q 5691 2819 5691 2113 
L 5691 0 
L 5113 0 
L 5113 2094 
Q 5113 2597 4934 2840 
Q 4756 3084 4391 3084 
Q 3944 3084 3684 2787 
Q 3425 2491 3425 1978 
L 3425 0 
L 2847 0 
L 2847 2094 
Q 2847 2600 2669 2842 
Q 2491 3084 2119 3084 
Q 1678 3084 1418 2786 
Q 1159 2488 1159 1978 
L 1159 0 
L 581 0 
L 581 3500 
L 1159 3500 
L 1159 2956 
Q 1356 3278 1631 3431 
Q 1906 3584 2284 3584 
Q 2666 3584 2933 3390 
Q 3200 3197 3328 2828 
z
" transform="scale(0.015625)"/>
       <path id="DejaVuSans-65" d="M 3597 1894 
L 3597 1613 
L 953 1613 
Q 991 1019 1311 708 
Q 1631 397 2203 397 
Q 2534 397 2845 478 
Q 3156 559 3463 722 
L 3463 178 
Q 3153 47 2828 -22 
Q 2503 -91 2169 -91 
Q 1331 -91 842 396 
Q 353 884 353 1716 
Q 353 2575 817 3079 
Q 1281 3584 2069 3584 
Q 2775 3584 3186 3129 
Q 3597 2675 3597 1894 
z
M 3022 2063 
Q 3016 2534 2758 2815 
Q 2500 3097 2075 3097 
Q 1594 3097 1305 2825 
Q 1016 2553 972 2059 
L 3022 2063 
z
" transform="scale(0.015625)"/>
      </defs>
      <use xlink:href="#DejaVuSans-54"/>
      <use xlink:href="#DejaVuSans-69" x="57.958984"/>
      <use xlink:href="#DejaVuSans-6d" x="85.742188"/>
      <use xlink:href="#DejaVuSans-65" x="183.154297"/>
     </g>
    </g>
   </g>
   <g id="matplotlib.axis_2">
    <g id="ytick_1">
     <g id="line2d_7">
      <path d="M 43.411094 240.3872 
L 378.211094 240.3872 
" clip-path="url(#pc097d7d252)" style="fill: none; stroke: #ffffff; stroke-linecap: round"/>
     </g>
     <g id="text_8">
      <!-- −1.5 -->
      <g style="fill: #262626" transform="translate(7.2 244.56634)scale(0.11 -0.11)">
       <defs>
        <path id="DejaVuSans-2212" d="M 678 2272 
L 4684 2272 
L 4684 1741 
L 678 1741 
L 678 2272 
z
" transform="scale(0.015625)"/>
        <path id="DejaVuSans-2e" d="M 684 794 
L 1344 794 
L 1344 0 
L 684 0 
L 684 794 
z
" transform="scale(0.015625)"/>
        <path id="DejaVuSans-35" d="M 691 4666 
L 3169 4666 
L 3169 4134 
L 1269 4134 
L 1269 2991 
Q 1406 3038 1543 3061 
Q 1681 3084 1819 3084 
Q 2600 3084 3056 2656 
Q 3513 2228 3513 1497 
Q 3513 744 3044 326 
Q 2575 -91 1722 -91 
Q 1428 -91 1123 -41 
Q 819 9 494 109 
L 494 744 
Q 775 591 1075 516 
Q 1375 441 1709 441 
Q 2250 441 2565 725 
Q 2881 1009 2881 1497 
Q 2881 1984 2565 2268 
Q 2250 2553 1709 2553 
Q 1456 2553 1204 2497 
Q 953 2441 691 2322 
L 691 4666 
z
" transform="scale(0.015625)"/>
       </defs>
       <use xlink:href="#DejaVuSans-2212"/>
       <use xlink:href="#DejaVuSans-31" x="83.789062"/>
       <use xlink:href="#DejaVuSans-2e" x="147.412109"/>
       <use xlink:href="#DejaVuSans-35" x="179.199219"/>
      </g>
     </g>
    </g>
    <g id="ytick_2">
     <g id="line2d_8">
      <path d="M 43.411094 208.103082 
L 378.211094 208.103082 
" clip-path="url(#pc097d7d252)" style="fill: none; stroke: #ffffff; stroke-linecap: round"/>
     </g>
     <g id="text_9">
      <!-- −1.0 -->
      <g style="fill: #262626" transform="translate(7.2 212.282222)scale(0.11 -0.11)">
       <use xlink:href="#DejaVuSans-2212"/>
       <use xlink:href="#DejaVuSans-31" x="83.789062"/>
       <use xlink:href="#DejaVuSans-2e" x="147.412109"/>
       <use xlink:href="#DejaVuSans-30" x="179.199219"/>
      </g>
     </g>
    </g>
    <g id="ytick_3">
     <g id="line2d_9">
      <path d="M 43.411094 175.818964 
L 378.211094 175.818964 
" clip-path="url(#pc097d7d252)" style="fill: none; stroke: #ffffff; stroke-linecap: round"/>
     </g>
     <g id="text_10">
      <!-- −0.5 -->
      <g style="fill: #262626" transform="translate(7.2 179.998104)scale(0.11 -0.11)">
       <use xlink:href="#DejaVuSans-2212"/>
       <use xlink:href="#DejaVuSans-30" x="83.789062"/>
       <use xlink:href="#DejaVuSans-2e" x="147.412109"/>
       <use xlink:href="#DejaVuSans-35" x="179.199219"/>
      </g>
     </g>
    </g>
    <g id="ytick_4">
     <g id="line2d_10">
      <path d="M 43.411094 143.534845 
L 378.211094 143.534845 
" clip-path="url(#pc097d7d252)" style="fill: none; stroke: #ffffff; stroke-linecap: round"/>
     </g>
     <g id="text_11">
      <!-- 0.0 -->
      <g style="fill: #262626" transform="translate(16.417656 147.713986)scale(0.11 -0.11)">
       <use xlink:href="#DejaVuSans-30"/>
       <use xlink:href="#DejaVuSans-2e" x="63.623047"/>
       <use xlink:href="#DejaVuSans-30" x="95.410156"/>
      </g>
     </g>
    </g>
    <g id="ytick_5">
     <g id="line2d_11">
      <path d="M 43.411094 111.250727 
L 378.211094 111.250727 
" clip-path="url(#pc097d7d252)" style="fill: none; stroke: #ffffff; stroke-linecap: round"/>
     </g>
     <g id="text_12">
      <!-- 0.5 -->
      <g style="fill: #262626" transform="translate(16.417656 115.429868)scale(0.11 -0.11)">
       <use xlink:href="#DejaVuSans-30"/>
       <use xlink:href="#DejaVuSans-2e" x="63.623047"/>
       <use xlink:href="#DejaVuSans-35" x="95.410156"/>
      </g>
     </g>
    </g>
    <g id="ytick_6">
     <g id="line2d_12">
      <path d="M 43.411094 78.966609 
L 378.211094 78.966609 
" clip-path="url(#pc097d7d252)" style="fill: none; stroke: #ffffff; stroke-linecap: round"/>
     </g>
     <g id="text_13">
      <!-- 1.0 -->
      <g style="fill: #262626" transform="translate(16.417656 83.14575)scale(0.11 -0.11)">
       <use xlink:href="#DejaVuSans-31"/>
       <use xlink:href="#DejaVuSans-2e" x="63.623047"/>
       <use xlink:href="#DejaVuSans-30" x="95.410156"/>
      </g>
     </g>
    </g>
    <g id="ytick_7">
     <g id="line2d_13">
      <path d="M 43.411094 46.682491 
L 378.211094 46.682491 
" clip-path="url(#pc097d7d252)" style="fill: none; stroke: #ffffff; stroke-linecap: round"/>
     </g>
     <g id="text_14">
      <!-- 1.5 -->
      <g style="fill: #262626" transform="translate(16.417656 50.861632)scale(0.11 -0.11)">
       <use xlink:href="#DejaVuSans-31"/>
       <use xlink:href="#DejaVuSans-2e" x="63.623047"/>
       <use xlink:href="#DejaVuSans-35" x="95.410156"/>
      </g>
     </g>
    </g>
   </g>
   <g id="PolyCollection_1"/>
   <g id="PolyCollection_2"/>
   <g id="line2d_14">
    <path d="M 58.629276 90.514211 
L 58.935169 75.712292 
L 59.241062 80.920234 
L 59.852848 72.608892 
L 60.158741 62.298728 
L 60.464634 84.822619 
L 60.770527 99.072607 
L 61.07642 80.289427 
L 61.382313 85.505932 
L 61.688207 98.721333 
L 62.299993 65.906844 
L 62.605886 60.822379 
L 62.911779 78.523885 
L 63.217672 83.16446 
L 63.523565 79.511331 
L 63.829458 94.098219 
L 64.135351 68.642983 
L 64.441245 84.461985 
L 64.747138 82.112124 
L 65.053031 69.686791 
L 65.358924 77.196815 
L 65.664817 70.411853 
L 65.97071 77.34664 
L 66.276603 59.050884 
L 66.582496 57.405014 
L 66.888389 81.286895 
L 67.194282 68.813882 
L 67.500176 68.299367 
L 67.806069 98.939778 
L 68.111962 89.805466 
L 68.417855 76.578266 
L 68.723748 76.162159 
L 69.029641 81.232584 
L 69.335534 93.030219 
L 69.641427 82.495429 
L 69.94732 89.640178 
L 70.253213 104.127438 
L 70.559107 79.943599 
L 70.865 81.768373 
L 71.170893 64.569613 
L 71.476786 80.533865 
L 71.782679 82.510924 
L 72.088572 97.392192 
L 72.394465 69.481655 
L 72.700358 69.448834 
L 73.006251 93.180575 
L 73.312144 92.173582 
L 73.618038 84.681846 
L 73.923931 74.381504 
L 74.84161 97.233624 
L 75.147503 74.254755 
L 75.759289 103.29711 
L 76.065182 77.260609 
L 76.371075 97.852704 
L 76.676969 84.086373 
L 76.982862 97.1283 
L 77.288755 78.799189 
L 77.594648 89.394455 
L 77.900541 89.892402 
L 78.206434 84.236606 
L 78.512327 76.019815 
L 78.81822 101.672422 
L 79.124113 90.470102 
L 79.7359 107.045706 
L 80.041793 97.626374 
L 80.347686 92.85835 
L 80.653579 102.74643 
L 80.959472 95.745398 
L 81.265365 76.701874 
L 81.877151 115.002491 
L 82.183044 109.609556 
L 82.488938 108.698758 
L 82.794831 103.254071 
L 83.100724 120.396538 
L 83.406617 100.800298 
L 83.71251 128.762395 
L 84.018403 84.781012 
L 84.324296 111.598397 
L 84.630189 115.270748 
L 85.241975 89.267448 
L 85.547869 105.582627 
L 85.853762 97.958975 
L 86.159655 102.193295 
L 86.465548 92.360715 
L 86.771441 118.329646 
L 87.077334 84.413524 
L 87.383227 119.391021 
L 87.68912 128.938094 
L 87.995013 99.342777 
L 88.300906 104.633513 
L 88.6068 114.211112 
L 88.912693 111.807003 
L 89.218586 139.281894 
L 89.524479 97.700936 
L 89.830372 107.536957 
L 90.136265 108.872871 
L 90.442158 111.709421 
L 90.748051 116.686049 
L 91.053944 114.713069 
L 91.359837 107.032556 
L 91.665731 120.356344 
L 91.971624 125.416401 
L 92.277517 119.802691 
L 92.58341 101.565147 
L 92.889303 134.315039 
L 93.195196 121.394732 
L 93.501089 146.654963 
L 93.806982 141.175204 
L 94.418768 118.103102 
L 94.724662 140.561995 
L 95.030555 100.196335 
L 95.336448 143.644104 
L 95.642341 142.369571 
L 95.948234 136.107927 
L 96.254127 144.114744 
L 96.56002 132.307812 
L 96.865913 115.688802 
L 97.171806 149.16898 
L 97.4777 113.20416 
L 98.089486 127.351851 
L 98.395379 130.106859 
L 98.701272 131.30485 
L 99.007165 125.326062 
L 99.313058 162.604321 
L 99.618951 99.18935 
L 100.230737 146.045571 
L 100.536631 136.054018 
L 100.842524 98.686912 
L 101.45431 149.605692 
L 101.760203 127.847652 
L 102.066096 165.748944 
L 102.677882 120.486585 
L 102.983775 146.497719 
L 103.289668 148.490941 
L 103.595562 144.282975 
L 103.901455 164.024673 
L 104.207348 134.523521 
L 104.513241 159.440818 
L 104.819134 165.454681 
L 105.125027 155.724205 
L 105.43092 153.421007 
L 105.736813 156.585177 
L 106.042706 150.960167 
L 106.348599 137.327299 
L 106.654493 155.036005 
L 106.960386 139.58276 
L 107.266279 142.899491 
L 107.572172 164.51061 
L 107.878065 155.595528 
L 108.183958 133.416927 
L 108.489851 135.971278 
L 108.795744 177.925003 
L 109.101637 136.180461 
L 109.40753 133.444452 
L 109.713424 152.051965 
L 110.32521 137.490475 
L 110.631103 154.946614 
L 110.936996 153.644838 
L 111.242889 134.019006 
L 111.548782 157.055899 
L 111.854675 155.981135 
L 112.466461 174.550791 
L 112.772355 151.782116 
L 113.078248 179.241648 
L 113.384141 158.493693 
L 113.690034 161.097126 
L 113.995927 177.056324 
L 114.30182 140.061651 
L 114.607713 170.604644 
L 114.913606 149.48467 
L 115.219499 180.971579 
L 115.525393 196.747023 
L 115.831286 162.981817 
L 116.137179 163.368646 
L 116.443072 160.83311 
L 116.748965 177.290809 
L 117.360751 141.572209 
L 117.666644 170.028037 
L 117.972537 166.845282 
L 118.27843 158.947676 
L 118.584324 175.021979 
L 119.19611 158.753748 
L 119.807896 187.130733 
L 120.113789 150.366431 
L 120.419682 193.563766 
L 120.725575 184.521035 
L 121.031468 184.443902 
L 121.337361 167.236821 
L 121.643255 174.9961 
L 121.949148 174.826605 
L 122.255041 177.094532 
L 122.560934 184.976936 
L 122.866827 201.366712 
L 123.478613 156.209598 
L 123.784506 179.543256 
L 124.090399 176.047488 
L 124.396292 170.681479 
L 124.702186 198.100553 
L 125.008079 191.217329 
L 125.313972 168.98496 
L 125.619865 190.045468 
L 125.925758 186.043505 
L 126.231651 177.436077 
L 126.537544 181.624857 
L 126.843437 203.144457 
L 127.455223 173.030538 
L 127.761117 184.738233 
L 128.06701 183.337127 
L 128.372903 169.596295 
L 128.678796 168.584106 
L 128.984689 185.29407 
L 129.290582 186.890324 
L 129.596475 194.709965 
L 129.902368 172.332628 
L 130.208261 184.290837 
L 130.514155 168.024838 
L 130.820048 190.769075 
L 131.125941 185.766693 
L 131.431834 183.667673 
L 131.737727 185.605014 
L 132.04362 184.476268 
L 132.349513 187.634314 
L 132.655406 209.983922 
L 132.961299 203.404786 
L 133.267192 226.26326 
L 133.573086 188.475118 
L 133.878979 186.773185 
L 134.184872 195.408272 
L 134.490765 194.445068 
L 134.796658 214.969279 
L 135.102551 195.575285 
L 135.408444 186.951909 
L 135.714337 192.395718 
L 136.02023 200.02581 
L 136.326123 186.262873 
L 136.632017 204.273842 
L 136.93791 193.088872 
L 137.243803 200.171767 
L 137.549696 204.155487 
L 137.855589 189.491066 
L 138.161482 233.492816 
L 138.467375 200.823233 
L 138.773268 199.199345 
L 139.079161 181.613816 
L 139.385054 185.068286 
L 139.690948 215.141379 
L 139.996841 198.295633 
L 140.302734 211.094942 
L 140.608627 207.289772 
L 140.91452 186.861648 
L 141.220413 176.437936 
L 141.832199 221.579069 
L 142.138092 194.284841 
L 142.749879 213.281805 
L 143.055772 208.272126 
L 143.361665 183.921236 
L 143.667558 188.661816 
L 143.973451 200.2071 
L 144.279344 183.445553 
L 144.585237 220.211381 
L 144.89113 213.352034 
L 145.197023 223.695827 
L 145.502917 222.146563 
L 146.114703 185.631454 
L 146.420596 217.317998 
L 146.726489 196.872579 
L 147.032382 243.556364 
L 147.338275 207.629173 
L 147.644168 212.605466 
L 147.950061 222.431904 
L 148.255954 205.468938 
L 148.561848 205.718656 
L 148.867741 213.017871 
L 149.173634 239.699253 
L 149.479527 236.88425 
L 149.78542 204.021376 
L 150.091313 231.934131 
L 150.397206 195.148152 
L 150.703099 221.282221 
L 151.008992 202.671226 
L 151.314885 234.407651 
L 151.620779 209.379005 
L 151.926672 227.686198 
L 152.232565 203.808389 
L 152.538458 205.780702 
L 152.844351 206.444757 
L 153.150244 210.646392 
L 153.456137 226.972966 
L 154.067923 193.747939 
L 154.373816 216.575378 
L 154.67971 187.934529 
L 154.985603 199.422585 
L 155.291496 176.354896 
L 155.597389 217.93707 
L 156.209175 197.069641 
L 156.515068 193.597991 
L 156.820961 221.061883 
L 157.126854 214.321126 
L 157.432747 188.684276 
L 157.738641 209.664114 
L 158.044534 217.733681 
L 158.350427 195.980531 
L 158.65632 206.221675 
L 158.962213 186.076964 
L 159.573999 213.016062 
L 159.879892 212.823087 
L 160.797572 198.531938 
L 161.103465 224.676534 
L 161.715251 216.456057 
L 162.021144 219.415166 
L 162.327037 201.353877 
L 162.63293 206.617058 
L 162.938823 204.941942 
L 163.244716 197.46141 
L 163.55061 205.361382 
L 163.856503 206.897491 
L 164.162396 212.494027 
L 164.468289 215.071666 
L 164.774182 184.527835 
L 165.080075 196.59527 
L 165.385968 219.587975 
L 165.691861 190.424802 
L 165.997754 187.453235 
L 166.303647 209.940326 
L 166.609541 217.061344 
L 166.915434 190.270201 
L 167.221327 212.216738 
L 167.52722 202.751961 
L 167.833113 213.7027 
L 168.139006 173.163647 
L 168.444899 217.746682 
L 168.750792 198.492318 
L 169.056685 200.65754 
L 169.362578 213.650945 
L 169.668472 204.872395 
L 169.974365 213.097605 
L 170.280258 204.239436 
L 170.586151 208.788319 
L 170.892044 188.679557 
L 171.197937 201.674366 
L 171.50383 203.004085 
L 171.809723 200.186861 
L 172.115616 196.189085 
L 172.421509 172.691303 
L 172.727403 204.923765 
L 173.033296 194.519958 
L 173.339189 176.720213 
L 173.645082 195.885429 
L 173.950975 198.179414 
L 174.256868 188.277852 
L 174.562761 185.023092 
L 174.868654 214.291084 
L 175.174547 195.841594 
L 175.48044 198.785197 
L 175.786334 187.287054 
L 176.092227 185.743197 
L 176.39812 195.052469 
L 176.704013 191.464596 
L 177.009906 194.950597 
L 177.315799 183.148971 
L 177.621692 179.897413 
L 177.927585 212.892723 
L 178.233478 187.286981 
L 178.539372 184.941506 
L 178.845265 191.912719 
L 179.151158 164.677332 
L 180.068837 197.197937 
L 180.37473 178.864177 
L 180.680623 187.863742 
L 180.986516 176.232176 
L 181.292409 192.106691 
L 181.598303 184.823601 
L 181.904196 171.174113 
L 182.515982 203.11012 
L 182.821875 173.040983 
L 183.127768 172.588134 
L 183.433661 175.851753 
L 183.739554 189.355123 
L 184.045447 184.987828 
L 184.35134 200.055775 
L 184.657234 183.699739 
L 184.963127 187.231811 
L 185.26902 173.768888 
L 185.574913 166.797883 
L 185.880806 187.384838 
L 186.186699 167.365756 
L 186.492592 197.743271 
L 186.798485 171.504999 
L 187.104378 191.780956 
L 187.410271 167.303394 
L 187.716165 176.958701 
L 188.022058 200.446235 
L 188.327951 174.033931 
L 188.633844 184.204952 
L 188.939737 166.758027 
L 189.24563 169.159735 
L 189.551523 172.549791 
L 189.857416 160.333818 
L 190.163309 168.572767 
L 190.469202 164.12031 
L 190.775096 146.272279 
L 191.080989 163.81778 
L 191.386882 165.972036 
L 191.692775 153.167422 
L 191.998668 154.11585 
L 192.304561 168.215773 
L 192.610454 155.280783 
L 192.916347 178.1842 
L 193.22224 161.781106 
L 193.528133 175.171027 
L 193.834027 150.987605 
L 194.13992 144.089506 
L 194.445813 155.243723 
L 194.751706 154.768706 
L 195.057599 160.211195 
L 195.363492 159.181955 
L 195.669385 151.753039 
L 195.975278 129.938284 
L 196.281171 149.738703 
L 196.587065 141.771524 
L 196.892958 148.226031 
L 197.198851 137.267885 
L 197.504744 159.7404 
L 197.810637 149.757759 
L 198.11653 150.043486 
L 198.422423 175.948587 
L 198.728316 127.207004 
L 199.034209 151.637183 
L 199.340102 163.965141 
L 199.645996 171.739069 
L 199.951889 135.001386 
L 200.257782 143.867976 
L 200.563675 147.230408 
L 200.869568 156.014146 
L 201.175461 151.24472 
L 201.481354 166.75506 
L 201.787247 124.729037 
L 202.09314 137.176253 
L 202.399033 114.711628 
L 202.704927 139.155475 
L 203.01082 128.856304 
L 203.316713 149.734547 
L 203.622606 132.773672 
L 203.928499 135.472568 
L 204.846178 151.460761 
L 205.457964 134.051134 
L 205.763858 130.011443 
L 206.069751 147.524607 
L 206.375644 127.14912 
L 206.681537 160.079172 
L 206.98743 128.243931 
L 207.293323 137.492361 
L 207.599216 121.624812 
L 207.905109 113.0018 
L 208.211002 124.715123 
L 208.822789 137.513561 
L 209.128682 107.041873 
L 209.434575 91.917171 
L 209.740468 143.353507 
L 210.046361 138.421895 
L 210.352254 98.222132 
L 210.658147 140.725376 
L 210.96404 112.215459 
L 211.269933 123.989412 
L 211.575827 123.599983 
L 211.88172 121.753456 
L 212.187613 116.858434 
L 212.493506 115.737106 
L 212.799399 120.367355 
L 213.105292 128.663354 
L 213.411185 106.122243 
L 213.717078 132.171255 
L 214.022971 139.250292 
L 214.328864 107.447697 
L 214.634758 91.153181 
L 214.940651 118.991862 
L 215.246544 116.1826 
L 215.552437 64.113112 
L 215.85833 121.635144 
L 216.164223 117.674818 
L 216.470116 117.775859 
L 216.776009 114.438391 
L 217.081902 86.300176 
L 217.387795 97.616252 
L 217.693689 123.872189 
L 217.999582 91.74255 
L 218.305475 137.893755 
L 219.223154 87.701478 
L 219.529047 92.924341 
L 219.83494 86.590974 
L 220.140833 110.97278 
L 220.446726 113.079345 
L 220.75262 128.732332 
L 221.058513 96.928952 
L 221.364406 109.611615 
L 221.670299 91.249229 
L 221.976192 110.004092 
L 222.282085 102.384407 
L 222.587978 119.247414 
L 222.893871 92.545619 
L 223.199764 92.57847 
L 223.505657 92.93133 
L 223.811551 94.456459 
L 224.117444 118.528648 
L 224.423337 87.450405 
L 224.72923 93.807687 
L 225.035123 113.568407 
L 225.341016 100.807006 
L 225.646909 112.999841 
L 225.952802 95.889804 
L 226.258695 96.377691 
L 226.564588 103.22944 
L 226.870482 120.781884 
L 227.176375 113.51696 
L 227.482268 89.453095 
L 227.788161 99.171542 
L 228.094054 88.690375 
L 228.399947 87.265766 
L 228.70584 69.516869 
L 229.011733 90.286857 
L 229.317626 102.187984 
L 229.62352 61.028539 
L 229.929413 96.944923 
L 230.541199 103.447073 
L 231.152985 78.759402 
L 231.458878 103.728777 
L 231.764771 101.479132 
L 232.070664 83.149955 
L 232.376557 86.211713 
L 232.682451 95.184173 
L 232.988344 92.160524 
L 233.294237 111.726048 
L 233.60013 99.03523 
L 233.906023 114.18225 
L 234.211916 95.236037 
L 234.517809 112.624288 
L 234.823702 75.653493 
L 235.129595 99.747019 
L 235.741382 82.825767 
L 236.047275 67.679171 
L 236.353168 77.838448 
L 236.659061 76.609693 
L 236.964954 73.903727 
L 237.270847 75.394593 
L 237.57674 98.517513 
L 237.882633 100.507776 
L 238.188526 90.05251 
L 238.494419 75.370378 
L 238.800313 98.755208 
L 239.106206 102.408414 
L 239.717992 61.501474 
L 240.023885 68.144663 
L 240.329778 72.030068 
L 240.635671 67.816264 
L 240.941564 97.970085 
L 241.247457 79.230871 
L 241.55335 98.422069 
L 241.859244 87.821988 
L 242.165137 70.857971 
L 242.47103 81.401374 
L 242.776923 60.596061 
L 243.082816 68.328755 
L 243.388709 94.938681 
L 243.694602 96.360615 
L 244.000495 72.727982 
L 244.306388 87.132117 
L 244.612282 92.303001 
L 244.918175 65.63161 
L 245.224068 80.812051 
L 245.529961 63.254597 
L 245.835854 83.756863 
L 246.141747 77.581618 
L 246.44764 79.883045 
L 246.753533 74.728136 
L 247.059426 92.107556 
L 247.365319 83.47116 
L 247.671213 45.883636 
L 248.282999 89.482075 
L 248.588892 87.699742 
L 248.894785 95.208523 
L 249.200678 70.518951 
L 249.506571 94.175629 
L 249.812464 74.189145 
L 250.118357 88.314997 
L 250.42425 63.535527 
L 250.730144 92.300277 
L 251.036037 69.504169 
L 251.647823 87.283562 
L 251.953716 116.435016 
L 252.259609 104.175053 
L 252.565502 51.676376 
L 252.871395 63.388334 
L 253.177288 81.180332 
L 253.483181 87.153065 
L 253.789075 89.403453 
L 254.094968 70.533283 
L 254.400861 93.203204 
L 254.706754 68.191869 
L 255.012647 80.708863 
L 255.31854 75.887386 
L 255.930326 63.026862 
L 256.236219 73.662722 
L 256.542112 95.711354 
L 256.848006 96.84498 
L 257.153899 79.895191 
L 257.459792 95.351978 
L 257.765685 66.83939 
L 258.377471 102.921524 
L 258.683364 71.31719 
L 258.989257 61.712145 
L 259.601043 88.301269 
L 259.906937 79.184927 
L 260.21283 84.633916 
L 260.518723 77.282353 
L 260.824616 81.948413 
L 261.130509 90.375628 
L 261.436402 71.637999 
L 261.742295 87.081154 
L 262.048188 91.863087 
L 262.354081 80.041275 
L 262.659975 84.596373 
L 262.965868 79.640647 
L 263.271761 102.229687 
L 263.577654 81.413516 
L 263.883547 117.591208 
L 264.18944 82.356919 
L 264.495333 101.065961 
L 264.801226 108.148213 
L 265.107119 86.932777 
L 265.413012 88.956399 
L 265.718906 93.441942 
L 266.024799 111.277182 
L 266.636585 81.888722 
L 266.942478 103.183508 
L 267.248371 98.687531 
L 267.554264 66.193655 
L 267.860157 77.636406 
L 268.16605 93.970878 
L 268.471943 100.001074 
L 268.777837 89.241274 
L 269.08373 98.166839 
L 269.389623 73.868259 
L 269.695516 74.188537 
L 270.001409 91.480759 
L 270.307302 97.680473 
L 270.613195 93.785531 
L 270.919088 102.746022 
L 271.224981 95.698284 
L 271.530874 101.026194 
L 271.836768 68.435353 
L 272.142661 106.375394 
L 272.448554 75.801071 
L 272.754447 112.645483 
L 273.06034 115.103033 
L 273.366233 107.511668 
L 273.672126 69.387857 
L 273.978019 76.49001 
L 274.283912 108.216486 
L 274.895699 91.834308 
L 275.201592 107.260006 
L 275.507485 103.243388 
L 275.813378 77.331507 
L 276.119271 115.174691 
L 276.731057 94.393504 
L 277.03695 91.589115 
L 277.342843 113.85531 
L 277.648737 117.56474 
L 277.95463 116.680162 
L 278.260523 88.972136 
L 278.566416 108.685519 
L 278.872309 97.744706 
L 279.178202 112.785999 
L 279.484095 98.262576 
L 279.789988 94.945793 
L 280.095881 119.745307 
L 280.401774 98.233874 
L 280.707668 124.957825 
L 281.013561 114.345206 
L 281.319454 96.052599 
L 281.625347 125.117621 
L 281.93124 112.28151 
L 282.237133 106.823198 
L 282.543026 130.13931 
L 282.848919 108.806225 
L 283.154812 127.504465 
L 283.460705 127.014043 
L 283.766599 134.021548 
L 284.072492 112.109289 
L 284.378385 134.612596 
L 284.684278 114.822526 
L 284.990171 138.91844 
L 285.296064 124.598057 
L 285.601957 148.061203 
L 286.213743 99.920985 
L 286.519636 122.074933 
L 286.82553 126.344106 
L 287.131423 122.872171 
L 287.437316 118.078269 
L 287.743209 111.491663 
L 288.049102 135.010409 
L 288.354995 134.910009 
L 288.660888 167.325404 
L 288.966781 126.066582 
L 289.272674 124.38741 
L 289.578567 108.196004 
L 289.884461 130.404203 
L 290.190354 136.040582 
L 290.496247 158.740653 
L 290.80214 129.557985 
L 291.108033 153.851808 
L 291.413926 123.2835 
L 291.719819 136.31287 
L 292.025712 120.884019 
L 292.331605 96.189169 
L 292.943392 149.629324 
L 293.249285 137.665574 
L 293.555178 140.261958 
L 293.861071 135.073641 
L 294.166964 142.210777 
L 294.472857 106.799898 
L 294.77875 136.499763 
L 295.084643 135.68349 
L 295.390536 145.290898 
L 295.69643 119.254024 
L 296.002323 125.727309 
L 296.308216 138.953753 
L 296.614109 146.953354 
L 296.920002 128.838406 
L 297.225895 155.782426 
L 297.531788 145.428062 
L 297.837681 158.030578 
L 298.143574 163.690446 
L 298.449467 149.610727 
L 298.755361 169.766519 
L 299.061254 140.396276 
L 299.367147 140.582361 
L 299.67304 153.840197 
L 299.978933 134.027485 
L 300.590719 171.638502 
L 300.896612 166.230325 
L 301.508398 145.630803 
L 301.814292 148.613863 
L 302.120185 137.92901 
L 302.426078 142.557903 
L 302.731971 143.528945 
L 303.037864 151.371423 
L 303.343757 165.529 
L 303.64965 168.485927 
L 303.955543 164.901199 
L 304.261436 145.324581 
L 304.567329 147.737525 
L 304.873223 176.972252 
L 305.179116 172.227671 
L 305.485009 189.909571 
L 305.790902 145.725051 
L 306.096795 164.382358 
L 306.402688 144.530874 
L 306.708581 140.809891 
L 307.014474 158.93934 
L 307.320367 165.246139 
L 307.62626 153.188379 
L 307.932154 169.109116 
L 308.238047 167.236179 
L 308.54394 174.868945 
L 308.849833 174.248383 
L 309.155726 171.738686 
L 309.461619 159.811412 
L 309.767512 163.875344 
L 310.073405 163.677651 
L 310.379298 140.161584 
L 310.685192 157.487469 
L 310.991085 142.159727 
L 311.602871 181.598095 
L 311.908764 165.087287 
L 312.214657 172.465278 
L 312.52055 143.736264 
L 312.826443 170.389092 
L 313.132336 172.138042 
L 313.438229 193.551258 
L 313.744123 178.97159 
L 314.050016 170.627099 
L 314.355909 198.895794 
L 314.661802 157.446073 
L 315.273588 187.032733 
L 315.579481 165.762574 
L 316.191267 184.585702 
L 316.49716 169.196546 
L 316.803054 165.616373 
L 317.108947 189.374212 
L 317.41484 175.374621 
L 317.720733 181.799598 
L 318.026626 164.824135 
L 318.332519 180.373138 
L 318.944305 189.890855 
L 319.250198 185.029196 
L 319.556091 211.258853 
L 319.861985 176.276481 
L 320.473771 194.189185 
L 320.779664 225.344545 
L 321.085557 207.688737 
L 321.39145 218.548977 
L 321.697343 172.554336 
L 322.003236 197.787064 
L 322.309129 184.645105 
L 322.615022 222.367302 
L 322.920916 183.707563 
L 323.226809 178.862641 
L 323.532702 172.022412 
L 323.838595 187.944681 
L 324.144488 183.054123 
L 324.450381 198.373335 
L 324.756274 188.369825 
L 325.062167 200.757553 
L 325.36806 179.059033 
L 325.979847 209.731872 
L 326.591633 189.713448 
L 326.897526 201.976987 
L 327.203419 205.048382 
L 327.509312 193.914694 
L 327.815205 217.58866 
L 328.121098 189.256712 
L 328.426991 205.607783 
L 328.732885 188.009676 
L 329.038778 206.901582 
L 329.344671 191.819611 
L 329.650564 201.796362 
L 329.956457 201.751342 
L 330.26235 190.755024 
L 330.568243 209.485579 
L 330.874136 198.618624 
L 331.180029 223.314203 
L 331.485922 218.905947 
L 331.791816 203.299605 
L 332.403602 211.583972 
L 332.709495 197.959507 
L 333.015388 221.599497 
L 333.321281 186.701063 
L 333.627174 193.390461 
L 333.933067 208.823333 
L 334.23896 209.667555 
L 334.544853 187.987062 
L 334.850747 195.814939 
L 335.15664 209.623943 
L 335.462533 185.656147 
L 335.768426 183.729492 
L 336.380212 208.545867 
L 336.686105 196.523772 
L 336.991998 202.939764 
L 337.297891 178.321806 
L 337.603784 223.065924 
L 337.909678 224.676942 
L 338.215571 196.775687 
L 338.827357 227.136985 
L 339.13325 187.886676 
L 339.439143 202.098498 
L 339.745036 192.001513 
L 340.050929 212.999244 
L 340.356822 193.090785 
L 340.662715 216.753159 
L 340.968609 215.51145 
L 341.274502 209.654993 
L 341.580395 198.79296 
L 342.192181 210.983849 
L 342.498074 191.380651 
L 342.803967 211.784659 
L 343.10986 212.318555 
L 343.415753 197.162534 
L 343.721647 228.880347 
L 344.333433 193.103674 
L 344.639326 199.616946 
L 344.945219 200.004585 
L 345.251112 207.838774 
L 345.557005 184.632643 
L 345.862898 225.802871 
L 346.168791 212.768314 
L 346.474684 208.982518 
L 346.780578 213.123175 
L 347.086471 222.834895 
L 347.392364 208.650887 
L 347.698257 200.580635 
L 348.00415 201.992308 
L 348.310043 214.673663 
L 348.615936 206.132392 
L 348.921829 206.947942 
L 349.227722 213.333184 
L 349.533615 212.390678 
L 349.839509 189.231819 
L 350.145402 226.951953 
L 350.451295 225.702123 
L 350.757188 201.934976 
L 351.063081 192.703965 
L 351.368974 214.090905 
L 351.674867 200.509128 
L 351.98076 202.372177 
L 352.286653 194.3419 
L 352.592546 228.48386 
L 352.89844 233.997178 
L 353.204333 203.608448 
L 353.510226 187.062701 
L 354.122012 216.934419 
L 354.733798 199.907786 
L 355.039691 207.515186 
L 355.345584 193.760828 
L 355.651477 238.008839 
L 356.263264 192.222475 
L 356.569157 202.774125 
L 356.87505 226.68965 
L 357.180943 194.864508 
L 357.486836 180.927343 
L 357.792729 201.902432 
L 358.098622 206.954508 
L 358.404515 218.086141 
L 359.016302 182.054442 
L 359.322195 205.832435 
L 359.628088 180.422269 
L 359.933981 193.995148 
L 360.239874 197.477046 
L 360.545767 191.243634 
L 360.85166 193.95809 
L 361.157553 200.317096 
L 361.463446 214.232471 
L 361.76934 193.702738 
L 362.075233 210.574785 
L 362.381126 213.152886 
L 362.687019 210.77996 
L 362.992912 201.450137 
L 362.992912 201.450137 
" clip-path="url(#pc097d7d252)" style="fill: none; stroke: #9100ff; stroke-width: 0.25; stroke-linecap: round"/>
   </g>
   <g id="line2d_15">
    <path d="M 58.629276 64.441194 
L 58.935169 95.00625 
L 59.546955 60.310405 
L 59.852848 89.050735 
L 60.158741 74.66335 
L 60.464634 74.301353 
L 61.07642 90.04482 
L 61.382313 70.19297 
L 61.688207 81.944342 
L 61.9941 103.611953 
L 62.299993 83.15948 
L 62.605886 74.232041 
L 62.911779 84.202869 
L 63.217672 83.377428 
L 63.523565 78.07328 
L 63.829458 68.550455 
L 64.135351 85.556579 
L 64.747138 77.655102 
L 65.053031 96.073542 
L 65.358924 68.037749 
L 65.664817 81.504677 
L 65.97071 81.359209 
L 66.276603 72.615496 
L 66.582496 72.813405 
L 66.888389 63.044219 
L 67.194282 83.136039 
L 67.806069 58.705806 
L 68.111962 92.178054 
L 68.417855 83.496111 
L 68.723748 67.693688 
L 69.029641 89.99669 
L 69.335534 89.387227 
L 69.94732 81.156382 
L 70.253213 83.16578 
L 70.559107 101.588931 
L 70.865 83.586313 
L 71.170893 82.27329 
L 71.476786 92.083237 
L 71.782679 79.198955 
L 72.088572 88.187429 
L 72.394465 78.251738 
L 72.700358 78.831524 
L 73.006251 72.487493 
L 73.312144 101.016488 
L 73.618038 83.931253 
L 73.923931 73.909823 
L 74.229824 85.537821 
L 74.535717 88.86032 
L 74.84161 90.102841 
L 75.453396 80.270203 
L 75.759289 84.540804 
L 76.065182 106.124737 
L 76.371075 77.340836 
L 76.676969 87.004048 
L 76.982862 102.708568 
L 77.288755 82.443551 
L 77.594648 94.587507 
L 77.900541 83.454515 
L 78.206434 99.349543 
L 78.512327 81.082128 
L 78.81822 84.154774 
L 79.124113 96.093536 
L 79.430006 92.848817 
L 79.7359 81.937095 
L 80.041793 107.849818 
L 80.347686 94.70129 
L 80.653579 94.792709 
L 80.959472 107.055528 
L 81.265365 99.990568 
L 81.571258 84.762104 
L 82.183044 110.91728 
L 82.488938 91.240836 
L 83.100724 111.552986 
L 83.406617 114.695418 
L 83.71251 109.319948 
L 84.018403 110.230034 
L 84.324296 112.422868 
L 84.630189 96.719686 
L 84.936082 133.754938 
L 85.241975 90.484723 
L 85.853762 112.067318 
L 86.159655 106.227208 
L 86.465548 92.700759 
L 86.771441 102.646225 
L 87.077334 106.018485 
L 87.383227 100.456175 
L 87.68912 96.997225 
L 87.995013 133.381313 
L 88.300906 88.134946 
L 88.912693 128.458545 
L 89.218586 106.28792 
L 89.524479 118.87027 
L 89.830372 111.887484 
L 90.136265 101.437051 
L 90.442158 134.284499 
L 90.748051 103.594373 
L 91.053944 112.664398 
L 91.359837 112.597429 
L 91.665731 109.64459 
L 91.971624 118.468202 
L 92.277517 123.105491 
L 92.58341 112.185511 
L 92.889303 111.593819 
L 93.195196 128.518672 
L 93.501089 128.273169 
L 93.806982 115.47872 
L 94.112875 143.055964 
L 94.418768 120.641908 
L 94.724662 133.947028 
L 95.030555 142.046746 
L 95.336448 121.326818 
L 95.642341 121.394914 
L 95.948234 153.525954 
L 96.254127 110.032933 
L 96.56002 143.68736 
L 96.865913 140.47493 
L 97.171806 125.151154 
L 97.4777 146.408959 
L 97.783593 131.506336 
L 98.089486 108.899068 
L 98.395379 146.513303 
L 98.701272 121.231183 
L 99.007165 125.164441 
L 99.313058 126.919772 
L 99.618951 143.826706 
L 99.924844 123.776725 
L 100.230737 113.010013 
L 100.536631 168.813587 
L 100.842524 114.433677 
L 101.148417 111.320864 
L 101.760203 151.330703 
L 102.066096 111.940698 
L 102.677882 153.925154 
L 102.983775 116.306272 
L 103.289668 159.002353 
L 103.595562 150.38821 
L 103.901455 127.849192 
L 104.207348 153.607769 
L 104.513241 145.998486 
L 104.819134 144.478395 
L 105.125027 172.429077 
L 105.43092 141.220733 
L 105.736813 154.880072 
L 106.042706 162.914958 
L 106.654493 145.574727 
L 106.960386 155.272162 
L 107.266279 150.720389 
L 107.572172 135.606193 
L 107.878065 162.156517 
L 108.489851 134.84142 
L 109.101637 169.172933 
L 109.40753 140.178711 
L 109.713424 123.735921 
L 110.019317 172.680186 
L 110.32521 143.306139 
L 110.631103 132.05423 
L 110.936996 153.744098 
L 111.242889 152.469824 
L 111.548782 133.71349 
L 111.854675 153.813358 
L 112.160568 160.86286 
L 112.466461 144.951421 
L 112.772355 166.322758 
L 113.078248 153.852127 
L 113.384141 167.910265 
L 113.690034 174.54957 
L 113.995927 149.27968 
L 114.30182 181.663659 
L 114.607713 152.3962 
L 114.913606 158.207456 
L 115.219499 174.614152 
L 115.525393 150.84382 
L 115.831286 189.111267 
L 116.137179 152.865497 
L 116.443072 166.520564 
L 116.748965 186.055077 
L 117.054858 168.897512 
L 117.360751 164.489741 
L 117.666644 147.978024 
L 117.972537 174.373396 
L 118.27843 169.502342 
L 118.584324 144.795669 
L 118.890217 171.676643 
L 119.19611 170.316437 
L 119.502003 155.614076 
L 119.807896 173.83196 
L 120.113789 178.835616 
L 120.419682 155.216885 
L 121.031468 196.859702 
L 121.337361 157.650958 
L 121.643255 183.228147 
L 121.949148 178.019974 
L 122.255041 183.698003 
L 122.560934 170.344604 
L 123.17272 186.863069 
L 123.784506 166.72415 
L 124.090399 192.60869 
L 124.396292 182.462779 
L 124.702186 158.686356 
L 125.008079 187.252721 
L 125.313972 186.819907 
L 125.619865 164.904186 
L 125.925758 192.409742 
L 126.231651 194.738564 
L 126.537544 168.943333 
L 126.843437 185.625766 
L 127.14933 195.017931 
L 127.761117 172.613146 
L 128.06701 194.946229 
L 128.372903 189.874745 
L 128.678796 169.559389 
L 128.984689 176.021229 
L 129.290582 185.949153 
L 129.596475 179.358945 
L 129.902368 177.540893 
L 130.208261 180.236672 
L 130.514155 181.472466 
L 130.820048 187.767924 
L 131.125941 176.361865 
L 131.431834 190.094599 
L 131.737727 170.71317 
L 132.04362 188.723223 
L 132.349513 185.542945 
L 132.655406 184.736847 
L 132.961299 196.451423 
L 133.267192 194.787017 
L 133.878979 204.00903 
L 134.184872 187.418267 
L 134.490765 217.621342 
L 134.796658 192.129505 
L 135.102551 197.232308 
L 135.408444 197.85431 
L 135.714337 185.241848 
L 136.02023 206.392602 
L 136.326123 199.107973 
L 136.632017 186.545027 
L 137.243803 200.966099 
L 137.549696 187.842563 
L 137.855589 206.296988 
L 138.161482 190.615002 
L 138.467375 211.584149 
L 138.773268 210.034231 
L 139.079161 182.509235 
L 139.385054 214.906185 
L 139.690948 191.562369 
L 139.996841 208.736379 
L 140.302734 191.942573 
L 140.608627 189.328645 
L 140.91452 215.248762 
L 141.220413 190.497328 
L 141.526306 193.494184 
L 141.832199 204.96665 
L 142.138092 206.046919 
L 142.443985 183.45457 
L 142.749879 193.893861 
L 143.055772 222.598139 
L 143.361665 199.623015 
L 143.667558 192.817463 
L 144.279344 208.514008 
L 144.585237 184.261603 
L 145.197023 212.645453 
L 145.502917 194.114323 
L 145.80881 222.619075 
L 146.114703 207.57873 
L 146.420596 204.580904 
L 146.726489 219.206112 
L 147.032382 208.400691 
L 147.338275 202.92129 
L 147.644168 221.468438 
L 147.950061 191.543341 
L 148.255954 239.396078 
L 148.561848 206.606201 
L 148.867741 205.310361 
L 149.173634 220.165899 
L 149.78542 220.880654 
L 150.091313 204.043644 
L 150.397206 231.486843 
L 150.703099 226.409298 
L 151.008992 201.98535 
L 151.314885 227.283969 
L 151.620779 205.322292 
L 151.926672 222.228907 
L 152.232565 204.914767 
L 152.538458 226.352439 
L 152.844351 201.378927 
L 153.150244 221.512712 
L 153.456137 206.013121 
L 153.76203 214.78865 
L 154.067923 209.090077 
L 154.373816 198.148733 
L 154.67971 221.951279 
L 155.291496 188.699189 
L 155.597389 204.343159 
L 155.903282 195.899569 
L 156.209175 210.506635 
L 156.515068 177.30655 
L 156.820961 207.449591 
L 157.126854 212.662379 
L 157.432747 208.116944 
L 157.738641 186.076233 
L 158.044534 213.104594 
L 158.350427 221.677508 
L 158.65632 189.379092 
L 158.962213 203.557232 
L 159.268106 207.964145 
L 159.573999 193.44712 
L 159.879892 213.507093 
L 160.185785 196.728635 
L 160.491678 201.638771 
L 160.797572 208.569459 
L 161.103465 206.254538 
L 161.409358 214.475754 
L 161.715251 215.85321 
L 162.021144 201.320745 
L 162.327037 221.618763 
L 162.63293 212.573346 
L 162.938823 208.733038 
L 163.244716 215.824761 
L 163.55061 198.175276 
L 163.856503 204.806288 
L 164.162396 207.387695 
L 164.468289 202.507342 
L 164.774182 209.474087 
L 165.080075 196.160101 
L 165.385968 200.690249 
L 165.691861 222.502456 
L 165.997754 187.947768 
L 166.303647 185.024997 
L 166.609541 218.71505 
L 166.915434 204.911985 
L 167.221327 185.887399 
L 167.52722 205.794973 
L 167.833113 217.037129 
L 168.139006 195.50832 
L 168.444899 197.567838 
L 168.750792 201.86554 
L 169.056685 218.325791 
L 169.362578 175.73047 
L 169.668472 218.441032 
L 169.974365 202.12849 
L 170.280258 202.443491 
L 170.586151 211.297915 
L 170.892044 203.633976 
L 171.197937 203.831188 
L 171.50383 199.344155 
L 171.809723 210.410959 
L 172.115616 191.545751 
L 172.421509 198.257928 
L 172.727403 189.350432 
L 173.033296 199.372885 
L 173.339189 202.757684 
L 173.645082 168.166112 
L 173.950975 199.800907 
L 174.256868 200.876743 
L 174.562761 178.983932 
L 174.868654 189.195277 
L 175.174547 205.77971 
L 175.786334 183.918095 
L 176.092227 205.147729 
L 176.39812 189.178709 
L 176.704013 198.28715 
L 177.009906 190.250242 
L 177.315799 187.600173 
L 177.621692 190.530595 
L 177.927585 184.118151 
L 178.233478 203.681517 
L 178.845265 173.638429 
L 179.151158 206.783108 
L 179.457051 178.532796 
L 179.762944 176.7114 
L 180.068837 195.300055 
L 180.37473 178.265251 
L 180.680623 177.316383 
L 181.292409 191.686608 
L 181.598303 181.592014 
L 181.904196 190.081991 
L 182.210089 170.624809 
L 182.515982 188.415977 
L 182.821875 196.426122 
L 183.127768 171.962101 
L 183.433661 173.39173 
L 183.739554 195.374617 
L 184.045447 180.525834 
L 184.35134 179.133438 
L 184.963127 189.212969 
L 185.26902 181.35112 
L 185.574913 191.207146 
L 185.880806 173.961208 
L 186.186699 188.201519 
L 186.492592 174.656504 
L 186.798485 174.512704 
L 187.104378 187.206203 
L 187.410271 169.973156 
L 187.716165 190.783534 
L 188.022058 167.63952 
L 188.327951 200.143237 
L 188.633844 171.790911 
L 188.939737 173.041555 
L 189.24563 190.78116 
L 189.551523 168.11395 
L 189.857416 181.938169 
L 190.163309 164.128596 
L 190.469202 166.865719 
L 190.775096 171.808314 
L 191.080989 152.627998 
L 191.386882 164.968945 
L 191.692775 169.989403 
L 191.998668 147.247252 
L 192.610454 169.095156 
L 192.916347 156.022904 
L 193.22224 160.963986 
L 193.528133 170.383404 
L 193.834027 158.526496 
L 194.13992 170.56079 
L 194.445813 149.186861 
L 194.751706 169.32617 
L 195.057599 155.416531 
L 195.363492 149.713352 
L 195.669385 157.964726 
L 196.281171 146.555042 
L 196.587065 153.657242 
L 196.892958 153.615146 
L 197.198851 134.450939 
L 197.504744 146.749108 
L 197.810637 147.607688 
L 198.11653 153.792334 
L 198.422423 138.623261 
L 198.728316 168.466223 
L 199.034209 143.648143 
L 199.340102 140.909098 
L 199.645996 181.250542 
L 199.951889 144.954078 
L 200.257782 143.898819 
L 200.563675 149.553742 
L 200.869568 167.898796 
L 201.175461 143.717073 
L 201.481354 148.09546 
L 201.787247 154.083227 
L 202.399033 137.782939 
L 202.704927 152.394071 
L 203.01082 126.933433 
L 203.316713 140.680577 
L 203.622606 125.675473 
L 203.928499 141.154819 
L 204.234392 127.046542 
L 204.540285 149.129389 
L 204.846178 138.670552 
L 205.152071 142.607499 
L 205.457964 142.376745 
L 205.763858 138.185588 
L 206.375644 145.993026 
L 206.681537 134.525911 
L 206.98743 138.364358 
L 207.293323 146.903529 
L 207.599216 123.239657 
L 207.905109 149.720266 
L 208.211002 118.937516 
L 208.516895 133.849038 
L 209.128682 123.572718 
L 209.740468 110.228987 
L 210.046361 143.286892 
L 210.352254 130.461293 
L 210.658147 87.447796 
L 210.96404 138.295308 
L 211.269933 139.204742 
L 211.575827 100.390403 
L 211.88172 139.683781 
L 212.187613 115.433367 
L 212.493506 121.502767 
L 212.799399 120.637486 
L 213.105292 122.556976 
L 213.411185 123.58289 
L 213.717078 112.842144 
L 214.022971 122.134857 
L 214.328864 140.667439 
L 214.634758 104.677737 
L 214.940651 109.994147 
L 215.246544 133.804635 
L 215.552437 118.272643 
L 215.85833 76.195072 
L 216.164223 114.760743 
L 216.470116 132.981917 
L 216.776009 79.693188 
L 217.081902 119.95053 
L 217.387795 104.579729 
L 217.693689 106.872136 
L 217.999582 125.148903 
L 218.305475 91.639397 
L 218.611368 108.059673 
L 218.917261 134.388951 
L 219.223154 87.393316 
L 219.529047 116.545743 
L 219.83494 111.730705 
L 220.140833 97.803827 
L 220.446726 97.471858 
L 220.75262 106.94552 
L 221.058513 102.667003 
L 221.364406 107.569169 
L 221.670299 106.082541 
L 221.976192 119.730671 
L 222.282085 99.486875 
L 222.587978 112.680905 
L 222.893871 100.773351 
L 223.199764 106.780986 
L 223.505657 93.295562 
L 223.811551 112.819626 
L 224.117444 94.678041 
L 224.423337 105.168518 
L 225.035123 87.784445 
L 225.341016 122.786977 
L 225.646909 96.108049 
L 225.952802 98.687462 
L 226.258695 110.380697 
L 226.564588 95.994878 
L 226.870482 112.398328 
L 227.482268 106.164142 
L 227.788161 94.79008 
L 228.094054 110.322568 
L 228.399947 108.656701 
L 228.70584 87.012438 
L 229.011733 88.972109 
L 229.317626 88.663042 
L 229.62352 100.402179 
L 229.929413 65.853772 
L 230.541199 113.264397 
L 230.847092 76.016167 
L 231.152985 95.922248 
L 231.458878 90.092916 
L 231.764771 104.735974 
L 232.070664 102.515974 
L 232.376557 78.051674 
L 232.682451 95.27543 
L 232.988344 103.074844 
L 233.294237 89.130697 
L 233.60013 96.823386 
L 233.906023 101.025855 
L 234.211916 98.324738 
L 234.517809 109.446165 
L 234.823702 101.330708 
L 235.129595 103.606127 
L 235.435488 91.041341 
L 235.741382 112.707891 
L 236.047275 75.425227 
L 236.353168 87.535913 
L 236.659061 85.527969 
L 236.964954 85.176664 
L 237.270847 70.326846 
L 237.882633 88.177307 
L 238.188526 89.657766 
L 238.494419 79.986887 
L 238.800313 88.080731 
L 239.106206 100.613781 
L 239.412099 101.904529 
L 239.717992 75.378406 
L 240.023885 80.329895 
L 240.329778 90.093863 
L 240.635671 80.989093 
L 240.941564 65.475558 
L 241.247457 81.528438 
L 241.55335 81.220145 
L 241.859244 75.687184 
L 242.165137 100.081748 
L 242.47103 72.831724 
L 242.776923 91.714463 
L 243.082816 81.366014 
L 243.388709 67.12764 
L 243.694602 92.838668 
L 244.306388 68.011325 
L 244.612282 89.575207 
L 244.918175 101.257339 
L 245.224068 69.724315 
L 245.529961 81.576345 
L 245.835854 87.059791 
L 246.141747 70.592366 
L 246.44764 86.168147 
L 246.753533 68.249621 
L 247.059426 82.512013 
L 247.671213 85.904151 
L 247.977106 60.107839 
L 248.588892 96.011146 
L 248.894785 65.319214 
L 249.200678 77.820083 
L 249.506571 83.859461 
L 249.812464 87.544557 
L 250.118357 94.156829 
L 250.42425 73.657919 
L 250.730144 87.063501 
L 251.036037 78.245411 
L 251.34193 88.991194 
L 251.647823 64.489348 
L 251.953716 96.049473 
L 252.259609 91.076802 
L 252.565502 93.533542 
L 252.871395 67.291451 
L 253.483181 104.84097 
L 253.789075 69.374742 
L 254.094968 74.387623 
L 254.400861 77.422556 
L 254.706754 88.366526 
L 255.012647 87.350173 
L 255.31854 69.898224 
L 255.624433 92.407906 
L 255.930326 67.608696 
L 256.236219 74.385622 
L 256.542112 76.800713 
L 256.848006 84.306923 
L 257.153899 80.534327 
L 257.459792 74.707246 
L 257.765685 94.440249 
L 258.071578 89.670274 
L 258.377471 78.33556 
L 258.683364 106.721692 
L 258.989257 69.478376 
L 259.29515 70.838652 
L 259.601043 95.793074 
L 260.21283 70.542427 
L 260.824616 86.975115 
L 261.130509 80.092542 
L 261.436402 90.219572 
L 261.742295 76.729691 
L 262.048188 81.926442 
L 262.354081 97.144768 
L 262.659975 75.122083 
L 262.965868 85.131694 
L 263.271761 90.259112 
L 263.577654 89.746075 
L 263.883547 88.258204 
L 264.18944 91.372934 
L 264.495333 102.565474 
L 264.801226 81.324453 
L 265.107119 122.141658 
L 265.413012 83.814857 
L 265.718906 93.195623 
L 266.024799 106.319636 
L 266.330692 99.045052 
L 266.636585 94.777484 
L 266.942478 85.014362 
L 267.248371 109.370472 
L 267.554264 103.020991 
L 267.860157 72.749919 
L 268.471943 104.23509 
L 268.777837 82.793763 
L 269.08373 82.426548 
L 269.389623 94.733964 
L 269.695516 92.668084 
L 270.001409 79.61958 
L 270.307302 100.207273 
L 270.613195 87.854736 
L 270.919088 82.353433 
L 271.224981 96.179501 
L 271.530874 99.748878 
L 272.142661 90.820965 
L 272.754447 101.093921 
L 273.06034 79.462178 
L 273.366233 120.53852 
L 273.672126 85.703148 
L 273.978019 93.610198 
L 274.283912 95.666326 
L 274.589805 115.556889 
L 274.895699 87.027605 
L 275.201592 78.701658 
L 275.507485 109.132703 
L 275.813378 105.501569 
L 276.119271 84.004033 
L 276.425164 109.009187 
L 276.731057 113.319128 
L 277.03695 78.971097 
L 277.342843 106.47257 
L 277.648737 110.238939 
L 277.95463 108.883097 
L 278.260523 100.76508 
L 278.566416 103.38179 
L 278.872309 111.205776 
L 279.178202 116.136933 
L 279.484095 96.160585 
L 279.789988 108.788599 
L 280.095881 93.580356 
L 280.401774 118.516691 
L 280.707668 103.095149 
L 281.013561 102.585429 
L 281.319454 124.934403 
L 281.625347 93.046668 
L 281.93124 125.056895 
L 282.237133 120.867087 
L 282.543026 95.840696 
L 282.848919 129.284392 
L 283.154812 115.540051 
L 283.460705 110.499795 
L 283.766599 135.090156 
L 284.072492 117.765958 
L 284.990171 132.557855 
L 285.296064 118.661441 
L 285.601957 136.976321 
L 285.90785 124.556015 
L 286.213743 136.999275 
L 286.519636 107.723631 
L 286.82553 138.604207 
L 287.131423 130.322821 
L 287.437316 108.12907 
L 287.743209 120.052578 
L 288.049102 120.586396 
L 288.354995 128.772238 
L 288.660888 130.190368 
L 289.272674 135.890353 
L 289.578567 120.761864 
L 289.884461 147.983767 
L 290.190354 126.854768 
L 290.496247 135.462671 
L 290.80214 128.325408 
L 291.413926 137.102091 
L 291.719819 151.20934 
L 292.025712 125.540898 
L 292.331605 146.246432 
L 292.637499 108.430486 
L 292.943392 129.873115 
L 293.249285 141.123861 
L 293.555178 114.885368 
L 293.861071 124.866075 
L 294.166964 145.860062 
L 294.472857 139.107962 
L 294.77875 128.044811 
L 295.084643 130.667875 
L 295.390536 149.048904 
L 295.69643 119.794224 
L 296.002323 130.979109 
L 296.308216 127.182936 
L 296.614109 147.771034 
L 296.920002 132.727243 
L 297.225895 126.806794 
L 297.531788 143.196003 
L 297.837681 152.883643 
L 298.143574 136.674246 
L 298.449467 162.623358 
L 298.755361 146.448104 
L 299.061254 160.641956 
L 299.367147 158.491106 
L 299.67304 139.253128 
L 299.978933 167.426332 
L 300.284826 139.811964 
L 300.590719 141.843009 
L 300.896612 167.216027 
L 301.202505 148.012899 
L 301.508398 150.703569 
L 301.814292 159.858894 
L 302.120185 159.147086 
L 302.731971 142.902535 
L 303.037864 149.005854 
L 303.343757 143.676395 
L 303.64965 153.769666 
L 303.955543 155.339193 
L 304.567329 156.008068 
L 304.873223 157.64006 
L 305.179116 173.494187 
L 305.485009 160.694339 
L 305.790902 161.227352 
L 306.096795 166.394393 
L 306.402688 160.502564 
L 306.708581 179.167417 
L 307.014474 138.644549 
L 307.320367 164.697343 
L 307.62626 156.765613 
L 307.932154 144.676106 
L 308.238047 161.020576 
L 308.54394 170.067321 
L 308.849833 160.156057 
L 309.155726 172.616223 
L 309.461619 167.998416 
L 309.767512 168.097022 
L 310.073405 168.591565 
L 310.379298 170.592614 
L 310.685192 150.884962 
L 310.991085 158.272707 
L 311.296978 160.320523 
L 311.602871 147.109382 
L 311.908764 173.445606 
L 312.214657 150.923569 
L 312.52055 164.238114 
L 312.826443 168.574175 
L 313.132336 162.68267 
L 313.438229 180.080112 
L 313.744123 161.805095 
L 314.050016 176.564731 
L 314.355909 166.35065 
L 314.661802 196.650771 
L 314.967695 174.448677 
L 315.273588 162.27338 
L 315.579481 201.697866 
L 315.885374 160.536936 
L 316.191267 169.513545 
L 316.49716 190.198706 
L 316.803054 167.020707 
L 317.108947 167.787282 
L 317.41484 188.321194 
L 318.026626 167.274535 
L 318.332519 181.456136 
L 318.638412 174.317522 
L 318.944305 187.565055 
L 319.250198 173.945062 
L 319.556091 182.158223 
L 319.861985 194.706698 
L 320.167878 187.809693 
L 320.473771 176.654607 
L 320.779664 209.794681 
L 321.085557 196.972311 
L 321.39145 197.647342 
L 321.697343 197.316049 
L 322.003236 205.801554 
L 322.309129 195.314033 
L 322.615022 213.403135 
L 322.920916 188.474714 
L 323.226809 198.105275 
L 323.532702 171.259961 
L 323.838595 205.122909 
L 324.144488 185.197505 
L 324.450381 183.617984 
L 324.756274 180.313435 
L 325.062167 190.55685 
L 325.36806 186.881215 
L 325.673954 192.717585 
L 325.979847 186.417135 
L 326.28574 209.522472 
L 326.591633 186.450383 
L 326.897526 188.793363 
L 327.203419 206.509144 
L 327.509312 203.408211 
L 327.815205 189.748659 
L 328.121098 206.31939 
L 328.426991 202.414219 
L 328.732885 191.366742 
L 329.038778 210.498137 
L 329.344671 191.832765 
L 329.650564 204.202786 
L 329.956457 188.877335 
L 330.26235 207.677095 
L 330.568243 189.502993 
L 330.874136 203.220567 
L 331.180029 203.973135 
L 331.485922 200.228698 
L 331.791816 217.732157 
L 332.097709 195.868992 
L 332.403602 214.445173 
L 332.709495 217.926002 
L 333.015388 200.295002 
L 333.321281 210.799426 
L 333.627174 205.302533 
L 333.933067 187.507473 
L 334.23896 221.452028 
L 334.544853 197.295602 
L 334.850747 188.461294 
L 335.462533 213.329874 
L 335.768426 187.280865 
L 336.074319 185.050767 
L 336.380212 207.056672 
L 336.991998 188.435366 
L 337.297891 195.991142 
L 337.603784 197.571471 
L 337.909678 203.434354 
L 338.215571 221.250417 
L 338.521464 179.546962 
L 338.827357 214.781122 
L 339.13325 231.399249 
L 339.439143 191.415188 
L 339.745036 201.602883 
L 340.050929 218.888975 
L 340.356822 194.984845 
L 340.662715 201.935561 
L 340.968609 196.592711 
L 341.274502 219.458432 
L 341.580395 196.111479 
L 341.886288 207.722789 
L 342.498074 212.099872 
L 342.803967 194.871374 
L 343.415753 216.506173 
L 343.721647 190.506195 
L 344.02754 216.48185 
L 344.333433 217.445554 
L 344.639326 187.884066 
L 344.945219 215.781126 
L 345.251112 209.184644 
L 345.557005 198.156507 
L 345.862898 193.642935 
L 346.474684 218.157916 
L 346.780578 186.973007 
L 347.086471 220.962329 
L 347.392364 217.540168 
L 347.698257 208.83825 
L 348.00415 203.754817 
L 348.310043 214.153945 
L 348.615936 212.051573 
L 348.921829 203.901247 
L 349.227722 200.609845 
L 349.533615 214.80045 
L 349.839509 208.955724 
L 350.145402 197.645637 
L 350.451295 215.711675 
L 350.757188 225.800562 
L 351.063081 188.508512 
L 351.674867 222.264214 
L 352.286653 191.532654 
L 352.592546 207.197237 
L 352.89844 210.78173 
L 353.204333 221.072975 
L 353.510226 193.463134 
L 353.816119 204.998304 
L 354.122012 222.56528 
L 354.427905 213.504014 
L 354.733798 195.427923 
L 355.039691 198.728773 
L 355.345584 212.129244 
L 355.651477 204.328173 
L 355.957371 212.947904 
L 356.263264 217.363557 
L 356.569157 182.902281 
L 356.87505 222.694992 
L 357.180943 223.27925 
L 357.486836 194.464504 
L 357.792729 185.150237 
L 358.098622 218.186334 
L 358.710409 194.229529 
L 359.016302 202.432107 
L 359.322195 192.000932 
L 359.628088 211.741601 
L 359.933981 198.822294 
L 360.239874 180.161263 
L 360.545767 207.276348 
L 360.85166 183.312523 
L 361.463446 199.572995 
L 361.76934 201.222891 
L 362.075233 194.287181 
L 362.381126 199.529148 
L 362.687019 218.352908 
L 362.992912 198.456233 
L 362.992912 198.456233 
" clip-path="url(#pc097d7d252)" style="fill: none; stroke: #00c6ff; stroke-width: 0.25; stroke-linecap: round"/>
   </g>
   <g id="line2d_16"/>
   <g id="line2d_17"/>
   <g id="patch_3">
    <path d="M 43.411094 253.44 
L 43.411094 36 
" style="fill: none; stroke: #ffffff; stroke-width: 1.25; stroke-linejoin: miter; stroke-linecap: square"/>
   </g>
   <g id="patch_4">
    <path d="M 378.211094 253.44 
L 378.211094 36 
" style="fill: none; stroke: #ffffff; stroke-width: 1.25; stroke-linejoin: miter; stroke-linecap: square"/>
   </g>
   <g id="patch_5">
    <path d="M 43.411094 253.44 
L 378.211094 253.44 
" style="fill: none; stroke: #ffffff; stroke-width: 1.25; stroke-linejoin: miter; stroke-linecap: square"/>
   </g>
   <g id="patch_6">
    <path d="M 43.411094 36 
L 378.211094 36 
" style="fill: none; stroke: #ffffff; stroke-width: 1.25; stroke-linejoin: miter; stroke-linecap: square"/>
   </g>
   <g id="legend_1">
    <g id="patch_7">
     <path d="M 305.275937 77.397812 
L 370.511094 77.397812 
Q 372.711094 77.397812 372.711094 75.197812 
L 372.711094 43.7 
Q 372.711094 41.5 370.511094 41.5 
L 305.275937 41.5 
Q 303.075938 41.5 303.075938 43.7 
L 303.075938 75.197812 
Q 303.075938 77.397812 305.275937 77.397812 
z
" style="fill: #d9d9d9; opacity: 0.8; stroke: #cccccc; stroke-linejoin: miter"/>
    </g>
    <g id="line2d_18">
     <path d="M 307.475937 50.408281 
L 318.475937 50.408281 
L 329.475937 50.408281 
" style="fill: none; stroke: #9100ff; stroke-width: 1.5; stroke-linecap: round"/>
    </g>
    <g id="text_15">
     <!-- X -->
     <g style="fill: #262626" transform="translate(338.275937 54.258281)scale(0.11 -0.11)">
      <defs>
       <path id="DejaVuSans-58" d="M 403 4666 
L 1081 4666 
L 2241 2931 
L 3406 4666 
L 4084 4666 
L 2584 2425 
L 4184 0 
L 3506 0 
L 2194 1984 
L 872 0 
L 191 0 
L 1856 2491 
L 403 4666 
z
" transform="scale(0.015625)"/>
      </defs>
      <use xlink:href="#DejaVuSans-58"/>
     </g>
    </g>
    <g id="line2d_19">
     <path d="M 307.475937 66.554219 
L 318.475937 66.554219 
L 329.475937 66.554219 
" style="fill: none; stroke: #00c6ff; stroke-width: 1.5; stroke-linecap: round"/>
    </g>
    <g id="text_16">
     <!-- x_hat -->
     <g style="fill: #262626" transform="translate(338.275937 70.404219)scale(0.11 -0.11)">
      <defs>
       <path id="DejaVuSans-78" d="M 3513 3500 
L 2247 1797 
L 3578 0 
L 2900 0 
L 1881 1375 
L 863 0 
L 184 0 
L 1544 1831 
L 300 3500 
L 978 3500 
L 1906 2253 
L 2834 3500 
L 3513 3500 
z
" transform="scale(0.015625)"/>
       <path id="DejaVuSans-5f" d="M 3263 -1063 
L 3263 -1509 
L -63 -1509 
L -63 -1063 
L 3263 -1063 
z
" transform="scale(0.015625)"/>
       <path id="DejaVuSans-68" d="M 3513 2113 
L 3513 0 
L 2938 0 
L 2938 2094 
Q 2938 2591 2744 2837 
Q 2550 3084 2163 3084 
Q 1697 3084 1428 2787 
Q 1159 2491 1159 1978 
L 1159 0 
L 581 0 
L 581 4863 
L 1159 4863 
L 1159 2956 
Q 1366 3272 1645 3428 
Q 1925 3584 2291 3584 
Q 2894 3584 3203 3211 
Q 3513 2838 3513 2113 
z
" transform="scale(0.015625)"/>
       <path id="DejaVuSans-61" d="M 2194 1759 
Q 1497 1759 1228 1600 
Q 959 1441 959 1056 
Q 959 750 1161 570 
Q 1363 391 1709 391 
Q 2188 391 2477 730 
Q 2766 1069 2766 1631 
L 2766 1759 
L 2194 1759 
z
M 3341 1997 
L 3341 0 
L 2766 0 
L 2766 531 
Q 2569 213 2275 61 
Q 1981 -91 1556 -91 
Q 1019 -91 701 211 
Q 384 513 384 1019 
Q 384 1609 779 1909 
Q 1175 2209 1959 2209 
L 2766 2209 
L 2766 2266 
Q 2766 2663 2505 2880 
Q 2244 3097 1772 3097 
Q 1472 3097 1187 3025 
Q 903 2953 641 2809 
L 641 3341 
Q 956 3463 1253 3523 
Q 1550 3584 1831 3584 
Q 2591 3584 2966 3190 
Q 3341 2797 3341 1997 
z
" transform="scale(0.015625)"/>
       <path id="DejaVuSans-74" d="M 1172 4494 
L 1172 3500 
L 2356 3500 
L 2356 3053 
L 1172 3053 
L 1172 1153 
Q 1172 725 1289 603 
Q 1406 481 1766 481 
L 2356 481 
L 2356 0 
L 1766 0 
Q 1100 0 847 248 
Q 594 497 594 1153 
L 594 3053 
L 172 3053 
L 172 3500 
L 594 3500 
L 594 4494 
L 1172 4494 
z
" transform="scale(0.015625)"/>
      </defs>
      <use xlink:href="#DejaVuSans-78"/>
      <use xlink:href="#DejaVuSans-5f" x="59.179688"/>
      <use xlink:href="#DejaVuSans-68" x="109.179688"/>
      <use xlink:href="#DejaVuSans-61" x="172.558594"/>
      <use xlink:href="#DejaVuSans-74" x="233.837891"/>
     </g>
    </g>
   </g>
  </g>
  <g id="text_17">
   <!-- Sequential Linear Regression Results -->
   <g style="fill: #262626" transform="translate(72.430469 18.14175)scale(0.144 -0.144)">
    <defs>
     <path id="DejaVuSans-53" d="M 3425 4513 
L 3425 3897 
Q 3066 4069 2747 4153 
Q 2428 4238 2131 4238 
Q 1616 4238 1336 4038 
Q 1056 3838 1056 3469 
Q 1056 3159 1242 3001 
Q 1428 2844 1947 2747 
L 2328 2669 
Q 3034 2534 3370 2195 
Q 3706 1856 3706 1288 
Q 3706 609 3251 259 
Q 2797 -91 1919 -91 
Q 1588 -91 1214 -16 
Q 841 59 441 206 
L 441 856 
Q 825 641 1194 531 
Q 1563 422 1919 422 
Q 2459 422 2753 634 
Q 3047 847 3047 1241 
Q 3047 1584 2836 1778 
Q 2625 1972 2144 2069 
L 1759 2144 
Q 1053 2284 737 2584 
Q 422 2884 422 3419 
Q 422 4038 858 4394 
Q 1294 4750 2059 4750 
Q 2388 4750 2728 4690 
Q 3069 4631 3425 4513 
z
" transform="scale(0.015625)"/>
     <path id="DejaVuSans-71" d="M 947 1747 
Q 947 1113 1208 752 
Q 1469 391 1925 391 
Q 2381 391 2643 752 
Q 2906 1113 2906 1747 
Q 2906 2381 2643 2742 
Q 2381 3103 1925 3103 
Q 1469 3103 1208 2742 
Q 947 2381 947 1747 
z
M 2906 525 
Q 2725 213 2448 61 
Q 2172 -91 1784 -91 
Q 1150 -91 751 415 
Q 353 922 353 1747 
Q 353 2572 751 3078 
Q 1150 3584 1784 3584 
Q 2172 3584 2448 3432 
Q 2725 3281 2906 2969 
L 2906 3500 
L 3481 3500 
L 3481 -1331 
L 2906 -1331 
L 2906 525 
z
" transform="scale(0.015625)"/>
     <path id="DejaVuSans-75" d="M 544 1381 
L 544 3500 
L 1119 3500 
L 1119 1403 
Q 1119 906 1312 657 
Q 1506 409 1894 409 
Q 2359 409 2629 706 
Q 2900 1003 2900 1516 
L 2900 3500 
L 3475 3500 
L 3475 0 
L 2900 0 
L 2900 538 
Q 2691 219 2414 64 
Q 2138 -91 1772 -91 
Q 1169 -91 856 284 
Q 544 659 544 1381 
z
M 1991 3584 
L 1991 3584 
z
" transform="scale(0.015625)"/>
     <path id="DejaVuSans-6e" d="M 3513 2113 
L 3513 0 
L 2938 0 
L 2938 2094 
Q 2938 2591 2744 2837 
Q 2550 3084 2163 3084 
Q 1697 3084 1428 2787 
Q 1159 2491 1159 1978 
L 1159 0 
L 581 0 
L 581 3500 
L 1159 3500 
L 1159 2956 
Q 1366 3272 1645 3428 
Q 1925 3584 2291 3584 
Q 2894 3584 3203 3211 
Q 3513 2838 3513 2113 
z
" transform="scale(0.015625)"/>
     <path id="DejaVuSans-6c" d="M 603 4863 
L 1178 4863 
L 1178 0 
L 603 0 
L 603 4863 
z
" transform="scale(0.015625)"/>
     <path id="DejaVuSans-20" transform="scale(0.015625)"/>
     <path id="DejaVuSans-4c" d="M 628 4666 
L 1259 4666 
L 1259 531 
L 3531 531 
L 3531 0 
L 628 0 
L 628 4666 
z
" transform="scale(0.015625)"/>
     <path id="DejaVuSans-72" d="M 2631 2963 
Q 2534 3019 2420 3045 
Q 2306 3072 2169 3072 
Q 1681 3072 1420 2755 
Q 1159 2438 1159 1844 
L 1159 0 
L 581 0 
L 581 3500 
L 1159 3500 
L 1159 2956 
Q 1341 3275 1631 3429 
Q 1922 3584 2338 3584 
Q 2397 3584 2469 3576 
Q 2541 3569 2628 3553 
L 2631 2963 
z
" transform="scale(0.015625)"/>
     <path id="DejaVuSans-52" d="M 2841 2188 
Q 3044 2119 3236 1894 
Q 3428 1669 3622 1275 
L 4263 0 
L 3584 0 
L 2988 1197 
Q 2756 1666 2539 1819 
Q 2322 1972 1947 1972 
L 1259 1972 
L 1259 0 
L 628 0 
L 628 4666 
L 2053 4666 
Q 2853 4666 3247 4331 
Q 3641 3997 3641 3322 
Q 3641 2881 3436 2590 
Q 3231 2300 2841 2188 
z
M 1259 4147 
L 1259 2491 
L 2053 2491 
Q 2509 2491 2742 2702 
Q 2975 2913 2975 3322 
Q 2975 3731 2742 3939 
Q 2509 4147 2053 4147 
L 1259 4147 
z
" transform="scale(0.015625)"/>
     <path id="DejaVuSans-67" d="M 2906 1791 
Q 2906 2416 2648 2759 
Q 2391 3103 1925 3103 
Q 1463 3103 1205 2759 
Q 947 2416 947 1791 
Q 947 1169 1205 825 
Q 1463 481 1925 481 
Q 2391 481 2648 825 
Q 2906 1169 2906 1791 
z
M 3481 434 
Q 3481 -459 3084 -895 
Q 2688 -1331 1869 -1331 
Q 1566 -1331 1297 -1286 
Q 1028 -1241 775 -1147 
L 775 -588 
Q 1028 -725 1275 -790 
Q 1522 -856 1778 -856 
Q 2344 -856 2625 -561 
Q 2906 -266 2906 331 
L 2906 616 
Q 2728 306 2450 153 
Q 2172 0 1784 0 
Q 1141 0 747 490 
Q 353 981 353 1791 
Q 353 2603 747 3093 
Q 1141 3584 1784 3584 
Q 2172 3584 2450 3431 
Q 2728 3278 2906 2969 
L 2906 3500 
L 3481 3500 
L 3481 434 
z
" transform="scale(0.015625)"/>
     <path id="DejaVuSans-73" d="M 2834 3397 
L 2834 2853 
Q 2591 2978 2328 3040 
Q 2066 3103 1784 3103 
Q 1356 3103 1142 2972 
Q 928 2841 928 2578 
Q 928 2378 1081 2264 
Q 1234 2150 1697 2047 
L 1894 2003 
Q 2506 1872 2764 1633 
Q 3022 1394 3022 966 
Q 3022 478 2636 193 
Q 2250 -91 1575 -91 
Q 1294 -91 989 -36 
Q 684 19 347 128 
L 347 722 
Q 666 556 975 473 
Q 1284 391 1588 391 
Q 1994 391 2212 530 
Q 2431 669 2431 922 
Q 2431 1156 2273 1281 
Q 2116 1406 1581 1522 
L 1381 1569 
Q 847 1681 609 1914 
Q 372 2147 372 2553 
Q 372 3047 722 3315 
Q 1072 3584 1716 3584 
Q 2034 3584 2315 3537 
Q 2597 3491 2834 3397 
z
" transform="scale(0.015625)"/>
     <path id="DejaVuSans-6f" d="M 1959 3097 
Q 1497 3097 1228 2736 
Q 959 2375 959 1747 
Q 959 1119 1226 758 
Q 1494 397 1959 397 
Q 2419 397 2687 759 
Q 2956 1122 2956 1747 
Q 2956 2369 2687 2733 
Q 2419 3097 1959 3097 
z
M 1959 3584 
Q 2709 3584 3137 3096 
Q 3566 2609 3566 1747 
Q 3566 888 3137 398 
Q 2709 -91 1959 -91 
Q 1206 -91 779 398 
Q 353 888 353 1747 
Q 353 2609 779 3096 
Q 1206 3584 1959 3584 
z
" transform="scale(0.015625)"/>
    </defs>
    <use xlink:href="#DejaVuSans-53"/>
    <use xlink:href="#DejaVuSans-65" x="63.476562"/>
    <use xlink:href="#DejaVuSans-71" x="125"/>
    <use xlink:href="#DejaVuSans-75" x="188.476562"/>
    <use xlink:href="#DejaVuSans-65" x="251.855469"/>
    <use xlink:href="#DejaVuSans-6e" x="313.378906"/>
    <use xlink:href="#DejaVuSans-74" x="376.757812"/>
    <use xlink:href="#DejaVuSans-69" x="415.966797"/>
    <use xlink:href="#DejaVuSans-61" x="443.75"/>
    <use xlink:href="#DejaVuSans-6c" x="505.029297"/>
    <use xlink:href="#DejaVuSans-20" x="532.8125"/>
    <use xlink:href="#DejaVuSans-4c" x="564.599609"/>
    <use xlink:href="#DejaVuSans-69" x="620.3125"/>
    <use xlink:href="#DejaVuSans-6e" x="648.095703"/>
    <use xlink:href="#DejaVuSans-65" x="711.474609"/>
    <use xlink:href="#DejaVuSans-61" x="772.998047"/>
    <use xlink:href="#DejaVuSans-72" x="834.277344"/>
    <use xlink:href="#DejaVuSans-20" x="875.390625"/>
    <use xlink:href="#DejaVuSans-52" x="907.177734"/>
    <use xlink:href="#DejaVuSans-65" x="972.160156"/>
    <use xlink:href="#DejaVuSans-67" x="1033.683594"/>
    <use xlink:href="#DejaVuSans-72" x="1097.160156"/>
    <use xlink:href="#DejaVuSans-65" x="1136.023438"/>
    <use xlink:href="#DejaVuSans-73" x="1197.546875"/>
    <use xlink:href="#DejaVuSans-73" x="1249.646484"/>
    <use xlink:href="#DejaVuSans-69" x="1301.746094"/>
    <use xlink:href="#DejaVuSans-6f" x="1329.529297"/>
    <use xlink:href="#DejaVuSans-6e" x="1390.710938"/>
    <use xlink:href="#DejaVuSans-20" x="1454.089844"/>
    <use xlink:href="#DejaVuSans-52" x="1485.876953"/>
    <use xlink:href="#DejaVuSans-65" x="1550.859375"/>
    <use xlink:href="#DejaVuSans-73" x="1612.382812"/>
    <use xlink:href="#DejaVuSans-75" x="1664.482422"/>
    <use xlink:href="#DejaVuSans-6c" x="1727.861328"/>
    <use xlink:href="#DejaVuSans-74" x="1755.644531"/>
    <use xlink:href="#DejaVuSans-73" x="1794.853516"/>
   </g>
  </g>
 </g>
 <defs>
  <clipPath id="pc097d7d252">
   <rect x="43.411094" y="36" width="334.8" height="217.44"/>
  </clipPath>
 </defs>
</svg>
